SplineFontDB: 3.0
FontName: Klein-Regular
FullName: Klein
FamilyName: Klein
Weight: Regular
Copyright: Copyright (c) 2016, mrkline
UComments: "2016-1-15: Created with FontForge (http://fontforge.org)"
Version: 0.1
ItalicAngle: 0
UnderlinePosition: -100
UnderlineWidth: 50
Ascent: 800
Descent: 200
InvalidEm: 0
LayerCount: 2
Layer: 0 0 "Back" 1
Layer: 1 0 "Fore" 0
XUID: [1021 77 -1879282181 14856649]
FSType: 0
OS2Version: 0
OS2_WeightWidthSlopeOnly: 0
OS2_UseTypoMetrics: 1
CreationTime: 1452917949
ModificationTime: 1453961876
PfmFamily: 17
TTFWeight: 500
TTFWidth: 5
LineGap: 100
VLineGap: 0
OS2TypoAscent: 0
OS2TypoAOffset: 1
OS2TypoDescent: 0
OS2TypoDOffset: 1
OS2TypoLinegap: 200
OS2WinAscent: 0
OS2WinAOffset: 1
OS2WinDescent: 0
OS2WinDOffset: 1
HheadAscent: 0
HheadAOffset: 1
HheadDescent: 0
HheadDOffset: 1
OS2XHeight: 430
OS2Vendor: 'PfEd'
Lookup: 4 0 1 "'liga' standard ligatures" { "'liga' standard ligatures-subtable"  } ['liga' ('DFLT' <'dflt' > 'latn' <'dflt' > ) ]
Lookup: 4 0 0 "'dlig' discretionary/historic ligatures" { "'dlig' discretionary/historic ligatures-subtable"  } ['dlig' ('DFLT' <'dflt' > 'latn' <'dflt' > ) ]
Lookup: 258 0 0 "'kern' Horizontal Kerning" { "by class" [150,0,2] "per glyph" [100,15,2] } ['kern' ('DFLT' <'dflt' > 'latn' <'dflt' > ) ]
MarkAttachClasses: 1
DEI: 91125
KernClass2: 9 10 "by class"
 1 A
 5 V W Y
 1 T
 3 a u
 5 b o p
 5 v w y
 5 f f_f
 43 quotesingle quoteleft quotedbl quotedblleft
 3 V W
 1 A
 19 a g m n p r s u x z
 9 c d e o q
 3 i j
 5 v w y
 27 f t f_f f_i f_f_i f_l f_f_l
 45 quotesingle quoteright quotedbl quotedblright
 5 T T_h

StartChar: l
Encoding: 108 108 0
Width: 248
VWidth: 838
Flags: HMW
LayerCount: 2
Back
SplineSet
223.029296875 16.7666015625 m 1
 223.029296875 0 l 1
 29.375 0 l 1
 29.375 16.7666015625 l 1
 88.05859375 29.341796875 l 1
 88.05859375 622.041015625 l 1
 29.375 643.837890625 l 1
 29.375 654.736328125 l 1
 157.639648438 695.814453125 l 1
 165.184570312 695.814453125 l 1
 165.184570312 29.341796875 l 1
 223.029296875 16.7666015625 l 1
EndSplineSet
Fore
SplineSet
88 29 m 1
 88 621 l 1
 25 644 l 1
 25 655 l 1
 103 671 125 680 157 696 c 1
 165 696 l 1
 165 29 l 1
 223 17 l 1
 223 0 l 1
 29 0 l 1
 29 17 l 1
 88 29 l 1
EndSplineSet
Validated: 1
EndChar

StartChar: o
Encoding: 111 111 1
Width: 491
VWidth: 838
Flags: HMW
LayerCount: 2
Back
SplineSet
245.665039062 452.69921875 m 4
 277.521484375 452.69921875 306.86328125 446.830078125 333.689453125 435.09375 c 4
 360.516601562 423.356445312 383.709960938 407.2890625 403.270507812 386.889648438 c 4
 422.831054688 366.490234375 438.200195312 342.178710938 449.377929688 313.955078125 c 4
 460.5546875 285.731445312 466.14453125 255.131835938 466.14453125 222.157226562 c 4
 466.14453125 189.18359375 460.5546875 158.583984375 449.377929688 130.360351562 c 4
 438.200195312 102.13671875 422.831054688 77.6845703125 403.270507812 57.005859375 c 4
 383.709960938 36.3271484375 360.516601562 20.2578125 333.689453125 8.80078125 c 4
 306.86328125 -2.6572265625 277.521484375 -8.384765625 245.665039062 -8.384765625 c 4
 213.807617188 -8.384765625 184.466796875 -2.6572265625 157.639648438 8.80078125 c 4
 130.8125 20.2578125 107.619140625 36.3271484375 88.05859375 57.005859375 c 4
 68.4970703125 77.6845703125 53.12890625 102.13671875 41.951171875 130.360351562 c 4
 30.7734375 158.583984375 25.1845703125 189.18359375 25.1845703125 222.157226562 c 4
 25.1845703125 255.131835938 30.7734375 285.731445312 41.951171875 313.955078125 c 4
 53.12890625 342.178710938 68.4970703125 366.490234375 88.05859375 386.889648438 c 4
 107.619140625 407.2890625 130.8125 423.356445312 157.639648438 435.09375 c 4
 184.466796875 446.830078125 213.807617188 452.69921875 245.665039062 452.69921875 c 4
114.046875 222.157226562 m 4
 114.046875 161.239257812 125.642578125 113.872070312 148.836914062 80.060546875 c 4
 172.030273438 46.2470703125 204.02734375 29.33984375 244.826171875 29.33984375 c 4
 286.18359375 29.33984375 318.598632812 46.38671875 342.072265625 80.4794921875 c 4
 365.545898438 114.571289062 377.283203125 162.077148438 377.283203125 222.995117188 c 4
 377.283203125 283.35546875 365.685546875 330.44140625 342.4921875 364.254882812 c 4
 319.297851562 398.067382812 287.021484375 414.973632812 245.665039062 414.973632812 c 4
 204.307617188 414.973632812 172.03125 398.067382812 148.836914062 364.254882812 c 4
 125.643554688 330.44140625 114.046875 283.076171875 114.046875 222.157226562 c 4
EndSplineSet
Fore
SplineSet
466 222 m 3
 466 90 372 -8 247 -8 c 3
 114 -8 25 94 25 222 c 3
 25 355 122 453 244 453 c 3
 376 453 466 350 466 222 c 3
246 406 m 3
 151 406 114 326 114 222 c 3
 114 119 150 37 245 37 c 3
 340 37 377 119 377 223 c 3
 377 326 341 406 246 406 c 3
EndSplineSet
Validated: 1
EndChar

StartChar: x
Encoding: 120 120 2
Width: 505
VWidth: 838
Flags: HMW
LayerCount: 2
Back
SplineSet
275.25 280.002929688 m 1
 341.478515625 367.186523438 l 2
 348.185546875 376.12890625 352.376953125 382.556640625 354.053710938 386.46875 c 0
 355.73046875 390.380859375 356.568359375 394.572265625 356.568359375 399.043945312 c 0
 356.568359375 405.19140625 352.795898438 410.780273438 345.250976562 415.810546875 c 0
 337.706054688 420.83984375 325.271484375 424.752929688 307.9453125 427.546875 c 1
 307.9453125 444.313476562 l 1
 480.641601562 444.313476562 l 1
 480.641601562 427.546875 l 1
 467.228515625 424.752929688 455.91015625 421.958984375 446.688476562 419.1640625 c 0
 437.466796875 416.370117188 429.223632812 412.876953125 421.958984375 408.684570312 c 0
 414.692382812 404.494140625 407.985351562 399.32421875 401.837890625 393.176757812 c 0
 395.69140625 387.028320312 388.984375 379.484375 381.717773438 370.541015625 c 2
 292.017578125 254.013671875 l 1
 422.796875 52.8134765625 l 2
 430.62109375 41.0771484375 439.283203125 32.693359375 448.784179688 27.6650390625 c 0
 458.284179688 22.634765625 473.653320312 19.0009765625 494.890625 16.765625 c 1
 494.890625 -0.0009765625 l 1
 286.147460938 -0.0009765625 l 1
 286.147460938 16.765625 l 1
 306.266601562 19.0009765625 319.540039062 21.0966796875 325.967773438 23.0537109375 c 0
 332.395507812 25.0087890625 335.608398438 28.7822265625 335.608398438 34.3701171875 c 0
 335.608398438 37.1650390625 334.770507812 40.3779296875 333.09375 44.0107421875 c 0
 331.416992188 47.6435546875 327.784179688 53.6513671875 322.1953125 62.03515625 c 2
 240.038085938 187.784179688 l 1
 156.206054688 77.125 l 2
 150.05859375 69.30078125 146.005859375 63.1533203125 144.05078125 58.6826171875 c 0
 142.095703125 54.2119140625 141.116210938 50.298828125 141.116210938 46.9453125 c 0
 141.116210938 39.12109375 145.30859375 32.833984375 153.69140625 28.083984375 c 0
 162.075195312 23.3330078125 176.046875 19.5595703125 195.608398438 16.765625 c 1
 195.608398438 -0.0009765625 l 1
 10.3369140625 -0.0009765625 l 1
 10.3369140625 16.765625 l 1
 38.28125 20.677734375 60.2177734375 26.9658203125 76.1455078125 35.6279296875 c 0
 92.07421875 44.291015625 106.745117188 57.84375 120.158203125 76.287109375 c 2
 222.434570312 215.450195312 l 1
 108.421875 391.5 l 2
 104.509765625 397.088867188 100.458007812 401.83984375 96.2666015625 405.752929688 c 0
 92.07421875 409.6640625 87.0439453125 413.017578125 81.17578125 415.811523438 c 0
 75.3076171875 418.606445312 68.322265625 420.841796875 60.2177734375 422.518554688 c 0
 52.1142578125 424.1953125 42.1943359375 425.872070312 30.45703125 427.548828125 c 1
 30.45703125 444.315429688 l 1
 115.965820312 444.315429688 l 4
 240.877929688 444.315429688 l 1
 240.877929688 427.548828125 l 1
 224.111328125 426.431640625 212.515625 424.334960938 206.086914062 421.260742188 c 0
 199.659179688 418.1875 196.446289062 414.415039062 196.446289062 409.943359375 c 0
 196.446289062 403.795898438 200.637695312 394.57421875 209.021484375 382.279296875 c 2
 275.25 280.002929688 l 1
EndSplineSet
Fore
SplineSet
308 428 m 1
 308 444 l 1
 481 444 l 1
 481 428 l 1
 444 418 439 416 392 354 c 2
 303 238 l 1
 423 53 l 2
 440 27 455 21 495 17 c 1
 495 0 l 1
 286 0 l 1
 286 17 l 1
 306 19 320 21 326 23 c 0
 332 25 336 28 336 34 c 0
 336 45 330 51 323 62 c 2
 251 171 l 1
 167 60 l 2
 161 51 157 44 157 38 c 0
 157 25 174 20 195 17 c 1
 195 0 l 1
 10 0 l 1
 10 17 l 1
 67 24 85 51 113 88 c 2
 215 227 l 1
 109 392 l 1
 91 417 67 423 30 428 c 1
 30 444 l 1
 241 444 l 1
 241 428 l 1
 221 426 196 424 196 410 c 0
 196 404 201 394 209 382 c 2
 268 292 l 1
 334 379 l 2
 342 390 350 399 350 406 c 0
 350 414 340 422 308 428 c 1
EndSplineSet
Validated: 1
EndChar

StartChar: y
Encoding: 121 121 3
Width: 489
VWidth: 838
Flags: HMW
LayerCount: 2
Back
SplineSet
275.36328125 120.719726562 m 1
 354.165039062 361.322265625 l 2
 358.078125 372.5 360.033203125 382.560546875 360.033203125 391.502929688 c 0
 360.033203125 401.563476562 355.143554688 409.806640625 345.36328125 416.233398438 c 0
 335.58203125 422.661132812 318.956054688 426.43359375 295.482421875 427.55078125 c 1
 295.482421875 444.317382812 l 1
 484.106445312 444.317382812 l 1
 484.106445312 427.55078125 l 1
 467.899414062 424.756835938 454.625976562 421.823242188 444.287109375 418.748046875 c 0
 433.948242188 415.674804688 425.423828125 411.76171875 418.717773438 407.01171875 c 0
 412.010742188 402.260742188 406.5625 396.11328125 402.37109375 388.568359375 c 0
 398.178710938 381.0234375 394.126953125 371.661132812 390.21484375 360.483398438 c 2
 226.739257812 -118.203125 l 2
 220.592773438 -136.086914062 214.165039062 -150.7578125 207.458984375 -162.21484375 c 0
 200.751953125 -173.672851562 194.044921875 -182.754882812 187.338867188 -189.4609375 c 0
 178.955078125 -198.961914062 168.616210938 -206.087890625 156.3203125 -210.838867188 c 0
 144.024414062 -215.588867188 130.611328125 -217.963867188 116.080078125 -217.963867188 c 4
 95.4013671875 -217.963867188 78.7744140625 -212.794921875 66.19921875 -202.455078125 c 4
 53.625 -192.116210938 47.3369140625 -178.5625 47.3369140625 -161.795898438 c 4
 47.3369140625 -148.94140625 51.5283203125 -138.462890625 59.912109375 -130.359375 c 4
 68.2958984375 -122.25390625 79.7529296875 -118.203125 94.2841796875 -118.203125 c 4
 105.461914062 -118.203125 113.984375 -121.13671875 119.852539062 -127.005859375 c 4
 125.720703125 -132.874023438 130.052734375 -142.793945312 132.846679688 -156.765625 c 4
 133.963867188 -167.385742188 135.640625 -174.232421875 137.876953125 -177.305664062 c 0
 140.112304688 -180.380859375 144.025390625 -181.916992188 149.614257812 -181.916992188 c 0
 159.115234375 -181.916992188 167.637695312 -176.608398438 175.18359375 -165.98828125 c 0
 182.728515625 -155.370117188 190.692382812 -137.485351562 199.076171875 -112.334960938 c 2
 233.447265625 -6.7060546875 l 1
 69.97265625 394.016601562 l 2
 64.943359375 404.634765625 57.95703125 412.458984375 49.0146484375 417.489257812 c 0
 40.072265625 422.51953125 27.21875 425.873046875 10.451171875 427.548828125 c 1
 10.451171875 444.31640625 l 1
 217.51953125 444.31640625 l 1
 217.51953125 427.548828125 l 1
 195.163085938 426.431640625 180.352539062 424.755859375 173.086914062 422.51953125 c 0
 165.821289062 420.284179688 162.188476562 416.37109375 162.188476562 410.78125 c 0
 162.188476562 405.752929688 164.423828125 397.369140625 168.89453125 385.631835938 c 2
 271.171875 120.719726562 l 1
 275.36328125 120.719726562 l 1
EndSplineSet
Fore
SplineSet
48 -162 m 3
 48 -135 66 -118 94 -118 c 3
 138 -118 125 -164 142 -164 c 0
 151 -164 165 -151 176 -118 c 2
 223 19 l 1
 70 394 l 1
 59 417 42 425 10 428 c 1
 10 444 l 1
 217 444 l 1
 217 428 l 1
 190 428 162 427 162 410 c 0
 162 405 164 397 168 386 c 2
 262 146 l 1
 266 146 l 1
 344 387 l 2
 346 393 347 397 347 402 c 0
 347 416 337 428 296 428 c 1
 296 444 l 1
 484 444 l 1
 484 428 l 1
 447 422 418 416 402 389 c 0
 398 382 394 372 390 361 c 2
 226 -121 l 2
 199 -200 159 -218 116 -218 c 3
 79 -218 48 -198 48 -162 c 3
EndSplineSet
Validated: 1
EndChar

StartChar: z
Encoding: 122 122 4
Width: 408
VWidth: 838
Flags: HMW
LayerCount: 2
Fore
SplineSet
383 444 m 1
 383 422 l 1
 118 27 l 1
 312 27 l 1
 353 162 l 1
 370 160 l 1
 365 0 l 1
 20 0 l 1
 20 24 l 1
 281 418 l 1
 96 418 l 1
 55 277 l 1
 37 278 l 1
 47 444 l 1
 383 444 l 1
EndSplineSet
Validated: 1
EndChar

StartChar: i
Encoding: 105 105 5
Width: 257
VWidth: 838
Flags: HMW
LayerCount: 2
Back
SplineSet
74.64453125 599.40625 m 4
 74.64453125 615.055664062 79.53515625 628.049804688 89.3154296875 638.388671875 c 4
 99.0966796875 648.727539062 112.090820312 653.8984375 128.297851562 653.8984375 c 4
 145.064453125 653.8984375 158.337890625 648.727539062 168.119140625 638.388671875 c 4
 177.899414062 628.049804688 182.790039062 615.055664062 182.790039062 599.40625 c 4
 182.790039062 584.875 177.899414062 572.30078125 168.119140625 561.681640625 c 4
 158.337890625 551.0625 145.064453125 545.752929688 128.297851562 545.752929688 c 4
 112.090820312 545.752929688 99.0966796875 551.0625 89.3154296875 561.681640625 c 4
 79.53515625 572.30078125 74.64453125 584.875 74.64453125 599.40625 c 4
231.413085938 16.7666015625 m 5
 231.413085938 0 l 5
 25.18359375 0 l 5
 25.18359375 16.7666015625 l 5
 88.896484375 29.341796875 l 5
 88.896484375 378.086914062 l 5
 26.8603515625 400.72265625 l 5
 26.8603515625 412.458007812 l 5
 160.993164062 452.69921875 l 5
 168.538085938 452.69921875 l 5
 168.538085938 29.341796875 l 5
 231.413085938 16.7666015625 l 5
EndSplineSet
Fore
SplineSet
159 453 m 1
 169 453 l 1
 169 29 l 1
 232 17 l 1
 232 0 l 1
 25 0 l 1
 25 17 l 1
 89 29 l 1
 89 378 l 1
 27 401 l 1
 27 412 l 1
 105 428 127 437 159 453 c 1
128 546 m 3
 98 546 74 571 74 600 c 3
 74 632 96 654 128 654 c 3
 161 654 183 633 183 600 c 3
 183 569 160 546 128 546 c 3
EndSplineSet
Validated: 1
EndChar

StartChar: t
Encoding: 116 116 6
Width: 288
VWidth: 838
Flags: HMWO
LayerCount: 2
Back
SplineSet
616.119140625 58.9208984375 m 1
 586.141601562 19.640625 546.861328125 0 497.243164062 0 c 0
 443.491210938 0 377.333984375 20.673828125 377.333984375 105.4375 c 2
 377.333984375 386.603515625 l 1
 307.04296875 386.603515625 l 1
 307.04296875 414.513671875 l 1
 388.705078125 417.615234375 426.952148438 463.09765625 425.91796875 566.467773438 c 1
 456.928710938 566.467773438 l 1
 456.928710938 414.513671875 l 1
 576.837890625 414.513671875 l 1
 576.837890625 386.603515625 l 1
 456.928710938 386.603515625 l 1
 456.928710938 288.40234375 l 0
 456.928710938 143.684570312 l 2
 456.928710938 67.1904296875 477.603515625 33.078125 519.984375 33.078125 c 0
 544.793945312 33.078125 564.43359375 44.44921875 593.377929688 77.52734375 c 1
 616.119140625 58.9208984375 l 1
164.391601562 -8.26953125 m 0
 137.515625 -8.26953125 115.807617188 0 99.2685546875 15.505859375 c 0
 88.931640625 24.80859375 81.6962890625 36.1796875 77.5615234375 50.6513671875 c 0
 73.4267578125 65.123046875 71.359375 84.763671875 71.359375 110.60546875 c 2
 71.359375 414.513671875 l 1
 17.6064453125 414.513671875 l 1
 15.5390625 427.952148438 l 1
 136.482421875 554.063476562 l 1
 150.954101562 551.99609375 l 1
 150.954101562 444.491210938 l 1
 270.86328125 444.491210938 l 1
 264.661132812 414.513671875 l 1
 150.954101562 414.513671875 l 1
 150.954101562 117.841796875 l 2
 150.954101562 97.16796875 151.987304688 82.6962890625 153.021484375 74.4267578125 c 0
 154.0546875 66.1572265625 156.122070312 59.955078125 159.223632812 54.7861328125 c 0
 168.526367188 39.2802734375 181.96484375 31.0107421875 200.571289062 31.0107421875 c 0
 211.942382812 31.0107421875 223.3125 34.1123046875 234.68359375 40.314453125 c 0
 246.0546875 46.5166015625 256.391601562 54.7861328125 264.661132812 65.123046875 c 1
 279.1328125 54.7861328125 l 1
 266.728515625 35.1455078125 249.155273438 19.640625 229.514648438 8.26953125 c 0
 209.875 -3.1015625 187.133789062 -8.26953125 164.391601562 -8.26953125 c 0
EndSplineSet
Fore
SplineSet
278 55 m 1
 256 22 216 -8 164 -8 c 0
 121 -8 89 15 78 51 c 0
 74 65 71 85 71 111 c 2
 71 406 l 1
 15 406 l 1
 15 444 l 1
 79 446 126 513 129 587 c 1
 151 587 l 1
 151 444 l 1
 271 444 l 1
 271 406 l 1
 151 406 l 1
 151 118 l 2
 151 95 152 67 159 55 c 0
 168 39 180 31 200 31 c 0
 227 31 251 48 264 65 c 1
 278 55 l 1
EndSplineSet
Validated: 1
EndChar

StartChar: s
Encoding: 115 115 7
Width: 355
VWidth: 838
Flags: HMW
LayerCount: 2
Back
SplineSet
195.8125 452.69921875 m 4
 214.815429688 452.69921875 233.400390625 451.440429688 251.565429688 448.92578125 c 4
 269.728515625 446.41015625 284.120117188 442.916992188 294.739257812 438.446289062 c 5
 294.739257812 321.91796875 l 5
 277.134765625 321.91796875 l 5
 268.750976562 392.337890625 236.056640625 427.547851562 179.049804688 427.547851562 c 4
 156.693359375 427.547851562 138.94921875 421.540039062 125.815429688 409.5234375 c 4
 112.680664062 397.5078125 106.114257812 380.880859375 106.114257812 359.643554688 c 4
 106.114257812 341.201171875 111.284179688 326.25 121.624023438 314.79296875 c 4
 131.962890625 303.334960938 144.81640625 293.415039062 160.185546875 285.032226562 c 4
 175.5546875 276.649414062 192.321289062 268.544921875 210.485351562 260.720703125 c 4
 228.650390625 252.897460938 245.416015625 243.53515625 260.78515625 232.63671875 c 4
 276.154296875 221.73828125 289.008789062 208.045898438 299.34765625 191.55859375 c 4
 309.6875 175.071289062 314.856445312 153.693359375 314.856445312 127.426757812 c 4
 314.856445312 85.509765625 301.024414062 52.3955078125 273.359375 28.0849609375 c 4
 245.6953125 3.7724609375 208.110351562 -8.3837890625 160.604492188 -8.3837890625 c 4
 142.719726562 -8.3837890625 123.018554688 -6.70703125 101.501953125 -3.353515625 c 4
 79.984375 0 61.1220703125 4.470703125 44.9150390625 10.060546875 c 5
 39.884765625 145.870117188 l 5
 60.0048828125 145.870117188 l 5
 67.8291015625 59.7998046875 103.59765625 16.7666015625 167.310546875 16.7666015625 c 4
 192.459960938 16.7666015625 212.580078125 23.7529296875 227.670898438 37.724609375 c 4
 242.760742188 51.697265625 250.305664062 70.419921875 250.305664062 93.8935546875 c 4
 250.305664062 113.454101562 245.135742188 129.381835938 234.796875 141.677734375 c 4
 224.458007812 153.973632812 211.462890625 164.731445312 195.813476562 173.953125 c 4
 180.165039062 183.174804688 163.258789062 191.837890625 145.09375 199.942382812 c 4
 126.930664062 208.045898438 110.0234375 217.546875 94.3740234375 228.444335938 c 4
 78.7255859375 239.342773438 65.7314453125 252.756835938 55.392578125 268.685546875 c 4
 45.052734375 284.61328125 39.8828125 305.15234375 39.8828125 330.302734375 c 4
 39.8828125 369.424804688 53.296875 399.604492188 80.1220703125 420.841796875 c 4
 106.94921875 442.079101562 145.512695312 452.69921875 195.8125 452.69921875 c 4
EndSplineSet
Fore
SplineSet
40 331 m 3
 40 417 87 453 178 453 c 3
 212 453 272 447 295 438 c 1
 295 321 l 1
 277 321 l 1
 269 391 236 406 179 406 c 3
 136 406 107 388 107 360 c 3
 107 320 132 301 160 285 c 0
 192 267 233 254 262 233 c 0
 293 211 315 180 315 127 c 3
 315 39 257 -8 167 -8 c 3
 130 -8 73 0 44 10 c 1
 40 146 l 1
 60 146 l 1
 67 59 103 37 167 37 c 3
 234 37 250 68 250 94 c 3
 250 136 223 158 195 175 c 0
 163 194 124 207 94 228 c 0
 64 249 40 280 40 331 c 3
EndSplineSet
Validated: 1
EndChar

StartChar: h
Encoding: 104 104 8
Width: 517
VWidth: 838
Flags: HMW
LayerCount: 2
Back
SplineSet
226.1875 16.7666015625 m 1
 226.186523438 0.0009765625 l 1
 19.9580078125 0.0009765625 l 1
 19.9580078125 16.767578125 l 1
 83.6708984375 29.3427734375 l 1
 83.6708984375 621.204101562 l 1
 21.634765625 643.838867188 l 1
 21.634765625 655.576171875 l 1
 154.927734375 695.815429688 l 1
 163.311523438 695.815429688 l 1
 163.311523438 383.118164062 l 1
 189.021484375 405.473632812 216.266601562 422.659179688 245.048828125 434.674804688 c 0
 273.83203125 446.690429688 302.474609375 452.69921875 330.978515625 452.69921875 c 0
 353.333984375 452.69921875 373.173828125 448.228515625 390.500976562 439.286132812 c 0
 407.826171875 430.342773438 420.401367188 418.047851562 428.225585938 402.399414062 c 0
 430.4609375 397.927734375 432.27734375 393.038085938 433.674804688 387.728515625 c 0
 435.073242188 382.419921875 436.190429688 375.293945312 437.028320312 366.3515625 c 0
 437.8671875 357.409179688 438.426757812 346.370117188 438.705078125 333.236328125 c 0
 438.984375 320.102539062 439.124023438 303.475585938 439.124023438 283.35546875 c 2
 439.124023438 28.50390625 l 1
 501.999023438 16.7666015625 l 1
 501.999023438 0 l 1
 296.608398438 0 l 1
 296.608398438 16.7666015625 l 1
 359.482421875 28.50390625 l 1
 359.482421875 274.97265625 l 2
 359.482421875 299.004882812 358.78515625 318.146484375 357.38671875 332.3984375 c 0
 355.990234375 346.649414062 353.334960938 358.526367188 349.421875 368.02734375 c 0
 338.802734375 393.736328125 317.005859375 406.590820312 284.032226562 406.590820312 c 0
 237.0859375 406.590820312 196.846679688 388.42578125 163.3125 352.098632812 c 1
 163.3125 29.341796875 l 1
 226.1875 16.7666015625 l 1
EndSplineSet
Fore
SplineSet
153 696 m 1
 163 696 l 1
 163 398 l 1
 205 435 262 453 331 453 c 3
 382 453 423 428 434 388 c 0
 439 369 439 349 439 326 c 2
 439 326 439 128 439 29 c 1
 502 17 l 1
 502 0 l 1
 297 0 l 1
 297 17 l 1
 360 29 l 1
 360 275 l 2
 360 349 355 396 284 396 c 3
 237 396 196 380 163 344 c 1
 163 29 l 1
 226 17 l 1
 226 0 l 1
 20 0 l 1
 20 17 l 1
 84 29 l 1
 84 621 l 1
 21 644 l 1
 21 655 l 1
 99 671 121 680 153 696 c 1
EndSplineSet
Validated: 1
EndChar

StartChar: b
Encoding: 98 98 9
Width: 490
VWidth: 838
Flags: HMW
LayerCount: 2
Back
SplineSet
243.563476562 -8.3837890625 m 4
 200.529296875 -8.3837890625 161.96484375 4.4697265625 127.872070312 30.1787109375 c 5
 123.680664062 30.1787109375 l 5
 85.1181640625 1.67578125 l 5
 71.7041015625 1.67578125 l 5
 71.7041015625 621.202148438 l 5
 10.505859375 643.837890625 l 5
 10.505859375 654.736328125 l 5
 143.80078125 695.813476562 l 5
 152.18359375 695.813476562 l 5
 152.18359375 395.69140625 l 5
 187.393554688 433.6953125 229.869140625 452.698242188 279.609375 452.698242188 c 4
 306.99609375 452.698242188 332.005859375 447.52734375 354.640625 437.188476562 c 4
 377.275390625 426.849609375 396.836914062 412.319335938 413.323242188 393.596679688 c 4
 429.811523438 374.874023438 442.526367188 352.517578125 451.46875 326.530273438 c 4
 460.411132812 300.541015625 464.8828125 271.8984375 464.8828125 240.600585938 c 4
 464.8828125 205.391601562 459.29296875 172.556640625 448.115234375 142.09765625 c 4
 436.938476562 111.637695312 421.428710938 85.23046875 401.588867188 62.875 c 4
 381.747070312 40.51953125 358.274414062 23.0546875 331.168945312 10.4794921875 c 4
 304.0625 -2.095703125 274.861328125 -8.3837890625 243.563476562 -8.3837890625 c 4
243.561523438 20.119140625 m 4
 263.681640625 20.119140625 281.84765625 24.8701171875 298.0546875 34.37109375 c 4
 314.26171875 43.873046875 328.094726562 57.1455078125 339.552734375 74.19140625 c 4
 351.009765625 91.2373046875 359.8125 111.916015625 365.959960938 136.228515625 c 4
 372.106445312 160.5390625 375.181640625 187.506835938 375.181640625 217.125976562 c 4
 375.181640625 276.369140625 363.584960938 322.897460938 340.391601562 356.708984375 c 4
 317.196289062 390.521484375 285.200195312 407.427734375 244.401367188 407.427734375 c 4
 225.3984375 407.427734375 208.072265625 403.515625 192.423828125 395.69140625 c 4
 176.774414062 387.866210938 163.361328125 377.248046875 152.18359375 363.834960938 c 5
 152.18359375 125.749023438 l 6
 152.18359375 93.8916015625 160.427734375 68.3232421875 176.9140625 49.041015625 c 4
 193.401367188 29.7607421875 215.6171875 20.119140625 243.561523438 20.119140625 c 4
EndSplineSet
Fore
SplineSet
71 621 m 1
 10 643 l 1
 10 654 l 1
 88 670 112 680 144 696 c 1
 152 696 l 1
 152 406 l 1
 187 443 229 453 279 453 c 3
 399 453 465 361 465 241 c 0
 465 101 380 -8 244 -8 c 0
 202 -8 162 4 128 30 c 1
 124 30 l 1
 85 2 l 1
 71 2 l 1
 71 621 l 1
152 126 m 2
 152 66 185 37 243 37 c 3
 330 37 375 128 375 217 c 3
 375 318 337 406 244 406 c 3
 202 406 172 377 152 352 c 1
 152 126 l 2
EndSplineSet
Validated: 1
EndChar

StartChar: v
Encoding: 118 118 10
Width: 484
VWidth: 838
Flags: HMW
LayerCount: 2
Back
SplineSet
220.872070312 -8.3837890625 m 5
 70.8115234375 391.502929688 l 6
 68.017578125 398.209960938 65.3623046875 403.659179688 62.8466796875 407.850585938 c 4
 60.33203125 412.041015625 56.978515625 415.53515625 52.787109375 418.329101562 c 4
 48.595703125 421.124023438 43.146484375 423.079101562 36.4404296875 424.196289062 c 4
 29.7333984375 425.314453125 21.0703125 426.431640625 10.451171875 427.548828125 c 5
 10.451171875 444.31640625 l 5
 218.358398438 444.31640625 l 5
 218.358398438 427.548828125 l 5
 194.325195312 426.431640625 178.67578125 424.3359375 171.41015625 421.26171875 c 4
 164.14453125 418.188476562 160.512695312 413.577148438 160.512695312 407.4296875 c 4
 160.512695312 400.723632812 162.188476562 392.33984375 165.541015625 382.279296875 c 6
 261.950195312 103.953125 l 5
 265.303710938 103.953125 l 5
 355.842773438 363.8359375 l 6
 360.873046875 378.926757812 363.387695312 390.103515625 363.387695312 397.370117188 c 4
 363.387695312 405.752929688 359.755859375 411.900390625 352.489257812 415.8125 c 4
 345.223632812 419.725585938 329.016601562 423.637695312 303.866210938 427.549804688 c 5
 303.866210938 444.317382812 l 5
 474.046875 444.317382812 l 5
 474.046875 427.549804688 l 5
 458.3984375 424.755859375 445.823242188 421.822265625 436.322265625 418.747070312 c 4
 426.822265625 415.673828125 419.13671875 411.760742188 413.268554688 407.010742188 c 4
 407.400390625 402.259765625 402.649414062 396.250976562 399.017578125 388.985351562 c 4
 395.383789062 381.719726562 391.891601562 373.056640625 388.538085938 362.997070312 c 6
 257.758789062 -8.3837890625 l 5
 220.872070312 -8.3837890625 l 5
EndSplineSet
Fore
SplineSet
304 428 m 1
 304 444 l 1
 474 444 l 1
 474 428 l 1
 438 422 412 416 399 389 c 0
 396 382 392 373 389 363 c 2
 257 -8 l 1
 221 -8 l 1
 71 392 l 2
 64 410 57 421 36 424 c 0
 30 425 21 427 10 428 c 1
 10 444 l 1
 218 444 l 1
 218 428 l 1
 188 426 160 427 160 407 c 0
 160 401 162 392 165 382 c 2
 254 125 l 1
 257 125 l 1
 348 385 l 0
 349 388 350 391 350 394 c 0
 350 410 335 425 304 428 c 1
EndSplineSet
Validated: 1
EndChar

StartChar: u
Encoding: 117 117 11
Width: 492
VWidth: 838
Flags: HMW
LayerCount: 2
Back
SplineSet
275.649414062 427.548828125 m 5
 275.6484375 444.317382812 l 5
 418.1640625 444.317382812 l 5
 418.1640625 62.8759765625 l 5
 475.170898438 42.755859375 l 5
 475.170898438 32.697265625 l 5
 349.420898438 -8.3818359375 l 5
 343.552734375 -8.3818359375 l 5
 343.552734375 67.90625 l 5
 340.200195312 68.7451171875 l 5
 320.080078125 43.5947265625 297.166015625 24.453125 271.45703125 11.3193359375 c 4
 245.747070312 -1.8154296875 218.641601562 -8.3818359375 190.138671875 -8.3818359375 c 4
 167.224609375 -8.3818359375 147.5234375 -3.9111328125 131.036132812 5.03125 c 4
 114.548828125 13.974609375 102.393554688 26.548828125 94.568359375 42.755859375 c 4
 92.3330078125 47.7861328125 90.3779296875 53.2353515625 88.701171875 59.103515625 c 4
 87.0244140625 64.97265625 85.7666015625 72.23828125 84.9287109375 80.900390625 c 4
 84.08984375 89.5634765625 83.5302734375 100.321289062 83.251953125 113.174804688 c 4
 82.9716796875 126.029296875 82.8330078125 142.236328125 82.8330078125 161.797851562 c 6
 82.8330078125 414.973632812 l 5
 19.9580078125 427.548828125 l 5
 19.9580078125 444.315429688 l 5
 162.473632812 444.315429688 l 5
 162.473632812 161.797851562 l 6
 162.473632812 135.53125 163.171875 115.41015625 164.569335938 101.4375 c 4
 165.966796875 87.4658203125 168.622070312 76.2880859375 172.534179688 67.9052734375 c 4
 177.004882812 58.404296875 184.271484375 50.859375 194.331054688 45.26953125 c 4
 204.391601562 39.6806640625 216.686523438 36.8857421875 231.217773438 36.8857421875 c 4
 250.778320312 36.8857421875 269.78125 41.916015625 288.223632812 51.9765625 c 4
 306.666992188 62.0361328125 323.434570312 76.5673828125 338.524414062 95.5693359375 c 5
 338.524414062 414.973632812 l 5
 275.649414062 427.548828125 l 5
EndSplineSet
Fore
SplineSet
349 -8 m 5
 343 -8 l 5
 343 51 l 5
 340 51 l 5
 307 9 258 -8 190 -8 c 4
 128 -8 91 25 85 82 c 4
 83 102 83 119 83 142 c 6
 83 415 l 5
 20 428 l 5
 20 444 l 5
 162 444 l 5
 162 162 l 6
 162 91 164 37 232 37 c 4
 280 37 313 83 338 113 c 5
 338 314 l 4
 338 415 l 5
 276 428 l 5
 276 444 l 5
 419 444 l 5
 419 63 l 5
 482 43 l 5
 482 32 l 5
 404 16 381 8 349 -8 c 5
EndSplineSet
Validated: 1
EndChar

StartChar: c
Encoding: 99 99 12
Width: 437
VWidth: 838
Flags: HMW
LayerCount: 2
Back
SplineSet
229.514648438 -8.26953125 m 0
 199.538085938 -8.26953125 171.627929688 -3.1015625 146.819335938 8.26953125 c 0
 122.010742188 19.640625 101.3359375 34.1123046875 82.7294921875 53.751953125 c 0
 64.123046875 73.392578125 50.6845703125 97.16796875 40.34765625 125.078125 c 0
 30.0107421875 152.987304688 24.8427734375 182.96484375 24.8427734375 216.04296875 c 0
 24.8427734375 251.189453125 30.0107421875 282.200195312 41.3818359375 311.143554688 c 0
 52.751953125 340.086914062 68.2578125 364.896484375 87.8984375 385.5703125 c 0
 107.538085938 406.244140625 131.313476562 423.817382812 158.189453125 435.1875 c 0
 185.06640625 446.55859375 215.04296875 452.760742188 248.122070312 452.760742188 c 0
 269.829101562 452.760742188 289.469726562 449.659179688 308.076171875 444.491210938 c 0
 326.682617188 439.322265625 342.188476562 433.120117188 355.626953125 423.817382812 c 0
 369.064453125 414.513671875 379.401367188 404.176757812 387.670898438 391.772460938 c 0
 395.940429688 379.368164062 399.041992188 366.963867188 399.041992188 353.525390625 c 0
 399.041992188 339.053710938 394.907226562 327.682617188 388.705078125 319.413085938 c 0
 382.502929688 311.143554688 373.19921875 305.975585938 360.794921875 305.975585938 c 0
 331.8515625 305.975585938 315.3125 323.547851562 311.177734375 358.694335938 c 0
 309.110351562 373.166015625 307.04296875 384.536132812 303.94140625 392.805664062 c 0
 300.840820312 401.075195312 297.739257812 408.311523438 292.5703125 413.48046875 c 0
 287.40234375 418.6484375 281.200195312 421.75 274.998046875 423.817382812 c 0
 268.795898438 425.884765625 260.526367188 425.884765625 251.22265625 425.884765625 c 0
 206.7734375 425.884765625 171.627929688 408.311523438 146.819335938 373.166015625 c 0
 122.010742188 338.01953125 110.639648438 291.502929688 110.639648438 232.58203125 c 0
 110.639648438 174.6953125 124.078125 131.280273438 148.88671875 100.268554688 c 0
 173.6953125 69.2578125 209.875 52.71875 255.357421875 52.71875 c 0
 280.166015625 52.71875 303.94140625 57.88671875 325.649414062 68.224609375 c 0
 347.356445312 78.5615234375 365.963867188 93.033203125 381.46875 113.70703125 c 2
 390.772460938 126.111328125 l 1
 407.311523438 117.841796875 l 1
 402.142578125 107.504882812 l 2
 387.670898438 70.2919921875 365.963867188 41.34765625 335.986328125 21.7080078125 c 0
 306.008789062 2.0673828125 269.829101562 -8.26953125 229.514648438 -8.26953125 c 0
EndSplineSet
Fore
SplineSet
399 354 m 3
 399 327 387 306 361 306 c 3
 332 306 315 324 311 359 c 0
 307 396 284 406 247 406 c 3
 142 406 111 333 111 233 c 3
 111 129 155 37 255 37 c 3
 313 37 355 78 381 114 c 2
 391 126 l 1
 407 118 l 1
 402 108 l 2
 376 41 319 -8 230 -8 c 3
 107 -8 25 87 25 216 c 3
 25 355 116 453 248 453 c 3
 317 453 399 416 399 354 c 3
EndSplineSet
Validated: 1
EndChar

StartChar: e
Encoding: 101 101 13
Width: 458
VWidth: 838
Flags: HMW
LayerCount: 2
Back
SplineSet
404.209960938 353.525390625 m 7
 404.209960938 326.649414062 391.805664062 305.975585938 365.963867188 305.975585938 c 7
 337.01953125 305.975585938 320.48046875 323.547851562 316.345703125 358.694335938 c 4
 312.2109375 395.907226562 289.469726562 406.244140625 252.256835938 406.244140625 c 7
 146.819335938 406.244140625 115.807617188 332.8515625 115.807617188 232.58203125 c 7
 115.807617188 128.178710938 160.256835938 37.212890625 260.526367188 37.212890625 c 7
 318.413085938 37.212890625 360.794921875 77.52734375 386.637695312 113.70703125 c 6
 395.940429688 126.111328125 l 5
 412.48046875 117.841796875 l 5
 407.311523438 107.504882812 l 6
 381.46875 40.314453125 323.58203125 -8.26953125 234.68359375 -8.26953125 c 7
 111.672851562 -8.26953125 30.0107421875 86.8310546875 30.0107421875 216.04296875 c 7
 30.0107421875 354.559570312 120.9765625 452.760742188 253.290039062 452.760742188 c 7
 322.547851562 452.760742188 404.209960938 415.547851562 404.209960938 353.525390625 c 7
EndSplineSet
Fore
SplineSet
118 193 m 2
 118 150 141 37 259 37 c 0
 317 37 366 76 393 109 c 2
 403 122 l 1
 417 113 l 1
 411 101 l 2
 384 37 320 -8 232 -8 c 0
 132 -8 71 50 44 124 c 0
 34 152 30 182 30 215 c 0
 30 326 84 403 163 436 c 0
 191 447 221 453 254 453 c 3
 394 453 428 358 428 218 c 1
 423 213 l 1
 117 213 l 1
 118 193 l 2
246 406 m 3
 163 406 117 345 117 256 c 1
 358 256 l 1
 356 359 312 406 246 406 c 3
EndSplineSet
Validated: 1
EndChar

StartChar: d
Encoding: 100 100 14
Width: 512
VWidth: 838
Flags: HMW
LayerCount: 2
Back
SplineSet
209.225585938 -8.3837890625 m 0
 184.634765625 -8.3837890625 161.717773438 -2.794921875 140.48046875 8.3828125 c 0
 119.243164062 19.5595703125 100.799804688 35.0693359375 85.1513671875 54.91015625 c 0
 69.501953125 74.75 57.3466796875 98.3642578125 48.68359375 125.75 c 0
 40.0205078125 153.134765625 35.689453125 182.755859375 35.689453125 214.61328125 c 0
 35.689453125 249.822265625 40.9990234375 281.958007812 51.6181640625 311.020507812 c 0
 62.2373046875 340.083007812 77.3271484375 365.092773438 96.8876953125 386.051757812 c 0
 116.448242188 407.009765625 139.642578125 423.356445312 166.469726562 435.09375 c 0
 193.294921875 446.830078125 223.197265625 452.69921875 256.169921875 452.69921875 c 0
 286.91015625 452.69921875 317.08984375 448.506835938 346.709960938 440.124023438 c 1
 346.709960938 620.364257812 l 1
 285.512695312 643.837890625 l 1
 285.512695312 654.736328125 l 1
 417.129882812 695.814453125 l 1
 425.513671875 695.814453125 l 1
 425.513671875 65.3896484375 l 1
 482.520507812 52.814453125 l 1
 482.520507812 43.5927734375 l 1
 358.447265625 -8.3837890625 l 1
 352.579101562 -8.3837890625 l 1
 352.579101562 63.712890625 l 1
 349.225585938 65.3896484375 l 1
 331.340820312 40.2392578125 310.5234375 21.65625 286.770507812 9.640625 c 0
 263.017578125 -2.375 237.169921875 -8.3837890625 209.225585938 -8.3837890625 c 0
244.432617188 46.107421875 m 0
 266.229492188 46.107421875 286.3515625 50.5791015625 304.794921875 59.5205078125 c 0
 323.237304688 68.4638671875 337.2109375 80.4794921875 346.7109375 95.568359375 c 1
 346.7109375 335.33203125 l 2
 346.7109375 396.80859375 315.97265625 427.547851562 254.494140625 427.547851562 c 0
 234.93359375 427.547851562 217.189453125 422.797851562 201.260742188 413.295898438 c 0
 185.33203125 403.794921875 171.639648438 390.381835938 160.182617188 373.056640625 c 0
 148.724609375 355.73046875 139.782226562 334.772460938 133.354492188 310.181640625 c 0
 126.927734375 285.590820312 123.713867188 258.205078125 123.713867188 228.024414062 c 0
 123.713867188 171.578125 134.333007812 127.146484375 155.571289062 94.73046875 c 0
 176.80859375 62.314453125 206.4296875 46.107421875 244.432617188 46.107421875 c 0
EndSplineSet
Fore
SplineSet
353 -8 m 1
 353 42 l 1
 349 44 l 1
 331 19 275 -8 209 -8 c 3
 153 -8 112 21 85 55 c 0
 55 92 35 149 35 215 c 3
 35 327 88 401 166 435 c 0
 193 446 223 453 256 453 c 3
 287 453 317 448 346 440 c 1
 346 620 l 1
 284 643 l 1
 284 654 l 1
 362 670 386 680 418 696 c 1
 426 696 l 1
 426 65 l 1
 492 44 l 1
 492 33 l 1
 359 -8 l 1
 353 -8 l 1
124 228 m 3
 124 133 157 37 244 37 c 0
 289 37 328 66 346 95 c 1
 346 332 l 2
 346 379 310 406 254 406 c 3
 150 406 124 331 124 228 c 3
EndSplineSet
Validated: 1
EndChar

StartChar: f
Encoding: 102 102 15
Width: 300
VWidth: 838
Flags: HMW
LayerCount: 2
Back
SplineSet
33.119140625 444.315429688 m 1
 96.83203125 444.314453125 l 1
 96.83203125 484.553710938 97.529296875 515.711914062 98.927734375 537.788085938 c 0
 100.325195312 559.86328125 103.818359375 578.166992188 109.407226562 592.697265625 c 0
 114.99609375 608.34765625 123.379882812 622.458984375 134.556640625 635.034179688 c 0
 145.735351562 647.609375 158.588867188 658.3671875 173.120117188 667.309570312 c 0
 187.650390625 676.251953125 203.299804688 683.23828125 220.06640625 688.267578125 c 0
 236.833007812 693.297851562 254.158203125 695.8125 272.04296875 695.8125 c 0
 287.1328125 695.8125 301.244140625 693.99609375 314.37890625 690.36328125 c 0
 327.512695312 686.731445312 338.969726562 681.840820312 348.750976562 675.693359375 c 0
 358.532226562 669.545898438 366.216796875 662.000976562 371.805664062 653.059570312 c 0
 377.39453125 644.116210938 380.189453125 634.615234375 380.189453125 624.555664062 c 0
 380.189453125 612.259765625 376.416992188 602.33984375 368.872070312 594.793945312 c 0
 361.327148438 587.25 351.407226562 583.477539062 339.110351562 583.477539062 c 0
 325.138671875 583.477539062 315.357421875 587.948242188 309.768554688 596.890625 c 0
 304.1796875 605.833007812 300.266601562 615.614257812 298.03125 626.233398438 c 0
 295.237304688 641.323242188 290.905273438 652.361328125 285.037109375 659.346679688 c 0
 279.168945312 666.333007812 269.52734375 669.826171875 256.114257812 669.826171875 c 0
 243.259765625 669.826171875 231.383789062 666.61328125 220.485351562 660.184570312 c 0
 209.586914062 653.7578125 200.784179688 643.278320312 194.077148438 628.748046875 c 0
 187.930664062 615.893554688 183.459960938 598.708007812 180.666015625 577.190429688 c 0
 177.87109375 555.672851562 176.474609375 526.750976562 176.474609375 490.422851562 c 2
 176.474609375 444.315429688 l 1
 284.618164062 444.315429688 l 1
 274.55859375 417.48828125 l 1
 176.474609375 417.48828125 l 1
 176.474609375 29.341796875 l 1
 265.336914062 16.7666015625 l 1
 265.336914062 0 l 1
 33.9580078125 0 l 1
 33.9580078125 16.7666015625 l 1
 96.83203125 29.341796875 l 1
 96.83203125 417.48828125 l 1
 23.0595703125 417.48828125 l 1
 33.119140625 444.315429688 l 1
EndSplineSet
Fore
SplineSet
380 624 m 3
 380 599 364 583 339 583 c 3
 279 583 318 663 256 663 c 3
 177 663 177 575 177 490 c 2
 177 444 l 1
 284 444 l 1
 284 406 l 1
 177 406 l 1
 177 29 l 1
 266 17 l 1
 266 0 l 1
 34 0 l 1
 34 17 l 1
 97 29 l 1
 97 406 l 1
 20 406 l 1
 33 444 l 1
 97 444 l 1
 97 484 97 516 98 538 c 0
 101 604 130 641 173 668 c 0
 199 684 233 696 272 696 c 3
 324 696 380 671 380 624 c 3
EndSplineSet
Validated: 1
EndChar

StartChar: g
Encoding: 103 103 16
Width: 423
VWidth: 838
Flags: HMW
LayerCount: 2
Back
SplineSet
189.014648438 -217.966796875 m 4
 168.89453125 -217.966796875 146.8203125 -215.876953125 122.788085938 -211.685546875 c 4
 98.755859375 -207.493164062 77.5185546875 -199.807617188 59.07421875 -188.630859375 c 4
 44.5439453125 -179.688476562 32.806640625 -168.650390625 23.865234375 -155.516601562 c 4
 14.921875 -142.381835938 10.451171875 -126.59375 10.451171875 -108.150390625 c 4
 10.451171875 -85.794921875 18.1357421875 -65.673828125 33.505859375 -47.7900390625 c 4
 48.875 -29.90625 75.841796875 -12.8603515625 114.404296875 3.3466796875 c 5
 76.4013671875 20.11328125 57.3974609375 43.02734375 57.3974609375 72.08984375 c 4
 57.3974609375 78.796875 58.7958984375 86.3408203125 61.58984375 94.724609375 c 4
 64.3837890625 103.108398438 69.8330078125 111.770507812 77.9375 120.712890625 c 4
 86.041015625 129.655273438 97.3583984375 138.59765625 111.889648438 147.540039062 c 4
 126.419921875 156.483398438 145.142578125 164.587890625 168.056640625 171.852539062 c 5
 135.640625 180.795898438 108.674804688 197.142578125 87.1572265625 220.89453125 c 4
 65.6396484375 244.647460938 54.880859375 274.12890625 54.880859375 309.338867188 c 4
 54.880859375 330.017578125 59.0732421875 349.159179688 67.4560546875 366.764648438 c 4
 75.83984375 384.370117188 87.296875 399.458984375 101.827148438 412.034179688 c 4
 116.358398438 424.609375 133.543945312 434.529296875 153.385742188 441.795898438 c 4
 173.2265625 449.060546875 194.603515625 452.694335938 217.517578125 452.694335938 c 4
 236.520507812 452.694335938 254.264648438 450.318359375 270.752929688 445.568359375 c 4
 287.239257812 440.817382812 302.189453125 434.25 315.603515625 425.8671875 c 5
 318.956054688 435.926757812 323.1484375 446.266601562 328.177734375 456.885742188 c 4
 333.208007812 467.50390625 339.077148438 477.286132812 345.783203125 486.227539062 c 4
 352.489257812 495.170898438 360.174804688 502.435546875 368.836914062 508.025390625 c 4
 377.499023438 513.614257812 387.419921875 516.409179688 398.59765625 516.409179688 c 4
 411.451171875 516.409179688 422.768554688 512.635742188 432.548828125 505.090820312 c 4
 442.330078125 497.545898438 447.220703125 487.345703125 447.220703125 474.491210938 c 4
 447.220703125 463.314453125 443.447265625 453.953125 435.90234375 446.408203125 c 4
 428.357421875 438.86328125 418.99609375 435.090820312 407.819335938 435.090820312 c 4
 401.670898438 435.090820312 396.920898438 436.208007812 393.567382812 438.443359375 c 4
 390.213867188 440.6796875 387.279296875 443.1953125 384.764648438 445.989257812 c 4
 382.25 448.783203125 379.594726562 451.297851562 376.80078125 453.534179688 c 4
 374.006835938 455.76953125 370.09375 456.887695312 365.063476562 456.887695312 c 4
 358.356445312 456.887695312 352.069335938 452.555664062 346.202148438 443.892578125 c 4
 340.333007812 435.23046875 336.000976562 425.309570312 333.20703125 414.1328125 c 5
 349.415039062 400.719726562 362.12890625 384.791992188 371.3515625 366.34765625 c 4
 380.573242188 347.904296875 385.18359375 328.90234375 385.18359375 309.341796875 c 4
 385.18359375 290.8984375 381.1328125 273.153320312 373.028320312 256.107421875 c 4
 364.923828125 239.061523438 353.465820312 223.831054688 338.65625 210.418945312 c 4
 323.844726562 197.005859375 306.239257812 185.828125 285.83984375 176.884765625 c 4
 265.44140625 167.943359375 242.946289062 162.633789062 218.356445312 160.95703125 c 4
 207.736328125 159.83984375 196.978515625 157.883789062 186.080078125 155.088867188 c 4
 175.181640625 152.294921875 165.401367188 148.522460938 156.739257812 143.772460938 c 4
 148.076171875 139.021484375 141.08984375 133.711914062 135.78125 127.84375 c 4
 130.47265625 121.975585938 127.817382812 115.409179688 127.817382812 108.142578125 c 4
 127.817382812 96.40625 134.5234375 86.9052734375 147.9375 79.6396484375 c 4
 161.349609375 72.3740234375 177.418945312 66.2265625 196.140625 61.1962890625 c 4
 214.86328125 56.166015625 234.564453125 51.974609375 255.243164062 48.62109375 c 4
 275.921875 45.267578125 293.52734375 41.9150390625 308.057617188 38.5615234375 c 4
 330.971679688 33.53125 349.416015625 26.8251953125 363.387695312 18.4423828125 c 4
 377.360351562 10.05859375 388.119140625 0.9775390625 395.6640625 -8.8037109375 c 4
 403.208984375 -18.5849609375 408.239257812 -28.64453125 410.752929688 -38.9833984375 c 4
 413.268554688 -49.3232421875 414.525390625 -59.2431640625 414.525390625 -68.744140625 c 4
 414.525390625 -89.9814453125 410.334960938 -108.424804688 401.951171875 -124.073242188 c 4
 393.568359375 -139.72265625 382.390625 -153.135742188 368.41796875 -164.313476562 c 4
 356.680664062 -173.814453125 343.546875 -181.91796875 329.016601562 -188.625 c 4
 314.486328125 -195.33203125 299.254882812 -200.921875 283.328125 -205.391601562 c 4
 267.399414062 -209.862304688 251.470703125 -213.076171875 235.541992188 -215.032226562 c 4
 219.614257812 -216.987304688 204.10546875 -217.966796875 189.014648438 -217.966796875 c 4
223.387695312 -24.318359375 m 4
 208.856445312 -21.5244140625 194.46484375 -18.451171875 180.212890625 -15.09765625 c 4
 165.961914062 -11.744140625 153.247070312 -8.390625 142.069335938 -5.037109375 c 5
 122.508789062 -13.98046875 106.999023438 -26.833984375 95.54296875 -43.6005859375 c 4
 84.0849609375 -60.3671875 78.3564453125 -78.53125 78.3564453125 -98.0927734375 c 4
 78.3564453125 -113.181640625 81.7099609375 -126.735351562 88.4169921875 -138.750976562 c 4
 95.123046875 -150.766601562 104.624023438 -160.686523438 116.918945312 -168.51171875 c 4
 139.275390625 -183.600585938 168.6171875 -191.145507812 204.944335938 -191.145507812 c 4
 221.7109375 -191.145507812 238.6171875 -189.46875 255.663085938 -186.115234375 c 4
 272.708984375 -182.762695312 287.938476562 -177.732421875 301.3515625 -171.025390625 c 4
 315.8828125 -163.760742188 327.619140625 -154.259765625 336.5625 -142.522460938 c 4
 345.50390625 -130.786132812 349.974609375 -116.814453125 349.974609375 -100.606445312 c 4
 349.974609375 -90.546875 348.01953125 -81.8837890625 344.107421875 -74.6181640625 c 4
 340.194335938 -67.3515625 333.34765625 -60.78515625 323.567382812 -54.9169921875 c 4
 313.786132812 -49.048828125 300.79296875 -43.7392578125 284.584960938 -38.9892578125 c 4
 268.376953125 -34.23828125 247.977539062 -29.3486328125 223.387695312 -24.318359375 c 4
218.358398438 187.779296875 m 4
 234.006835938 187.779296875 247.139648438 191.694335938 257.758789062 199.518554688 c 4
 268.377929688 207.342773438 276.760742188 217.262695312 282.909179688 229.278320312 c 4
 289.056640625 241.293945312 293.387695312 254.567382812 295.90234375 269.098632812 c 4
 298.41796875 283.629882812 299.67578125 297.6015625 299.67578125 311.014648438 c 4
 299.67578125 322.192382812 298.697265625 334.626953125 296.741210938 348.319335938 c 4
 294.78515625 362.01171875 291.012695312 374.866210938 285.424804688 386.8828125 c 4
 279.834960938 398.8984375 272.010742188 408.958007812 261.951171875 417.0625 c 4
 251.890625 425.166992188 238.756835938 429.217773438 222.549804688 429.217773438 c 4
 205.783203125 429.217773438 192.090820312 424.885742188 181.470703125 416.223632812 c 4
 170.852539062 407.561523438 162.608398438 396.663085938 156.740234375 383.529296875 c 4
 150.872070312 370.39453125 146.8203125 356.561523438 144.584960938 342.03125 c 4
 142.348632812 327.500976562 141.231445312 314.3671875 141.231445312 302.629882812 c 4
 141.231445312 291.453125 142.208984375 279.15625 144.165039062 265.744140625 c 4
 146.12109375 252.330078125 150.034179688 239.895507812 155.90234375 228.4375 c 4
 161.76953125 216.98046875 169.594726562 207.33984375 179.375 199.515625 c 4
 189.15625 191.690429688 202.150390625 187.779296875 218.358398438 187.779296875 c 4
EndSplineSet
Fore
SplineSet
218 196 m 3
 280 196 300 250 300 311 c 3
 300 369 281 420 222 420 c 3
 159 420 142 364 142 303 c 3
 142 246 160 196 218 196 c 3
142 16 m 1
 109 3 79 -22 79 -62 c 3
 79 -122 145 -126 208 -126 c 3
 275 -126 350 -111 350 -64 c 3
 350 -28 317 -23 284 -14 c 0
 245 -4 183 5 142 16 c 1
386 309 m 3
 386 266 363 234 338 211 c 0
 309 185 269 161 218 161 c 3
 194 161 130 136 130 105 c 3
 130 36 415 60 415 -36 c 3
 415 -134 292 -170 189 -170 c 0
 107 -170 10 -149 10 -71 c 0
 10 -28 55 6 96 36 c 1
 59 52 58 63 58 89 c 3
 58 129 125 187 128 188 c 1
 79 213 55 258 55 309 c 0
 55 379 100 421 153 441 c 0
 173 448 194 453 217 453 c 0
 242 453 264 448 284 441 c 1
 301 437 314 437 324 437 c 3
 344 437 368 447 401 469 c 1
 423 427 l 1
 386 419 376 402 376 381 c 3
 376 360 386 334 386 309 c 3
EndSplineSet
Validated: 1
EndChar

StartChar: j
Encoding: 106 106 17
Width: 238
VWidth: 838
Flags: HMW
LayerCount: 2
Back
SplineSet
88.64453125 378.086914062 m 5
 26.60546875 400.721679688 l 5
 26.60546875 412.45703125 l 5
 160.737304688 452.698242188 l 5
 168.282226562 452.698242188 l 5
 168.282226562 129.940429688 l 6
 168.282226562 88.5830078125 168.00390625 55.0498046875 167.444335938 29.33984375 c 4
 166.885742188 3.6318359375 165.627929688 -17.7451171875 163.671875 -34.791015625 c 4
 161.715820312 -51.837890625 158.921875 -65.8095703125 155.290039062 -76.7080078125 c 4
 151.65625 -87.6064453125 146.766601562 -98.64453125 140.619140625 -109.822265625 c 4
 121.05859375 -145.032226562 97.4453125 -171.858398438 69.7802734375 -190.301757812 c 4
 42.115234375 -208.745117188 11.5166015625 -217.966796875 -22.017578125 -217.966796875 c 4
 -50.51953125 -217.966796875 -73.0146484375 -211.819335938 -89.5029296875 -199.5234375 c 4
 -105.990234375 -187.227539062 -114.233398438 -170.461914062 -114.233398438 -149.223632812 c 4
 -114.233398438 -133.57421875 -110.181640625 -121.279296875 -102.077148438 -112.3359375 c 4
 -93.9736328125 -103.39453125 -82.9345703125 -98.9228515625 -68.962890625 -98.9228515625 c 4
 -57.2255859375 -98.9228515625 -47.7255859375 -102.13671875 -40.458984375 -108.563476562 c 4
 -33.193359375 -114.991210938 -27.3251953125 -124.6328125 -22.8544921875 -137.486328125 c 4
 -16.7060546875 -153.693359375 -10.837890625 -164.591796875 -5.2490234375 -170.180664062 c 4
 0.33984375 -175.770507812 8.443359375 -178.564453125 19.0634765625 -178.564453125 c 4
 65.4501953125 -178.564453125 88.64453125 -132.456054688 88.64453125 -40.2392578125 c 6
 88.64453125 378.086914062 l 5
74.3896484375 600.243164062 m 4
 74.3896484375 615.893554688 79.279296875 628.747070312 89.060546875 638.807617188 c 4
 98.8408203125 648.8671875 111.8359375 653.897460938 128.04296875 653.897460938 c 4
 144.25 653.897460938 157.383789062 648.8671875 167.444335938 638.807617188 c 4
 177.50390625 628.747070312 182.534179688 615.893554688 182.534179688 600.243164062 c 4
 182.534179688 584.036132812 177.50390625 570.90234375 167.444335938 560.842773438 c 4
 157.383789062 550.782226562 144.25 545.751953125 128.04296875 545.751953125 c 4
 111.8359375 545.751953125 98.8408203125 550.782226562 89.060546875 560.842773438 c 4
 79.279296875 570.90234375 74.3896484375 584.036132812 74.3896484375 600.243164062 c 4
EndSplineSet
Fore
SplineSet
169 453 m 1
 169 180 l 2
 169 -62 151 -167 -22 -167 c 0
 -73 -167 -115 -146 -115 -99 c 0
 -115 -69 -98 -49 -69 -49 c 0
 -13 -49 -42 -118 19 -118 c 3
 76 -118 90 -7 90 116 c 2
 90 378 l 2
 27 401 l 1
 27 412 l 1
 105 428 127 437 159 453 c 1
 169 453 l 1
128 546 m 3
 95 546 74 569 74 601 c 3
 74 633 96 654 128 654 c 3
 160 654 183 633 183 601 c 3
 183 569 160 546 128 546 c 3
EndSplineSet
Validated: 1
EndChar

StartChar: a
Encoding: 97 97 18
Width: 441
VWidth: 838
Flags: HMW
LayerCount: 2
Back
SplineSet
136.291015625 -8.3837890625 m 0
 106.111328125 -8.3837890625 81.7978515625 1.11328125 63.3544921875 20.1162109375 c 0
 44.9111328125 39.1181640625 35.689453125 63.708984375 35.689453125 93.888671875 c 0
 35.689453125 112.33203125 39.7412109375 128.6796875 47.845703125 142.931640625 c 0
 55.94921875 157.182617188 69.083984375 170.176757812 87.248046875 181.9140625 c 0
 105.411132812 193.650390625 129.1640625 204.408203125 158.505859375 214.188476562 c 0
 187.846679688 223.970703125 223.4765625 233.331054688 265.392578125 242.274414062 c 1
 265.392578125 324.430664062 l 2
 265.392578125 359.640625 260.362304688 384.510742188 250.302734375 399.04296875 c 0
 240.243164062 413.573242188 222.916992188 420.838867188 198.326171875 420.838867188 c 0
 174.293945312 420.838867188 155.291992188 415.110351562 141.319335938 403.65234375 c 0
 127.346679688 392.1953125 120.360351562 376.686523438 120.360351562 357.125 c 0
 120.360351562 352.655273438 120.640625 347.764648438 121.19921875 342.455078125 c 0
 121.7578125 337.146484375 122.037109375 332.256835938 122.037109375 327.786132812 c 0
 122.037109375 313.254882812 117.985351562 301.518554688 109.881835938 292.575195312 c 0
 101.77734375 283.633789062 91.2978515625 279.162109375 78.4443359375 279.162109375 c 0
 67.2666015625 279.162109375 58.044921875 282.794921875 50.7802734375 290.060546875 c 0
 43.513671875 297.327148438 39.8818359375 307.107421875 39.8818359375 319.403320312 c 0
 39.8818359375 337.846679688 48.125 356.848632812 64.611328125 376.41015625 c 0
 81.099609375 395.970703125 103.036132812 412.737304688 130.421875 426.708984375 c 0
 163.955078125 444.036132812 199.444335938 452.698242188 236.889648438 452.698242188 c 0
 260.921875 452.698242188 281.321289062 448.92578125 298.087890625 441.379882812 c 0
 314.854492188 433.834960938 326.87109375 422.797851562 334.135742188 408.265625 c 0
 336.372070312 403.236328125 338.188476562 398.06640625 339.5859375 392.7578125 c 0
 340.983398438 387.447265625 342.100585938 380.7421875 342.939453125 372.63671875 c 0
 343.77734375 364.532226562 344.336914062 354.473632812 344.616210938 342.458007812 c 0
 344.89453125 330.44140625 345.03515625 315.771484375 345.03515625 298.444335938 c 2
 345.03515625 106.466796875 l 2
 345.03515625 78.5224609375 347.130859375 59.7998046875 351.323242188 50.2998046875 c 0
 355.514648438 40.798828125 363.7578125 36.0478515625 376.052734375 36.0478515625 c 0
 383.877929688 36.0478515625 390.86328125 37.865234375 397.010742188 41.4970703125 c 0
 403.158203125 45.1298828125 409.865234375 51.41796875 417.130859375 60.359375 c 1
 431.3828125 47.7841796875 l 1
 418.528320312 27.6650390625 405.254882812 13.2734375 391.5625 4.611328125 c 0
 377.870117188 -4.0517578125 362.08203125 -8.3837890625 344.197265625 -8.3837890625 c 0
 300.044921875 -8.3837890625 275.174804688 16.7666015625 269.584960938 67.06640625 c 1
 267.0703125 68.7431640625 l 1
 250.86328125 44.7109375 231.162109375 25.8486328125 207.967773438 12.15625 c 0
 184.774414062 -1.5361328125 160.881835938 -8.3837890625 136.291015625 -8.3837890625 c 0
173.17578125 41.07421875 m 0
 191.060546875 41.07421875 208.107421875 45.9619140625 224.314453125 55.7431640625 c 0
 240.522460938 65.5234375 254.21484375 79.3564453125 265.391601562 97.240234375 c 1
 265.391601562 217.959960938 l 1
 235.771484375 211.8125 211.041015625 205.665039062 191.19921875 199.518554688 c 0
 171.359375 193.370117188 155.430664062 186.104492188 143.415039062 177.721679688 c 0
 131.399414062 169.337890625 122.875976562 159.836914062 117.846679688 149.217773438 c 0
 112.81640625 138.598632812 110.301757812 126.0234375 110.301757812 111.493164062 c 0
 110.301757812 88.5791015625 115.750976562 71.1142578125 126.6484375 59.0986328125 c 0
 137.546875 47.0830078125 153.055664062 41.07421875 173.17578125 41.07421875 c 0
EndSplineSet
Fore
SplineSet
267 47 m 1
 240 8 195 -8 136 -8 c 3
 76 -8 35 34 35 94 c 3
 35 138 57 162 87 182 c 0
 134 212 197 226 266 242 c 1
 266 328 l 2
 266 385 254 406 205 406 c 3
 126 406 122 370 122 328 c 3
 122 300 106 279 79 279 c 0
 55 279 40 295 40 319 c 0
 40 338 47 356 64 376 c 0
 98 416 167 453 237 453 c 3
 320 453 345 415 345 331 c 2
 345 106 l 2
 345 66 345 36 376 36 c 3
 397 36 407 46 418 60 c 1
 431 48 l 1
 410 15 389 -8 344 -8 c 3
 300 -8 273 21 270 44 c 1
 267 47 l 1
111 112 m 3
 111 69 131 41 173 41 c 3
 215 41 247 86 266 115 c 1
 266 196 l 1
 207 185 111 170 111 112 c 3
EndSplineSet
Validated: 1
EndChar

StartChar: A
Encoding: 65 65 19
Width: 651
VWidth: 838
Flags: HMW
LayerCount: 2
Back
SplineSet
406.590820312 237.247070312 m 5
 203.715820312 237.24609375 l 5
 158.446289062 110.658203125 l 6
 152.297851562 93.33203125 149.223632812 80.1982421875 149.223632812 71.255859375 c 4
 149.223632812 56.166015625 156.489257812 44.84765625 171.01953125 37.302734375 c 4
 185.55078125 29.7578125 207.068359375 23.75 235.571289062 19.279296875 c 5
 235.571289062 -0.001953125 l 5
 0.0009765625 -0.001953125 l 5
 0.0009765625 19.279296875 l 5
 22.3564453125 22.6328125 40.240234375 26.544921875 53.654296875 31.015625 c 4
 67.0673828125 35.4873046875 77.9658203125 41.35546875 86.349609375 48.6201171875 c 4
 94.732421875 55.88671875 101.438476562 64.689453125 106.46875 75.0283203125 c 4
 111.499023438 85.3671875 116.528320312 97.8017578125 121.55859375 112.333007812 c 6
 284.194335938 567.546875 l 5
 262.3984375 617.0078125 l 5
 344.555664062 662.27734375 l 5
 565.874023438 70.4169921875 l 6
 569.227539062 60.916015625 572.859375 53.0908203125 576.772460938 46.9443359375 c 4
 580.684570312 40.796875 585.71484375 35.7666015625 591.862304688 31.853515625 c 4
 598.009765625 27.94140625 605.833984375 25.1474609375 615.334960938 23.4716796875 c 4
 624.834960938 21.794921875 636.850585938 20.396484375 651.3828125 19.279296875 c 5
 651.3828125 -0.001953125 l 5
 384.79296875 -0.001953125 l 5
 384.79296875 19.279296875 l 5
 403.794921875 19.837890625 419.025390625 20.81640625 430.482421875 22.21484375 c 4
 441.940429688 23.611328125 450.7421875 25.4287109375 456.890625 27.6650390625 c 4
 463.038085938 29.8994140625 466.950195312 32.5546875 468.626953125 35.62890625 c 4
 470.302734375 38.703125 471.141601562 42.4755859375 471.141601562 46.9462890625 c 4
 471.141601562 50.859375 470.583007812 55.4697265625 469.465820312 60.779296875 c 4
 468.34765625 66.087890625 465.83203125 73.7734375 461.920898438 83.8330078125 c 6
 406.590820312 237.247070312 l 5
302.637695312 514.733398438 m 5
 215.452148438 270.779296875 l 5
 394.016601562 270.779296875 l 5
 305.991210938 514.733398438 l 5
 302.637695312 514.733398438 l 5
EndSplineSet
Fore
SplineSet
406 238 m 1
 224 238 l 1
 179 111 l 2
 173 93 170 80 170 71 c 3
 170 41 203 25 236 20 c 1
 236 0 l 1
 0 0 l 1
 0 20 l 1
 52 27 87 36 106 74 c 0
 111 84 117 99 122 113 c 2
 316 657 l 1
 344 663 l 1
 565 70 l 2
 579 31 596 23 651 20 c 1
 651 0 l 1
 385 0 l 1
 385 20 l 1
 415 21 437 22 457 28 c 0
 467 31 471 36 471 47 c 0
 471 63 468 68 462 84 c 2
 406 238 l 1
313 486 m 1
 243 292 l 1
 387 292 l 1
 316 486 l 1
 313 486 l 1
EndSplineSet
Validated: 1
EndChar

StartChar: B
Encoding: 66 66 20
Width: 560
VWidth: 838
Flags: HMW
LayerCount: 2
Back
SplineSet
278.611328125 645.514648438 m 6
 317.174804688 645.514648438 349.171875 642.71875 374.600585938 637.129882812 c 4
 400.030273438 631.540039062 421.407226562 622.877929688 438.733398438 611.141601562 c 4
 458.293945312 597.168945312 473.663085938 579.564453125 484.83984375 558.326171875 c 4
 496.017578125 537.088867188 501.607421875 513.895507812 501.607421875 488.745117188 c 4
 501.607421875 451.858398438 489.729492188 421.120117188 465.977539062 396.529296875 c 4
 442.225585938 371.938476562 407.994140625 354.892578125 363.283203125 345.390625 c 5
 363.283203125 342.0390625 l 5
 388.43359375 339.244140625 411.208007812 333.096679688 431.607421875 323.595703125 c 4
 452.005859375 314.094726562 469.611328125 301.798828125 484.421875 286.708984375 c 4
 499.233398438 271.619140625 510.549804688 254.29296875 518.375 234.732421875 c 4
 526.198242188 215.171875 530.110351562 193.934570312 530.110351562 171.01953125 c 4
 530.110351562 145.311523438 525.220703125 121.279296875 515.440429688 98.9228515625 c 4
 505.659179688 76.5673828125 491.826171875 58.1240234375 473.942382812 43.5927734375 c 4
 454.381835938 27.9443359375 430.768554688 16.7666015625 403.104492188 10.060546875 c 4
 375.438476562 3.353515625 338.692382812 0 292.86328125 0 c 6
 30.4658203125 0 l 5
 30.4658203125 19.2822265625 l 5
 101.723632812 35.208984375 l 5
 101.723632812 610.3046875 l 5
 30.4658203125 626.233398438 l 5
 30.4658203125 645.514648438 l 5
 278.611328125 645.514648438 l 6
189.749023438 359.641601562 m 5
 241.724609375 359.64453125 l 6
 257.931640625 359.64453125 271.344726562 359.78515625 281.963867188 360.063476562 c 4
 292.583007812 360.34375 302.643554688 361.041015625 312.14453125 362.158203125 c 4
 342.8828125 365.51171875 366.49609375 378.227539062 382.984375 400.303710938 c 4
 399.470703125 422.37890625 407.713867188 452.69921875 407.713867188 491.26171875 c 4
 407.713867188 510.822265625 405.33984375 527.44921875 400.588867188 541.141601562 c 4
 395.837890625 554.833984375 387.874023438 567.26953125 376.696289062 578.447265625 c 4
 364.400390625 591.30078125 349.869140625 600.103515625 333.103515625 604.853515625 c 4
 316.336914062 609.604492188 292.583984375 611.979492188 261.845703125 611.979492188 c 6
 189.749023438 611.979492188 l 5
 189.749023438 359.641601562 l 5
189.748046875 326.111328125 m 5
 189.748046875 82.15625 l 6
 189.748046875 62.595703125 194.916992188 49.3232421875 205.256835938 42.3359375 c 4
 215.596679688 35.3505859375 235.017578125 31.857421875 263.521484375 31.857421875 c 4
 321.64453125 31.857421875 364.399414062 43.59375 391.786132812 67.0673828125 c 4
 419.170898438 90.541015625 432.86328125 127.706054688 432.86328125 178.565429688 c 4
 432.86328125 229.423828125 419.03125 266.729492188 391.3671875 290.482421875 c 4
 363.701171875 314.234375 320.248046875 326.111328125 261.005859375 326.111328125 c 6
 189.748046875 326.111328125 l 5
EndSplineSet
Fore
SplineSet
501 489 m 3
 501 404 439 361 363 345 c 1
 363 342 l 1
 438 334 493 295 518 235 c 0
 525 215 530 194 530 171 c 3
 530 81 476 28 403 10 c 0
 375 4 340 0 293 0 c 2
 30 0 l 1
 30 20 l 1
 101 35 l 1
 101 610 l 1
 30 626 l 1
 30 645 l 1
 278 645 l 2
 382 645 450 625 485 558 c 0
 496 537 501 514 501 489 c 3
190 373 m 1
 242 373 l 2
 351 373 407 378 407 491 c 3
 407 573 346 596 262 596 c 2
 190 596 l 1
 190 373 l 1
433 179 m 3
 433 288 373 315 261 315 c 2
 190 315 l 1
 190 109 l 2
 190 65 214 58 264 58 c 3
 375 58 433 71 433 179 c 3
EndSplineSet
Validated: 1
EndChar

StartChar: C
Encoding: 67 67 21
Width: 612
VWidth: 838
Flags: HMW
LayerCount: 2
Back
SplineSet
495.682617188 488.747070312 m 7
 495.682617188 404.076171875 433.645507812 361.3203125 357.357421875 345.391601562 c 5
 357.357421875 342.0390625 l 5
 432.807617188 333.65625 488.137695312 294.25390625 512.44921875 234.732421875 c 4
 519.994140625 215.451171875 524.186523438 193.654296875 524.186523438 171.01953125 c 7
 524.186523438 81.318359375 471.37109375 27.6650390625 397.59765625 10.060546875 c 4
 369.932617188 3.353515625 333.046875 0 286.9375 0 c 6
 24.541015625 0 l 5
 24.541015625 19.2822265625 l 5
 95.7978515625 35.208984375 l 5
 95.7978515625 610.3046875 l 5
 24.541015625 626.233398438 l 5
 24.541015625 645.514648438 l 5
 272.686523438 645.514648438 l 6
 377.477539062 645.514648438 443.706054688 625.39453125 478.915039062 558.328125 c 4
 489.814453125 537.369140625 495.682617188 513.896484375 495.682617188 488.747070312 c 7
183.823242188 373.056640625 m 5
 235.799804688 373.056640625 l 6
 344.783203125 373.056640625 401.790039062 378.92578125 401.790039062 491.26171875 c 7
 401.790039062 573.440429688 339.938476562 596.053710938 255.919921875 596.053710938 c 6
 183.823242188 596.053710938 l 5
 183.823242188 373.056640625 l 5
426.939453125 178.564453125 m 7
 426.939453125 286.708984375 366.579101562 315.211914062 255.08203125 315.211914062 c 6
 183.823242188 315.211914062 l 5
 183.823242188 108.14453125 l 6
 183.823242188 63.712890625 208.135742188 57.8447265625 257.596679688 57.8447265625 c 7
 368.255859375 57.8447265625 426.939453125 71.2578125 426.939453125 178.564453125 c 7
EndSplineSet
Fore
SplineSet
30 318 m 7
 30 511 145 654 337 654 c 7
 409 654 471 632 518 603 c 5
 521 603 l 5
 562 645 l 5
 577 645 l 5
 577 453 l 5
 552 453 l 5
 521 546 469 605 351 605 c 7
 195 605 136 491 136 325 c 7
 136 159 196 45 351 45 c 7
 474 45 534 113 554 219 c 5
 577 219 l 5
 577 0 l 5
 557 0 l 5
 518 38 l 5
 465 0 416 -8 334 -8 c 7
 144 -8 30 127 30 318 c 7
EndSplineSet
Validated: 1
EndChar

StartChar: D
Encoding: 68 68 22
Width: 650
VWidth: 838
Flags: HMW
LayerCount: 2
Back
SplineSet
501.607421875 488.747070312 m 7
 501.607421875 404.076171875 439.571289062 361.3203125 363.283203125 345.391601562 c 5
 363.283203125 342.0390625 l 5
 438.733398438 333.65625 494.0625 294.25390625 518.375 234.732421875 c 4
 525.919921875 215.451171875 530.110351562 193.654296875 530.110351562 171.01953125 c 7
 530.110351562 81.318359375 477.295898438 27.6650390625 403.522460938 10.060546875 c 4
 375.858398438 3.353515625 338.971679688 0 292.86328125 0 c 6
 30.4658203125 0 l 5
 30.4658203125 19.2822265625 l 5
 101.723632812 35.208984375 l 5
 101.723632812 610.3046875 l 5
 30.4658203125 626.233398438 l 5
 30.4658203125 645.514648438 l 5
 278.611328125 645.514648438 l 6
 383.403320312 645.514648438 449.631835938 625.39453125 484.840820312 558.328125 c 4
 495.739257812 537.369140625 501.607421875 513.896484375 501.607421875 488.747070312 c 7
189.749023438 373.056640625 m 5
 241.724609375 373.056640625 l 6
 350.708007812 373.056640625 407.713867188 378.92578125 407.713867188 491.26171875 c 7
 407.713867188 573.440429688 345.86328125 596.053710938 261.845703125 596.053710938 c 6
 189.749023438 596.053710938 l 5
 189.749023438 373.056640625 l 5
432.864257812 178.564453125 m 7
 432.864257812 286.708984375 372.504882812 315.211914062 261.006835938 315.211914062 c 6
 189.749023438 315.211914062 l 5
 189.749023438 108.14453125 l 6
 189.749023438 63.712890625 214.060546875 57.8447265625 263.522460938 57.8447265625 c 7
 374.181640625 57.8447265625 432.864257812 71.2578125 432.864257812 178.564453125 c 7
EndSplineSet
Fore
SplineSet
30 0 m 1
 30 20 l 1
 101 35 l 1
 101 610 l 1
 30 626 l 1
 30 645 l 1
 239 645 l 2
 477 645 620 553 620 321 c 3
 620 125 511 0 311 0 c 2
 30 0 l 1
190 109 m 2
 190 62 223 58 277 58 c 0
 452 58 516 158 516 331 c 3
 516 512 440 596 256 596 c 2
 190 596 l 1
 190 109 l 2
EndSplineSet
Validated: 1
EndChar

StartChar: E
Encoding: 69 69 23
Width: 554
VWidth: 838
Flags: HMW
LayerCount: 2
Back
SplineSet
501.607421875 488.747070312 m 7
 501.607421875 404.076171875 439.571289062 361.3203125 363.283203125 345.391601562 c 5
 363.283203125 342.0390625 l 5
 438.733398438 333.65625 494.0625 294.25390625 518.375 234.732421875 c 4
 525.919921875 215.451171875 530.110351562 193.654296875 530.110351562 171.01953125 c 7
 530.110351562 81.318359375 477.295898438 27.6650390625 403.522460938 10.060546875 c 4
 375.858398438 3.353515625 338.971679688 0 292.86328125 0 c 6
 30.4658203125 0 l 5
 30.4658203125 19.2822265625 l 5
 101.723632812 35.208984375 l 5
 101.723632812 610.3046875 l 5
 30.4658203125 626.233398438 l 5
 30.4658203125 645.514648438 l 5
 278.611328125 645.514648438 l 6
 383.403320312 645.514648438 449.631835938 625.39453125 484.840820312 558.328125 c 4
 495.739257812 537.369140625 501.607421875 513.896484375 501.607421875 488.747070312 c 7
189.749023438 373.056640625 m 5
 241.724609375 373.056640625 l 6
 350.708007812 373.056640625 407.713867188 378.92578125 407.713867188 491.26171875 c 7
 407.713867188 573.41796875 345.677734375 596.053710938 261.845703125 596.053710938 c 6
 189.749023438 596.053710938 l 5
 189.749023438 373.056640625 l 5
432.864257812 178.564453125 m 7
 432.864257812 286.708984375 372.504882812 315.211914062 261.006835938 315.211914062 c 6
 189.749023438 315.211914062 l 5
 189.749023438 108.14453125 l 6
 189.749023438 63.712890625 214.060546875 57.8447265625 263.522460938 57.8447265625 c 7
 374.181640625 57.8447265625 432.864257812 71.2578125 432.864257812 178.564453125 c 7
EndSplineSet
Fore
SplineSet
491 461 m 5
 477 513 456 552 430 596 c 5
 190 596 l 5
 190 373 l 5
 340 373 l 5
 354 404 365 421 371 458 c 5
 391 458 l 5
 391 223 l 5
 371 223 l 5
 366 257 356 282 340 315 c 5
 190 315 l 5
 190 59 l 5
 426 59 l 5
 458 111 475 136 496 196 c 5
 524 196 l 5
 493 0 l 5
 30 0 l 5
 30 20 l 5
 101 35 l 5
 101 610 l 5
 30 626 l 5
 30 645 l 5
 496 645 l 5
 511 461 l 5
 491 461 l 5
EndSplineSet
Validated: 1
EndChar

StartChar: H
Encoding: 72 72 24
Width: 703
VWidth: 838
Flags: HMW
LayerCount: 2
Back
SplineSet
504.9609375 488.747070312 m 3
 504.9609375 404.076171875 442.924804688 361.3203125 366.63671875 345.391601562 c 1
 366.63671875 342.0390625 l 1
 442.0859375 333.65625 497.416015625 294.25390625 521.727539062 234.732421875 c 0
 529.2734375 215.451171875 533.463867188 193.654296875 533.463867188 171.01953125 c 3
 533.463867188 81.318359375 480.649414062 27.6650390625 406.875976562 10.060546875 c 0
 379.211914062 3.353515625 342.32421875 0 296.216796875 0 c 2
 33.818359375 0 l 1
 33.818359375 19.2822265625 l 1
 105.077148438 35.208984375 l 1
 105.077148438 610.3046875 l 1
 33.818359375 626.233398438 l 1
 33.818359375 645.514648438 l 1
 281.96484375 645.514648438 l 2
 386.756835938 645.514648438 452.984375 625.39453125 488.194335938 558.328125 c 0
 499.092773438 537.369140625 504.9609375 513.896484375 504.9609375 488.747070312 c 3
193.102539062 373.056640625 m 1
 245.078125 373.056640625 l 2
 354.061523438 373.056640625 411.067382812 378.92578125 411.067382812 491.26171875 c 3
 411.067382812 573.440429688 349.216796875 596.053710938 265.198242188 596.053710938 c 2
 193.102539062 596.053710938 l 1
 193.102539062 373.056640625 l 1
436.217773438 178.564453125 m 3
 436.217773438 286.708984375 375.858398438 315.211914062 264.360351562 315.211914062 c 2
 193.102539062 315.211914062 l 1
 193.102539062 108.14453125 l 2
 193.102539062 63.712890625 217.413085938 57.8447265625 266.875 57.8447265625 c 3
 377.53515625 57.8447265625 436.217773438 71.2578125 436.217773438 178.564453125 c 3
EndSplineSet
Fore
SplineSet
511 315 m 5
 194 315 l 5
 194 35 l 5
 269 20 l 5
 269 0 l 5
 30 0 l 5
 30 20 l 5
 105 35 l 5
 105 610 l 5
 30 626 l 5
 30 645 l 5
 269 645 l 5
 269 626 l 5
 194 610 l 5
 194 373 l 5
 511 373 l 5
 511 610 l 5
 435 626 l 5
 435 645 l 5
 673 645 l 5
 673 624 l 5
 599 610 l 5
 599 35 l 5
 673 18 l 5
 673 0 l 5
 435 0 l 5
 435 20 l 5
 511 35 l 5
 511 315 l 5
EndSplineSet
Validated: 1
EndChar

StartChar: I
Encoding: 73 73 25
Width: 299
VWidth: 838
Flags: HMW
LayerCount: 2
Fore
SplineSet
105 610 m 1
 30 626 l 1
 30 645 l 1
 269 645 l 1
 269 626 l 1
 194 610 l 1
 194 35 l 1
 269 20 l 1
 269 0 l 1
 30 0 l 1
 30 20 l 1
 105 35 l 1
 105 610 l 1
EndSplineSet
Validated: 1
EndChar

StartChar: J
Encoding: 74 74 26
Width: 418
VWidth: 838
Flags: HMW
LayerCount: 2
Back
SplineSet
313.087890625 129.94140625 m 2
 313.087890625 88.583984375 312.80859375 55.05078125 312.249023438 29.341796875 c 0
 311.689453125 3.6318359375 310.29296875 -17.744140625 308.056640625 -34.7900390625 c 0
 305.8203125 -51.8359375 302.885742188 -65.80859375 299.25390625 -76.70703125 c 0
 295.62109375 -87.60546875 290.731445312 -98.6435546875 284.584960938 -109.821289062 c 0
 265.022460938 -145.03125 239.733398438 -171.857421875 208.715820312 -190.30078125 c 0
 177.696289062 -208.745117188 144.862304688 -217.966796875 110.2109375 -217.966796875 c 0
 78.9130859375 -217.966796875 54.322265625 -211.538085938 36.4384765625 -198.684570312 c 0
 18.5546875 -185.830078125 9.6123046875 -167.946289062 9.6123046875 -145.032226562 c 0
 9.6123046875 -128.265625 14.0830078125 -114.9921875 23.0263671875 -105.2109375 c 0
 31.9677734375 -95.4306640625 43.9833984375 -90.541015625 59.07421875 -90.541015625 c 0
 70.810546875 -90.541015625 80.3115234375 -93.75390625 87.5771484375 -100.180664062 c 0
 94.8427734375 -106.608398438 100.7109375 -116.25 105.181640625 -129.103515625 c 0
 111.330078125 -145.311523438 118.594726562 -156.907226562 126.978515625 -163.893554688 c 0
 135.362304688 -170.879882812 145.142578125 -174.373046875 156.3203125 -174.373046875 c 0
 175.881835938 -174.373046875 192.228515625 -163.334960938 205.36328125 -141.258789062 c 0
 218.49609375 -119.18359375 225.0625 -85.509765625 225.0625 -40.2392578125 c 2
 225.0625 610.3046875 l 1
 149.614257812 626.233398438 l 1
 149.614257812 645.514648438 l 1
 387.69921875 645.514648438 l 1
 387.69921875 626.233398438 l 1
 313.087890625 610.3046875 l 1
 313.087890625 129.94140625 l 2
EndSplineSet
Fore
SplineSet
225 610 m 1
 150 626 l 1
 150 645 l 1
 388 645 l 1
 388 626 l 1
 313 610 l 1
 313 357 l 2
 312 113 268 0 115 0 c 3
 44 0 10 29 10 76 c 3
 10 106 31 127 60 127 c 0
 116 127 94 55 155 55 c 7
 212 55 225 172 225 295 c 2
 225 610 l 1
EndSplineSet
Validated: 1
EndChar

StartChar: O
Encoding: 79 79 27
Width: 659
VWidth: 838
Flags: HMW
LayerCount: 2
Back
SplineSet
478.77734375 488.747070312 m 7
 478.77734375 404.076171875 416.741210938 361.3203125 340.453125 345.391601562 c 5
 340.453125 342.0390625 l 5
 415.90234375 333.65625 471.232421875 294.25390625 495.544921875 234.732421875 c 4
 503.088867188 215.451171875 507.280273438 193.654296875 507.280273438 171.01953125 c 7
 507.280273438 81.318359375 454.465820312 27.6650390625 380.692382812 10.060546875 c 4
 353.028320312 3.353515625 316.140625 0 270.033203125 0 c 6
 7.634765625 0 l 5
 7.634765625 19.2822265625 l 5
 78.8935546875 35.208984375 l 5
 78.8935546875 610.3046875 l 5
 7.634765625 626.233398438 l 5
 7.634765625 645.514648438 l 5
 255.78125 645.514648438 l 6
 360.573242188 645.514648438 426.80078125 625.39453125 462.010742188 558.328125 c 4
 472.909179688 537.369140625 478.77734375 513.896484375 478.77734375 488.747070312 c 7
166.918945312 373.056640625 m 5
 218.89453125 373.056640625 l 6
 327.877929688 373.056640625 384.883789062 378.92578125 384.883789062 491.26171875 c 7
 384.883789062 573.440429688 323.032226562 596.053710938 239.015625 596.053710938 c 6
 166.918945312 596.053710938 l 5
 166.918945312 373.056640625 l 5
410.034179688 178.564453125 m 7
 410.034179688 286.708984375 349.674804688 315.211914062 238.176757812 315.211914062 c 6
 166.918945312 315.211914062 l 5
 166.918945312 108.14453125 l 6
 166.918945312 63.712890625 191.229492188 57.8447265625 240.69140625 57.8447265625 c 7
 351.3515625 57.8447265625 410.034179688 71.2578125 410.034179688 178.564453125 c 7
EndSplineSet
Fore
SplineSet
330 654 m 3
 516 654 634 510 634 323 c 3
 634 136 516 -8 330 -8 c 3
 144 -8 25 136 25 323 c 3
 25 510 144 654 330 654 c 3
131 324 m 3
 131 171 181 44 330 44 c 3
 479 44 528 173 528 326 c 3
 528 479 479 596 330 596 c 3
 180 596 131 477 131 324 c 3
EndSplineSet
Validated: 1
EndChar

StartChar: r
Encoding: 114 114 28
Width: 339
VWidth: 838
Flags: HMW
LayerCount: 2
Back
SplineSet
248.31640625 16.7666015625 m 1
 248.317382812 -0.001953125 l 1
 21.1298828125 -0.001953125 l 1
 21.1298828125 16.765625 l 1
 84.8427734375 29.33984375 l 1
 84.8427734375 378.0859375 l 1
 22.806640625 401.559570312 l 1
 22.806640625 412.45703125 l 1
 152.748046875 453.53515625 l 1
 161.130859375 453.53515625 l 1
 161.130859375 361.318359375 l 1
 180.692382812 390.939453125 200.252929688 413.713867188 219.813476562 429.642578125 c 0
 239.374023438 445.571289062 258.096679688 453.53515625 275.98046875 453.53515625 c 0
 290.51171875 453.53515625 302.946289062 448.365234375 313.28515625 438.026367188 c 0
 323.624023438 427.6875 328.794921875 415.251953125 328.794921875 400.721679688 c 0
 328.794921875 387.30859375 324.18359375 375.990234375 314.961914062 366.768554688 c 0
 305.740234375 357.546875 294.143554688 352.936523438 280.171875 352.936523438 c 0
 266.758789062 352.936523438 256.138671875 358.24609375 248.314453125 368.864257812 c 0
 243.28515625 375.01171875 238.954101562 379.203125 235.3203125 381.439453125 c 0
 231.688476562 383.67578125 227.356445312 384.79296875 222.326171875 384.79296875 c 0
 210.03125 384.79296875 198.853515625 377.807617188 188.79296875 363.834960938 c 0
 179.29296875 350.98046875 173.145507812 342.318359375 170.350585938 337.84765625 c 0
 167.556640625 333.375976562 165.6015625 328.625976562 164.483398438 323.595703125 c 2
 164.483398438 29.341796875 l 1
 248.31640625 16.7666015625 l 1
EndSplineSet
Fore
SplineSet
329 401 m 3
 329 374 308 352 280 352 c 3
 267 352 256 358 249 369 c 0
 242 378 235 385 222 385 c 0
 197 385 168 343 165 324 c 1
 165 29 l 1
 249 17 l 1
 249 0 l 1
 22 0 l 1
 22 17 l 1
 85 29 l 1
 85 378 l 1
 20 401 l 1
 20 412 l 1
 98 428 121 438 153 454 c 1
 161 454 l 1
 161 406 l 1
 161 406 225 454 276 454 c 3
 305 454 329 430 329 401 c 3
EndSplineSet
Validated: 1
EndChar

StartChar: k
Encoding: 107 107 29
Width: 514
VWidth: 838
Flags: HMW
LayerCount: 2
Back
SplineSet
256.3671875 444.315429688 m 5
 444.154296875 444.317382812 l 5
 444.154296875 427.549804688 l 5
 427.387695312 424.196289062 413.5546875 421.262695312 402.657226562 418.747070312 c 4
 391.758789062 416.232421875 382.677734375 413.297851562 375.411132812 409.946289062 c 4
 368.145507812 406.592773438 361.717773438 402.540039062 356.12890625 397.790039062 c 4
 350.540039062 393.0390625 344.671875 387.03125 338.524414062 379.764648438 c 6
 243.791992188 269.10546875 l 5
 443.315429688 29.3427734375 l 5
 513.735351562 16.767578125 l 5
 513.735351562 0.0009765625 l 5
 367.02734375 0.0009765625 l 5
 193.493164062 211.260742188 l 5
 160.797851562 172.696289062 l 5
 160.797851562 29.3427734375 l 5
 223.671875 16.767578125 l 5
 223.671875 0.0009765625 l 5
 19.958984375 0.0009765625 l 5
 19.958984375 16.767578125 l 5
 83.671875 29.3427734375 l 5
 83.671875 621.204101562 l 5
 22.4736328125 643.838867188 l 5
 22.4736328125 654.737304688 l 5
 152.415039062 695.815429688 l 5
 160.797851562 695.815429688 l 5
 160.797851562 217.966796875 l 5
 300.798828125 377.25 l 6
 312.536132812 390.663085938 318.404296875 400.723632812 318.404296875 407.4296875 c 4
 318.404296875 412.458984375 314.211914062 416.372070312 305.829101562 419.166015625 c 4
 297.4453125 421.9609375 280.958007812 424.754882812 256.3671875 427.548828125 c 5
 256.3671875 444.315429688 l 5
EndSplineSet
Fore
SplineSet
161 696 m 1
 161 233 l 1
 301 392 l 2
 310 403 310 404 310 409 c 0
 310 423 282 426 256 428 c 1
 256 444 l 1
 445 444 l 1
 445 428 l 1
 398 419 363 394 338 365 c 2
 244 254 l 1
 443 29 l 1
 514 17 l 1
 514 0 l 1
 367 0 l 1
 193 196 l 1
 161 157 l 1
 161 29 l 1
 223 17 l 1
 223 0 l 1
 20 0 l 1
 20 17 l 1
 84 29 l 1
 84 621 l 1
 20 644 l 1
 20 655 l 1
 98 671 120 680 152 696 c 1
 161 696 l 1
EndSplineSet
Validated: 1
EndChar

StartChar: w
Encoding: 119 119 30
Width: 720
VWidth: 838
Flags: HMW
LayerCount: 2
Back
SplineSet
457.28125 -8.3837890625 m 1
 355.83984375 305.154296875 l 1
 245.1796875 -8.3818359375 l 1
 208.293945312 -8.3818359375 l 1
 70.8076171875 391.501953125 l 2
 66.3369140625 404.916015625 60.328125 413.857421875 52.783203125 418.328125 c 0
 45.23828125 422.799804688 31.1259765625 425.873046875 10.447265625 427.549804688 c 1
 10.447265625 444.317382812 l 1
 218.352539062 444.317382812 l 1
 218.352539062 427.549804688 l 1
 205.499023438 426.432617188 195.16015625 425.454101562 187.3359375 424.616210938 c 0
 179.51171875 423.77734375 173.365234375 422.799804688 168.893554688 421.681640625 c 0
 164.422851562 420.564453125 161.48828125 419.028320312 160.090820312 417.071289062 c 0
 158.693359375 415.116210938 157.995117188 412.461914062 157.995117188 409.108398438 c 0
 157.995117188 406.313476562 158.833007812 402.541015625 160.509765625 397.791015625 c 0
 162.186523438 393.0390625 163.86328125 387.870117188 165.540039062 382.280273438 c 2
 249.373046875 103.954101562 l 1
 252.7265625 103.954101562 l 1
 339.913085938 354.615234375 l 1
 328.176757812 391.501953125 l 2
 323.706054688 404.356445312 317.697265625 413.159179688 310.15234375 417.909179688 c 0
 302.607421875 422.66015625 291.2890625 425.873046875 276.200195312 427.549804688 c 1
 276.200195312 444.317382812 l 1
 467.33984375 444.317382812 l 1
 467.33984375 427.549804688 l 1
 454.484375 426.432617188 444.145507812 425.454101562 436.322265625 424.616210938 c 0
 428.498046875 423.77734375 422.350585938 422.799804688 417.87890625 421.681640625 c 0
 413.408203125 420.564453125 410.474609375 419.028320312 409.077148438 417.071289062 c 0
 407.6796875 415.116210938 406.981445312 412.461914062 406.981445312 409.108398438 c 0
 406.981445312 406.313476562 407.8203125 402.541015625 409.497070312 397.791015625 c 0
 411.171875 393.0390625 412.848632812 387.870117188 414.525390625 382.280273438 c 2
 498.359375 103.954101562 l 1
 501.712890625 103.954101562 l 1
 592.252929688 363.836914062 l 2
 597.282226562 377.25 599.796875 388.1484375 599.796875 396.532226562 c 0
 599.796875 405.474609375 595.606445312 412.041015625 587.22265625 416.232421875 c 0
 578.838867188 420.423828125 563.189453125 424.196289062 540.275390625 427.549804688 c 1
 540.275390625 444.317382812 l 1
 710.45703125 444.317382812 l 1
 710.45703125 427.549804688 l 1
 694.807617188 424.755859375 682.233398438 421.822265625 672.731445312 418.747070312 c 0
 663.231445312 415.673828125 655.546875 411.760742188 649.677734375 407.010742188 c 0
 643.809570312 402.259765625 639.05859375 396.250976562 635.426757812 388.985351562 c 0
 631.793945312 381.719726562 628.30078125 373.056640625 624.947265625 362.997070312 c 2
 494.166992188 -8.3837890625 l 1
 457.28125 -8.3837890625 l 1
EndSplineSet
Fore
SplineSet
591 401 m 0
 591 423 570 424 541 428 c 1
 541 444 l 1
 710 444 l 1
 710 428 l 1
 674 422 649 416 636 389 c 0
 633 382 628 373 625 363 c 2
 494 -8 l 1
 457 -8 l 1
 356 305 l 1
 245 -8 l 1
 209 -8 l 1
 71 392 l 2
 61 421 48 425 10 428 c 1
 10 444 l 1
 218 444 l 1
 218 428 l 1
 198 426 184 425 168 422 c 0
 161 420 158 417 158 409 c 0
 158 401 163 390 165 382 c 2
 244 121 l 1
 248 121 l 1
 335 371 l 1
 328 392 l 2
 320 418 307 425 276 428 c 1
 276 444 l 1
 467 444 l 1
 467 428 l 1
 447 426 434 425 418 422 c 0
 411 420 407 417 407 409 c 0
 407 401 413 390 415 382 c 2
 493 122 l 1
 496 122 l 1
 587 381 l 2
 589 387 591 395 591 401 c 0
EndSplineSet
Validated: 1
EndChar

StartChar: F
Encoding: 70 70 31
Width: 536
VWidth: 838
Flags: HMW
LayerCount: 2
Back
SplineSet
490.708984375 461.08203125 m 5
 476.45703125 513.05859375 456.337890625 551.62109375 430.349609375 596.053710938 c 5
 189.749023438 596.053710938 l 5
 189.749023438 373.056640625 l 5
 339.810546875 373.056640625 l 5
 354.061523438 404.076171875 364.959960938 420.841796875 370.828125 457.728515625 c 5
 390.948242188 457.728515625 l 5
 390.948242188 222.995117188 l 5
 370.828125 222.995117188 l 5
 365.797851562 257.3671875 355.73828125 282.516601562 339.810546875 315.211914062 c 5
 189.749023438 315.211914062 l 5
 189.749023438 58.6826171875 l 5
 426.158203125 58.6826171875 l 5
 458.014648438 110.659179688 475.619140625 136.6484375 496.578125 196.169921875 c 5
 524.243164062 196.169921875 l 5
 493.224609375 0 l 5
 30.4658203125 0 l 5
 30.4658203125 19.2822265625 l 5
 101.723632812 35.208984375 l 5
 101.723632812 610.3046875 l 5
 30.4658203125 626.233398438 l 5
 30.4658203125 645.514648438 l 5
 496.578125 645.514648438 l 5
 510.829101562 461.08203125 l 5
 490.708984375 461.08203125 l 5
EndSplineSet
Fore
SplineSet
491 461 m 1
 477 513 456 552 430 596 c 1
 190 596 l 1
 190 373 l 1
 340 373 l 1
 354 404 365 421 371 458 c 1
 391 458 l 1
 391 223 l 1
 371 223 l 1
 366 257 356 282 340 315 c 1
 190 315 l 1
 190 35 l 1
 285 20 l 1
 285 0 l 1
 30 0 l 1
 30 20 l 1
 101 35 l 1
 101 610 l 1
 30 626 l 1
 30 645 l 1
 496 645 l 1
 511 461 l 1
 491 461 l 1
EndSplineSet
Validated: 1
EndChar

StartChar: G
Encoding: 71 71 32
Width: 668
VWidth: 838
Flags: HMW
LayerCount: 2
Back
SplineSet
31.248046875 318.565429688 m 3
 31.248046875 512.220703125 146.098632812 653.8984375 338.077148438 653.8984375 c 3
 410.171875 653.8984375 472.209960938 632.1015625 518.317382812 602.759765625 c 1
 521.670898438 602.759765625 l 1
 562.749023438 645.514648438 l 1
 577.838867188 645.514648438 l 1
 577.838867188 452.69921875 l 1
 552.688476562 452.69921875 l 1
 521.670898438 545.752929688 470.533203125 604.436523438 352.327148438 604.436523438 c 3
 196.3984375 604.436523438 136.876953125 490.422851562 136.876953125 324.434570312 c 3
 136.876953125 158.444335938 197.237304688 45.26953125 352.327148438 45.26953125 c 3
 475.5625 45.26953125 535.084960938 113.174804688 555.204101562 219.643554688 c 1
 577.838867188 219.643554688 l 1
 577.838867188 0 l 1
 557.71875 0 l 1
 519.15625 55.330078125 l 1
 466.341796875 16.7666015625 416.87890625 -8.3837890625 334.723632812 -8.3837890625 c 3
 144.421875 -8.3837890625 31.248046875 127.426757812 31.248046875 318.565429688 c 3
EndSplineSet
Fore
SplineSet
359 606 m 0
 197 606 138 490 138 315 c 0
 138 125 210 45 351 45 c 0
 422 45 477 70 477 142 c 2
 476 288 l 1
 400 304 l 1
 400 324 l 1
 638 324 l 1
 638 304 l 1
 563 288 l 1
 563 68 l 1
 525 32 464 9 400 -2 c 0
 378 -6 357 -8 335 -8 c 0
 239 -8 165 30 116 82 c 0
 65 136 30 215 30 315 c 0
 30 508 153 654 345 654 c 0
 412 654 470 635 506 603 c 1
 509 603 l 1
 554 645 l 1
 573 645 l 1
 573 453 l 1
 553 453 l 1
 516 539 478 606 359 606 c 0
EndSplineSet
Validated: 1
EndChar

StartChar: L
Encoding: 76 76 33
Width: 554
VWidth: 838
Flags: HMW
LayerCount: 2
Back
SplineSet
501.607421875 488.747070312 m 7
 501.607421875 404.076171875 439.571289062 361.3203125 363.283203125 345.391601562 c 5
 363.283203125 342.0390625 l 5
 438.733398438 333.65625 494.0625 294.25390625 518.375 234.732421875 c 4
 525.919921875 215.451171875 530.110351562 193.654296875 530.110351562 171.01953125 c 7
 530.110351562 81.318359375 477.295898438 27.6650390625 403.522460938 10.060546875 c 4
 375.858398438 3.353515625 338.971679688 0 292.86328125 0 c 6
 30.4658203125 0 l 5
 30.4658203125 19.2822265625 l 5
 101.723632812 35.208984375 l 5
 101.723632812 610.3046875 l 5
 30.4658203125 626.233398438 l 5
 30.4658203125 645.514648438 l 5
 278.611328125 645.514648438 l 6
 383.403320312 645.514648438 449.631835938 625.39453125 484.840820312 558.328125 c 4
 495.739257812 537.369140625 501.607421875 513.896484375 501.607421875 488.747070312 c 7
189.749023438 373.056640625 m 5
 241.724609375 373.056640625 l 6
 350.708007812 373.056640625 407.713867188 378.92578125 407.713867188 491.26171875 c 7
 407.713867188 573.41796875 345.677734375 596.053710938 261.845703125 596.053710938 c 6
 189.749023438 596.053710938 l 5
 189.749023438 373.056640625 l 5
432.864257812 178.564453125 m 7
 432.864257812 286.708984375 372.504882812 315.211914062 261.006835938 315.211914062 c 6
 189.749023438 315.211914062 l 5
 189.749023438 108.14453125 l 6
 189.749023438 63.712890625 214.060546875 57.8447265625 263.522460938 57.8447265625 c 7
 374.181640625 57.8447265625 432.864257812 71.2578125 432.864257812 178.564453125 c 7
EndSplineSet
Fore
SplineSet
190 610 m 1
 190 59 l 1
 432 59 l 1
 464 112 481 141 502 201 c 1
 524 201 l 1
 493 0 l 1
 30 0 l 1
 30 20 l 1
 101 35 l 1
 101 610 l 1
 30 626 l 1
 30 645 l 1
 270 645 l 1
 270 626 l 1
 190 610 l 1
EndSplineSet
Validated: 1
EndChar

StartChar: p
Encoding: 112 112 34
Width: 509
VWidth: 838
Flags: HMW
LayerCount: 2
Back
SplineSet
163.3125 -181.079101562 m 5
 246.30859375 -193.65234375 l 5
 246.30859375 -209.581054688 l 5
 20.7978515625 -209.581054688 l 5
 20.7978515625 -193.65234375 l 5
 83.6728515625 -181.077148438 l 5
 83.6728515625 378.08984375 l 5
 22.474609375 400.724609375 l 5
 22.474609375 412.461914062 l 5
 151.577148438 452.701171875 l 5
 160.797851562 452.701171875 l 5
 160.797851562 378.927734375 l 5
 164.151367188 378.927734375 l 5
 180.91796875 404.63671875 201.59765625 423.359375 226.188476562 435.095703125 c 4
 250.779296875 446.833007812 275.650390625 452.701171875 300.799804688 452.701171875 c 4
 327.067382812 452.701171875 351.099609375 447.111328125 372.896484375 435.934570312 c 4
 394.693359375 424.756835938 413.276367188 409.248046875 428.645507812 389.407226562 c 4
 444.014648438 369.56640625 456.030273438 345.953125 464.693359375 318.567382812 c 4
 473.35546875 291.181640625 477.686523438 261.28125 477.686523438 228.864257812 c 4
 477.686523438 193.655273438 472.09765625 161.51953125 460.920898438 132.45703125 c 4
 449.7421875 103.39453125 433.814453125 78.384765625 413.134765625 57.4267578125 c 4
 392.456054688 36.4677734375 367.865234375 20.2607421875 339.362304688 8.8037109375 c 4
 310.859375 -2.654296875 279.282226562 -8.3828125 244.630859375 -8.3828125 c 4
 231.217773438 -8.3828125 217.8046875 -7.404296875 204.391601562 -5.4482421875 c 4
 190.977539062 -3.4931640625 177.28515625 -0.279296875 163.3125 4.19140625 c 5
 163.3125 -181.079101562 l 5
247.985351562 16.76953125 m 4
 269.22265625 16.76953125 288.647460938 21.658203125 306.250976562 31.439453125 c 4
 323.856445312 41.2197265625 338.946289062 54.7734375 351.520507812 72.0986328125 c 4
 364.095703125 89.4248046875 373.737304688 110.2421875 380.443359375 134.5546875 c 4
 387.150390625 158.866210938 390.50390625 185.833007812 390.50390625 215.454101562 c 4
 390.50390625 272.459960938 378.766601562 317.169921875 355.29296875 349.586914062 c 4
 331.8203125 382.001953125 299.684570312 398.209960938 258.885742188 398.209960938 c 4
 241.560546875 398.209960938 223.814453125 393.598632812 205.651367188 384.376953125 c 4
 187.486328125 375.155273438 174.772460938 363.55859375 167.505859375 349.586914062 c 5
 167.505859375 98.9248046875 l 6
 167.505859375 74.3349609375 175.19140625 54.494140625 190.560546875 39.4033203125 c 4
 205.9296875 24.314453125 225.071289062 16.76953125 247.985351562 16.76953125 c 4
EndSplineSet
Fore
SplineSet
161 453 m 1
 161 407 l 1
 165 407 l 1
 165 407 206 453 302 453 c 3
 361 453 403 425 430 390 c 0
 459 352 479 295 479 228 c 3
 479 115 422 42 340 9 c 0
 311 -2 279 -8 245 -8 c 3
 214 -8 189 -4 164 4 c 1
 164 -181 l 1
 247 -193 l 1
 247 -210 l 1
 22 -210 l 1
 22 -193 l 1
 85 -181 l 1
 85 378 l 1
 20 401 l 1
 20 412 l 1
 98 428 120 437 152 453 c 1
 161 453 l 1
161 119 m 2
 161 71 202 37 249 37 c 3
 297 37 331 66 353 96 c 0
 378 130 392 155 392 215 c 3
 392 314 351 406 259 406 c 3
 222 406 174 377 161 352 c 1
 161 119 l 2
EndSplineSet
Validated: 1
EndChar

StartChar: q
Encoding: 113 113 35
Width: 506
VWidth: 838
Flags: HMW
LayerCount: 2
Back
SplineSet
348.388671875 -181.079101562 m 1
 348.389648438 48.6220703125 l 1
 313.178710938 10.6181640625 270.703125 -8.3837890625 220.962890625 -8.3837890625 c 0
 193.577148438 -8.3837890625 168.567382812 -3.2138671875 145.932617188 7.125 c 0
 123.297851562 17.4638671875 103.737304688 31.9951171875 87.2490234375 50.716796875 c 0
 70.76171875 69.439453125 58.046875 91.794921875 49.1044921875 117.784179688 c 0
 40.162109375 143.772460938 35.69140625 172.415039062 35.69140625 203.712890625 c 0
 35.69140625 242.275390625 41 276.926757812 51.6201171875 307.666015625 c 0
 62.23828125 338.404296875 77.1884765625 364.532226562 96.470703125 386.05078125 c 0
 115.751953125 407.567382812 139.0859375 424.055664062 166.470703125 435.512695312 c 0
 193.856445312 446.970703125 224.037109375 452.69921875 257.009765625 452.69921875 c 0
 300.044921875 452.69921875 338.607421875 439.844726562 372.700195312 414.134765625 c 1
 376.891601562 414.134765625 l 1
 414.6171875 442.638671875 l 1
 428.030273438 442.638671875 l 1
 428.030273438 -181.079101562 l 1
 490.905273438 -193.654296875 l 1
 490.905273438 -209.583007812 l 1
 265.393554688 -209.583007812 l 1
 265.393554688 -193.654296875 l 1
 348.388671875 -181.079101562 l 1
257.010742188 425.87109375 m 0
 217.888671875 425.87109375 186.169921875 409.3828125 161.859375 376.409179688 c 0
 137.546875 343.434570312 125.391601562 293.694335938 125.391601562 227.186523438 c 0
 125.391601562 167.9453125 136.989257812 121.416992188 160.182617188 87.60546875 c 0
 183.375976562 53.79296875 215.373046875 36.8857421875 256.171875 36.8857421875 c 0
 275.174804688 36.8857421875 292.5 40.7978515625 308.149414062 48.6220703125 c 0
 323.798828125 56.4462890625 337.211914062 67.0654296875 348.389648438 80.4794921875 c 1
 348.389648438 320.241210938 l 2
 348.389648438 352.09765625 340.146484375 377.666992188 323.658203125 396.94921875 c 0
 307.170898438 416.23046875 284.955078125 425.87109375 257.010742188 425.87109375 c 0
EndSplineSet
Fore
SplineSet
348 -181 m 1
 348 20 l 1
 348 20 317 -8 221 -8 c 3
 129 -8 74 49 49 118 c 0
 40 144 35 173 35 204 c 3
 35 321 84 402 166 436 c 0
 194 447 224 453 257 453 c 3
 299 453 339 441 373 415 c 1
 377 415 l 1
 415 442 l 1
 428 442 l 1
 428 -181 l 1
 491 -193 l 1
 491 -210 l 1
 266 -210 l 1
 266 -193 l 1
 348 -181 l 1
348 317 m 2
 348 377 316 406 257 406 c 3
 166 406 125 330 125 227 c 3
 125 126 163 37 256 37 c 3
 298 37 328 56 348 81 c 1
 348 317 l 2
EndSplineSet
Validated: 1
EndChar

StartChar: m
Encoding: 109 109 36
Width: 758
VWidth: 838
Flags: HMW
LayerCount: 2
Back
SplineSet
234.766601562 16.7666015625 m 1
 234.763671875 0.0009765625 l 1
 28.5341796875 0.0009765625 l 1
 28.5341796875 16.767578125 l 1
 92.2470703125 29.3427734375 l 1
 92.2470703125 377.25 l 1
 30.2099609375 400.723632812 l 1
 30.2099609375 411.62109375 l 1
 160.151367188 452.69921875 l 1
 168.53515625 452.69921875 l 1
 168.53515625 381.44140625 l 1
 192.567382812 404.35546875 218.13671875 421.9609375 245.241210938 434.255859375 c 0
 272.34765625 446.552734375 299.314453125 452.69921875 326.140625 452.69921875 c 0
 336.760742188 452.69921875 347.37890625 451.163085938 357.999023438 448.088867188 c 0
 368.6171875 445.014648438 378.258789062 440.403320312 386.920898438 434.255859375 c 0
 395.583007812 428.108398438 402.98828125 420.563476562 409.135742188 411.62109375 c 0
 415.283203125 402.678710938 419.474609375 392.33984375 421.7109375 380.602539062 c 1
 445.743164062 404.076171875 471.452148438 421.9609375 498.837890625 434.255859375 c 0
 526.223632812 446.552734375 553.330078125 452.69921875 580.15625 452.69921875 c 0
 600.276367188 452.69921875 618.16015625 448.228515625 633.80859375 439.286132812 c 0
 649.458984375 430.342773438 661.1953125 418.047851562 669.01953125 402.399414062 c 0
 671.254882812 397.927734375 673.071289062 393.038085938 674.469726562 387.728515625 c 0
 675.866210938 382.419921875 676.984375 375.293945312 677.823242188 366.3515625 c 0
 678.661132812 357.409179688 679.219726562 346.370117188 679.499023438 333.236328125 c 0
 679.778320312 320.102539062 679.918945312 303.475585938 679.918945312 283.35546875 c 2
 679.918945312 28.50390625 l 1
 742.79296875 16.7666015625 l 1
 742.79296875 0 l 1
 537.40234375 0 l 1
 537.40234375 16.7666015625 l 1
 600.27734375 28.50390625 l 1
 600.27734375 274.97265625 l 2
 600.27734375 299.004882812 599.297851562 318.146484375 597.342773438 332.3984375 c 0
 595.38671875 346.649414062 593.01171875 358.526367188 590.217773438 368.02734375 c 0
 581.833984375 393.736328125 562.83203125 406.590820312 533.2109375 406.590820312 c 0
 512.532226562 406.590820312 492.831054688 401.979492188 474.109375 392.7578125 c 0
 455.38671875 383.536132812 438.759765625 370.263671875 424.229492188 352.936523438 c 1
 424.788085938 344.5546875 425.20703125 334.7734375 425.486328125 323.595703125 c 0
 425.765625 312.418945312 425.90625 299.004882812 425.90625 283.35546875 c 2
 425.90625 28.50390625 l 1
 488.78125 16.7666015625 l 1
 488.78125 0 l 1
 283.389648438 0 l 1
 283.389648438 16.7666015625 l 1
 346.264648438 28.50390625 l 1
 346.264648438 274.97265625 l 2
 346.264648438 299.004882812 345.28515625 318.146484375 343.330078125 332.3984375 c 0
 341.375 346.649414062 338.999023438 358.526367188 336.205078125 368.02734375 c 0
 327.262695312 393.736328125 308.259765625 406.590820312 279.198242188 406.590820312 c 0
 259.077148438 406.590820312 239.796875 402.119140625 221.352539062 393.177734375 c 0
 202.909179688 384.234375 186.422851562 371.380859375 171.891601562 354.61328125 c 1
 171.891601562 29.341796875 l 1
 234.766601562 16.7666015625 l 1
EndSplineSet
Fore
SplineSet
25 401 m 1
 25 412 l 1
 103 428 129 440 161 456 c 1
 169 456 l 1
 169 406 l 1
 207 443 260 453 326 453 c 3
 353 453 391 451 416 406 c 1
 454 443 513 453 580 453 c 3
 675 453 680 379 680 283 c 2
 680 29 l 1
 743 17 l 1
 743 0 l 1
 538 0 l 1
 538 17 l 1
 601 29 l 1
 601 275 l 2
 601 343 597 406 533 406 c 3
 484 406 449 381 424 352 c 1
 426 330 426 310 426 283 c 2
 426 29 l 1
 489 17 l 1
 489 0 l 1
 283 0 l 1
 283 17 l 1
 346 29 l 1
 346 275 l 2
 346 343 343 406 279 406 c 3
 231 406 194 381 169 352 c 1
 169 29 l 1
 235 17 l 1
 235 0 l 1
 29 0 l 1
 29 17 l 1
 92 29 l 1
 92 377 l 1
 25 401 l 1
EndSplineSet
Validated: 1
EndChar

StartChar: n
Encoding: 110 110 37
Width: 511
VWidth: 838
Flags: HMW
LayerCount: 2
Back
SplineSet
160.993164062 695.814453125 m 5
 171.053710938 695.814453125 l 5
 171.053710938 404.076171875 l 5
 212.969726562 440.961914062 269.137695312 452.69921875 338.71875 452.69921875 c 4
 389.857421875 452.69921875 430.935546875 428.38671875 441.833984375 388.147460938 c 4
 446.86328125 369.704101562 446.86328125 348.745117188 446.86328125 326.110351562 c 6
 446.86328125 326.110351562 446.86328125 127.426757812 446.86328125 28.50390625 c 5
 509.73828125 16.7666015625 l 5
 509.73828125 0 l 5
 304.34765625 0 l 5
 304.34765625 16.7666015625 l 5
 367.22265625 28.50390625 l 5
 367.22265625 274.97265625 l 6
 367.22265625 349.583007812 363.03125 406.590820312 291.772460938 406.590820312 c 4
 244.826171875 406.590820312 204.5859375 388.147460938 171.053710938 352.098632812 c 5
 171.053710938 29.341796875 l 5
 233.927734375 16.7666015625 l 5
 233.927734375 0 l 5
 27.6982421875 0 l 5
 27.6982421875 16.7666015625 l 5
 91.412109375 29.341796875 l 5
 91.412109375 621.203125 l 5
 28.537109375 643.837890625 l 5
 28.537109375 655.575195312 l 5
 106.501953125 670.6640625 129.135742188 679.885742188 160.993164062 695.814453125 c 5
EndSplineSet
Fore
SplineSet
25 401 m 1
 25 412 l 1
 103 428 129 440 161 456 c 1
 171 456 l 1
 171 406 l 1
 209 443 260 453 326 453 c 3
 432 453 433 368 433 293 c 2
 433 29 l 1
 496 17 l 1
 496 0 l 1
 291 0 l 1
 291 17 l 1
 354 29 l 1
 354 275 l 2
 354 349 349 406 278 406 c 3
 230 406 196 381 171 352 c 1
 171 29 l 1
 234 17 l 1
 234 0 l 1
 28 0 l 1
 28 17 l 1
 91 29 l 1
 91 377 l 1
 25 401 l 1
EndSplineSet
Validated: 1
EndChar

StartChar: K
Encoding: 75 75 38
Width: 655
VWidth: 838
Flags: HMW
LayerCount: 2
Back
SplineSet
510.829101562 315.211914062 m 1
 193.940429688 315.211914062 l 1
 193.940429688 35.208984375 l 1
 268.551757812 19.2822265625 l 1
 268.551757812 0 l 1
 30.4658203125 0 l 1
 30.4658203125 19.2822265625 l 1
 105.915039062 35.208984375 l 1
 105.915039062 610.3046875 l 1
 30.4658203125 626.233398438 l 1
 30.4658203125 645.514648438 l 1
 268.551757812 645.514648438 l 1
 268.551757812 626.233398438 l 1
 193.940429688 610.3046875 l 1
 193.940429688 373.056640625 l 1
 510.829101562 373.056640625 l 1
 510.829101562 610.3046875 l 1
 435.379882812 626.233398438 l 1
 435.379882812 645.514648438 l 1
 673.46484375 645.514648438 l 1
 673.46484375 624.556640625 l 1
 598.853515625 610.3046875 l 1
 598.853515625 35.208984375 l 1
 673.46484375 17.60546875 l 1
 673.46484375 0 l 1
 435.379882812 0 l 1
 435.379882812 19.2822265625 l 1
 510.829101562 35.208984375 l 1
 510.829101562 315.211914062 l 1
EndSplineSet
Fore
SplineSet
374 626 m 1
 374 645 l 1
 595 645 l 1
 595 626 l 1
 538 616 503 610 473 575 c 2
 307 385 l 1
 576 35 l 1
 655 20 l 5
 655 0 l 5
 487 0 l 1
 248 317 l 1
 194 255 l 1
 194 35 l 1
 269 20 l 1
 269 0 l 1
 30 0 l 1
 30 20 l 1
 105 35 l 1
 105 610 l 1
 30 626 l 1
 30 645 l 1
 269 645 l 1
 269 626 l 1
 194 610 l 1
 194 344 l 1
 409 585 l 2
 417 593 428 605 428 613 c 3
 428 621 419 626 390 626 c 3
 382 626 374 626 374 626 c 1
EndSplineSet
Validated: 1
EndChar

StartChar: M
Encoding: 77 77 39
Width: 833
VWidth: 838
Flags: HMW
LayerCount: 2
Back
SplineSet
105.915039062 610.3046875 m 5
 30.4658203125 626.233398438 l 5
 30.4658203125 645.514648438 l 5
 206.515625 645.514648438 l 5
 415.259765625 148.384765625 l 5
 419.451171875 148.384765625 l 5
 628.1953125 645.514648438 l 5
 803.40625 645.514648438 l 5
 803.40625 626.233398438 l 5
 728.794921875 610.3046875 l 5
 728.794921875 35.208984375 l 5
 803.40625 19.2822265625 l 5
 803.40625 0 l 5
 565.321289062 0 l 5
 565.321289062 19.2822265625 l 5
 640.770507812 35.208984375 l 5
 640.770507812 549.944335938 l 5
 637.416992188 549.944335938 l 5
 399.33203125 -8.3837890625 l 5
 376.696289062 -8.3837890625 l 5
 142.802734375 553.297851562 l 5
 139.44921875 553.297851562 l 5
 139.44921875 35.208984375 l 5
 214.060546875 19.2822265625 l 5
 214.060546875 0 l 5
 30.4658203125 0 l 5
 30.4658203125 19.2822265625 l 5
 105.915039062 35.208984375 l 5
 105.915039062 610.3046875 l 5
EndSplineSet
Fore
SplineSet
415 188 m 1
 607 645 l 1
 803 645 l 1
 803 626 l 1
 729 610 l 1
 729 35 l 1
 803 20 l 1
 803 0 l 1
 565 0 l 1
 565 20 l 1
 641 35 l 1
 641 550 l 1
 638 550 l 1
 399 -8 l 1
 376 -8 l 1
 143 553 l 1
 140 553 l 1
 140 35 l 1
 214 20 l 1
 214 0 l 1
 30 0 l 1
 30 20 l 1
 85 31 l 1
 85 614 l 1
 30 626 l 1
 30 645 l 1
 207 645 l 1
 398 188 l 1
 415 188 l 1
EndSplineSet
Validated: 1
EndChar

StartChar: N
Encoding: 78 78 40
Width: 684
VWidth: 838
Flags: HMW
LayerCount: 2
Back
SplineSet
578.734375 -16.7666015625 m 1
 552.74609375 -16.7666015625 l 1
 139.44921875 559.166015625 l 1
 139.44921875 35.208984375 l 1
 214.060546875 19.2822265625 l 1
 214.060546875 0 l 1
 30.4658203125 0 l 1
 30.4658203125 19.2822265625 l 1
 105.915039062 35.208984375 l 1
 105.915039062 610.3046875 l 1
 30.4658203125 626.233398438 l 1
 30.4658203125 645.514648438 l 1
 199.80859375 645.514648438 l 1
 545.200195312 171.01953125 l 1
 545.200195312 610.3046875 l 1
 470.588867188 626.233398438 l 1
 470.588867188 645.514648438 l 1
 654.184570312 645.514648438 l 1
 654.184570312 626.233398438 l 1
 578.734375 610.3046875 l 1
 578.734375 -16.7666015625 l 1
EndSplineSet
Fore
SplineSet
589 -17 m 5
 553 -17 l 1
 140 559 l 1
 140 35 l 1
 214 20 l 1
 214 0 l 1
 30 0 l 1
 30 20 l 1
 85 31 l 1
 85 614 l 1
 30 626 l 1
 30 645 l 1
 200 645 l 1
 524 201 l 1
 524 614 l 1
 470 626 l 1
 470 645 l 1
 654 645 l 1
 654 626 l 1
 589 610 l 5
 589 -17 l 5
EndSplineSet
Validated: 1
EndChar

StartChar: T
Encoding: 84 84 41
Width: 637
VWidth: 838
Flags: HMW
LayerCount: 2
Back
SplineSet
183.985351562 19.2822265625 m 1
 276.202148438 35.208984375 l 1
 276.202148438 611.981445312 l 1
 107.696289062 611.981445312 l 1
 75.2783203125 568.416992188 49.2216796875 514.548828125 30.5712890625 461.08203125 c 1
 10.451171875 461.08203125 l 1
 41.46875 645.514648438 l 1
 596.444335938 645.514648438 l 1
 627.461914062 461.08203125 l 1
 607.341796875 461.08203125 l 1
 588.71875 514.47265625 562.58984375 568.477539062 530.215820312 611.981445312 c 1
 364.225585938 611.981445312 l 1
 364.225585938 35.208984375 l 1
 455.604492188 19.2822265625 l 1
 455.604492188 0 l 1
 183.985351562 0 l 1
 183.985351562 19.2822265625 l 1
EndSplineSet
Fore
SplineSet
184 20 m 1
 276 35 l 1
 276 588 l 1
 99 588 l 1
 66 545 50 515 31 461 c 1
 10 461 l 1
 41 645 l 1
 596 645 l 1
 627 461 l 1
 608 461 l 1
 589 515 572 545 539 588 c 1
 364 588 l 1
 364 35 l 1
 456 20 l 1
 456 0 l 1
 184 0 l 1
 184 20 l 1
EndSplineSet
Validated: 1
EndChar

StartChar: U
Encoding: 85 85 42
Width: 653
VWidth: 838
Flags: HMW
LayerCount: 2
Back
SplineSet
193.883789062 190.30078125 m 6
 193.883789062 136.6484375 207.993164062 96.408203125 236.217773438 69.58203125 c 4
 264.44140625 42.7548828125 302.306640625 29.3427734375 349.811523438 29.3427734375 c 4
 379.9921875 29.3427734375 406.400390625 33.673828125 429.034179688 42.3359375 c 4
 451.669921875 50.9990234375 469.4140625 63.9931640625 482.268554688 81.3193359375 c 4
 493.4453125 96.408203125 501.549804688 117.3671875 506.580078125 144.194335938 c 4
 511.610351562 171.01953125 514.125 206.7890625 514.125 251.5 c 6
 514.125 610.305664062 l 5
 439.513671875 626.233398438 l 5
 439.513671875 645.515625 l 5
 623.107421875 645.515625 l 5
 623.107421875 626.233398438 l 5
 547.658203125 610.305664062 l 5
 547.658203125 216.291015625 l 6
 547.658203125 181.080078125 545.142578125 151.458984375 540.11328125 127.426757812 c 4
 535.083007812 103.39453125 526.979492188 83.2744140625 515.801757812 67.0673828125 c 4
 499.594726562 43.03515625 475.561523438 24.451171875 443.705078125 11.3173828125 c 4
 411.848632812 -1.8173828125 374.68359375 -8.3837890625 332.20703125 -8.3837890625 c 4
 288.61328125 -8.3837890625 250.05078125 -1.6767578125 216.517578125 11.736328125 c 4
 182.984375 25.150390625 156.995117188 44.15234375 138.552734375 68.7431640625 c 4
 127.375976562 83.2734375 119.131835938 100.599609375 113.822265625 120.719726562 c 4
 108.513671875 140.83984375 105.858398438 168.225585938 105.858398438 202.875976562 c 6
 105.858398438 610.3046875 l 5
 30.4091796875 626.233398438 l 5
 30.4091796875 645.514648438 l 5
 268.495117188 645.514648438 l 5
 268.495117188 626.233398438 l 5
 193.883789062 610.3046875 l 5
 193.883789062 190.30078125 l 6
EndSplineSet
Fore
SplineSet
194 190 m 2
 194 88 249 29 349 29 c 3
 488 29 504 107 504 251 c 2
 503 613 l 1
 439 626 l 1
 439 645 l 1
 623 645 l 1
 623 626 l 1
 558 613 l 1
 558 216 l 2
 558 64 482 -8 332 -8 c 3
 222 -8 137 34 114 121 c 0
 109 141 105 169 105 203 c 2
 105 610 l 1
 30 626 l 1
 30 645 l 1
 269 645 l 1
 269 626 l 1
 194 610 l 1
 194 190 l 2
EndSplineSet
Validated: 1
EndChar

StartChar: V
Encoding: 86 86 43
Width: 653
VWidth: 838
Flags: HMW
LayerCount: 2
Back
SplineSet
314.762695312 -8.3837890625 m 1
 95.9580078125 575.095703125 l 2
 92.60546875 584.596679688 88.97265625 592.419921875 85.060546875 598.567382812 c 0
 81.1484375 604.715820312 76.1181640625 609.74609375 69.970703125 613.658203125 c 0
 63.8232421875 617.5703125 55.998046875 620.364257812 46.498046875 622.041015625 c 0
 36.9970703125 623.717773438 24.9814453125 625.116210938 10.451171875 626.233398438 c 1
 10.451171875 645.514648438 l 1
 282.908203125 645.514648438 l 1
 282.908203125 626.233398438 l 1
 263.905273438 625.116210938 248.67578125 623.998046875 237.217773438 622.880859375 c 0
 225.760742188 621.763671875 216.818359375 620.365234375 210.391601562 618.688476562 c 0
 203.963867188 617.01171875 199.771484375 614.637695312 197.81640625 611.5625 c 0
 195.860351562 608.489257812 194.881835938 604.716796875 194.881835938 600.245117188 c 0
 194.881835938 595.774414062 195.999023438 590.185546875 198.235351562 583.479492188 c 0
 200.470703125 576.772460938 202.985351562 569.505859375 205.780273438 561.682617188 c 2
 347.458007812 153.416015625 l 1
 351.649414062 153.416015625 l 1
 484.10546875 534.856445312 l 2
 486.900390625 542.680664062 488.99609375 549.806640625 490.393554688 556.233398438 c 0
 491.791015625 562.661132812 492.489257812 568.668945312 492.489257812 574.2578125 c 0
 492.489257812 588.7890625 486.201171875 599.965820312 473.625976562 607.790039062 c 0
 461.051757812 615.615234375 438.8359375 621.762695312 406.978515625 626.233398438 c 1
 406.978515625 645.514648438 l 1
 642.55078125 645.514648438 l 1
 642.55078125 626.233398438 l 1
 620.194335938 622.879882812 602.310546875 618.966796875 588.897460938 614.49609375 c 0
 575.484375 610.025390625 564.5859375 604.157226562 556.202148438 596.890625 c 0
 547.818359375 589.625976562 541.112304688 580.963867188 536.08203125 570.903320312 c 0
 531.052734375 560.842773438 526.022460938 548.267578125 520.993164062 533.177734375 c 2
 329.014648438 -8.3837890625 l 1
 314.762695312 -8.3837890625 l 1
EndSplineSet
Fore
SplineSet
315 -8 m 1
 96 575 l 2
 87 601 76 617 47 622 c 0
 38 624 24 625 10 626 c 1
 10 645 l 1
 283 645 l 1
 283 626 l 1
 254 624 231 625 210 619 c 0
 199 617 195 612 195 601 c 0
 195 589 202 572 206 561 c 2
 333 197 l 1
 337 197 l 1
 469 579 l 2
 471 585 473 591 473 597 c 3
 473 613 461 626 407 626 c 1
 407 645 l 1
 643 645 l 1
 643 626 l 1
 591 619 556 608 536 571 c 0
 531 561 526 549 521 533 c 2
 329 -8 l 1
 315 -8 l 1
EndSplineSet
Validated: 1
EndChar

StartChar: W
Encoding: 87 87 44
Width: 962
VWidth: 838
Flags: HMW
LayerCount: 2
Back
SplineSet
314.764648438 -8.3837890625 m 1
 95.95703125 575.095703125 l 2
 92.603515625 584.596679688 88.970703125 592.419921875 85.0595703125 598.567382812 c 0
 81.146484375 604.715820312 76.1162109375 609.74609375 69.96875 613.658203125 c 0
 63.822265625 617.5703125 55.9970703125 620.364257812 46.49609375 622.041015625 c 0
 36.99609375 623.717773438 24.9794921875 625.116210938 10.44921875 626.233398438 c 1
 10.44921875 645.514648438 l 1
 282.90625 645.514648438 l 1
 282.90625 626.233398438 l 1
 263.345703125 624.556640625 247.696289062 623.01953125 235.959960938 621.622070312 c 0
 224.22265625 620.224609375 215.28125 618.6875 209.133789062 617.01171875 c 0
 202.985351562 615.334960938 199.073242188 613.23828125 197.396484375 610.723632812 c 0
 195.720703125 608.208984375 194.881835938 604.995117188 194.881835938 601.083007812 c 0
 194.881835938 596.612304688 195.580078125 591.862304688 196.977539062 586.83203125 c 0
 198.375976562 581.801757812 201.30859375 573.41796875 205.780273438 561.681640625 c 2
 347.458007812 153.415039062 l 1
 351.649414062 153.415039062 l 1
 453.92578125 482.877929688 l 1
 419.553710938 575.094726562 l 2
 416.201171875 584.595703125 412.568359375 592.419921875 408.655273438 598.56640625 c 0
 404.744140625 604.71484375 399.713867188 609.745117188 393.56640625 613.657226562 c 0
 387.41796875 617.5703125 379.594726562 620.364257812 370.09375 622.040039062 c 0
 360.592773438 623.716796875 348.577148438 625.115234375 334.046875 626.232421875 c 1
 334.046875 645.513671875 l 1
 606.50390625 645.513671875 l 1
 606.50390625 626.232421875 l 1
 586.383789062 625.115234375 570.595703125 623.716796875 559.137695312 622.040039062 c 0
 547.680664062 620.364257812 539.017578125 618.546875 533.150390625 616.590820312 c 0
 527.282226562 614.635742188 523.6484375 612.12109375 522.251953125 609.045898438 c 0
 520.854492188 605.97265625 520.15625 602.478515625 520.15625 598.56640625 c 0
 520.15625 590.7421875 523.229492188 578.447265625 529.377929688 561.6796875 c 2
 671.0546875 153.412109375 l 1
 675.247070312 153.412109375 l 1
 793.451171875 534.852539062 l 2
 798.481445312 550.502929688 800.99609375 563.916015625 800.99609375 575.09375 c 0
 800.99609375 589.624023438 794.98828125 600.662109375 782.97265625 608.20703125 c 0
 770.956054688 615.751953125 748.741210938 621.760742188 716.325195312 626.231445312 c 1
 716.325195312 645.513671875 l 1
 951.896484375 645.513671875 l 1
 951.896484375 626.231445312 l 1
 929.541015625 622.877929688 911.516601562 618.96484375 897.82421875 614.494140625 c 0
 884.131835938 610.024414062 873.092773438 604.295898438 864.708984375 597.309570312 c 0
 856.326171875 590.32421875 849.759765625 581.661132812 845.009765625 571.322265625 c 0
 840.2578125 560.983398438 835.368164062 548.267578125 830.337890625 533.177734375 c 2
 657.642578125 -8.3837890625 l 1
 638.360351562 -8.3837890625 l 1
 474.046875 430.063476562 l 1
 334.046875 -8.3837890625 l 1
 314.764648438 -8.3837890625 l 1
EndSplineSet
Fore
SplineSet
315 -8 m 1
 96 575 l 2
 87 601 76 617 47 622 c 0
 38 624 24 625 10 626 c 1
 10 645 l 1
 283 645 l 1
 283 626 l 1
 253 624 230 623 209 617 c 0
 199 615 195 611 195 601 c 0
 195 585 200 579 206 561 c 2
 333 194 l 1
 337 194 l 1
 444 508 l 1
 420 575 l 2
 411 601 399 617 370 622 c 0
 361 624 348 625 334 626 c 1
 334 645 l 1
 607 645 l 1
 607 626 l 1
 575 624 520 627 520 599 c 3
 520 592 523 578 529 561 c 2
 655 200 l 1
 660 200 l 1
 777 581 l 2
 779 586 780 590 780 593 c 3
 780 618 747 622 716 626 c 1
 716 645 l 1
 952 645 l 1
 952 626 l 1
 901 619 863 610 845 572 c 0
 840 562 835 549 830 533 c 2
 657 -8 l 1
 639 -8 l 1
 479 416 l 1
 334 -8 l 1
 315 -8 l 1
EndSplineSet
Validated: 1
EndChar

StartChar: Y
Encoding: 89 89 45
Width: 635
VWidth: 838
Flags: HMW
LayerCount: 2
Back
SplineSet
193.20703125 19.2822265625 m 1
 268.657226562 35.208984375 l 1
 268.657226562 274.133789062 l 1
 98.4765625 575.09375 l 2
 93.4462890625 584.036132812 88.8359375 591.442382812 84.64453125 597.309570312 c 0
 80.4521484375 603.177734375 75.2822265625 608.068359375 69.134765625 611.98046875 c 0
 62.9873046875 615.893554688 55.3017578125 618.966796875 46.080078125 621.203125 c 0
 36.8583984375 623.439453125 24.982421875 625.116210938 10.451171875 626.233398438 c 1
 10.451171875 645.514648438 l 1
 285.424804688 645.514648438 l 1
 285.424804688 626.233398438 l 1
 266.98046875 625.116210938 252.03125 623.717773438 240.573242188 622.041015625 c 0
 229.116210938 620.364257812 220.172851562 618.268554688 213.74609375 615.75390625 c 0
 207.318359375 613.23828125 202.986328125 610.165039062 200.750976562 606.532226562 c 0
 198.514648438 602.899414062 197.397460938 599.126953125 197.397460938 595.213867188 c 0
 197.397460938 586.272460938 201.030273438 575.094726562 208.295898438 561.681640625 c 2
 346.62109375 314.374023438 l 1
 349.973632812 314.374023438 l 1
 466.501953125 534.854492188 l 2
 473.208007812 548.267578125 476.561523438 560.284179688 476.561523438 570.903320312 c 0
 476.561523438 603.319335938 447.499023438 621.762695312 389.375976562 626.233398438 c 1
 389.375976562 645.514648438 l 1
 625.784179688 645.514648438 l 1
 625.784179688 626.233398438 l 1
 603.428710938 622.879882812 585.963867188 618.6875 573.388671875 613.658203125 c 0
 560.813476562 608.627929688 550.614257812 602.48046875 542.7890625 595.213867188 c 0
 534.965820312 587.94921875 528.399414062 579.287109375 523.08984375 569.2265625 c 0
 517.780273438 559.166015625 511.494140625 547.150390625 504.227539062 533.177734375 c 2
 356.680664062 259.043945312 l 1
 356.680664062 35.208984375 l 1
 431.29296875 19.2822265625 l 1
 431.29296875 0 l 1
 193.20703125 0 l 1
 193.20703125 19.2822265625 l 1
EndSplineSet
Fore
SplineSet
193 20 m 5
 269 35 l 5
 269 274 l 5
 98 575 l 6
 85 599 76 615 47 621 c 4
 38 623 24 625 10 626 c 5
 10 645 l 5
 285 645 l 5
 285 626 l 5
 256 624 233 622 213 615 c 4
 203 611 197 606 197 595 c 4
 197 586 202 574 209 561 c 6
 336 334 l 5
 339 334 l 5
 456 554 l 5
 462 565 465 576 465 585 c 4
 465 608 445 622 390 626 c 5
 390 645 l 5
 625 645 l 5
 625 626 l 5
 549 615 533 589 504 533 c 6
 357 259 l 5
 357 35 l 5
 431 20 l 5
 431 0 l 5
 193 0 l 5
 193 20 l 5
EndSplineSet
Validated: 1
EndChar

StartChar: P
Encoding: 80 80 46
Width: 535
VWidth: 838
Flags: HMW
LayerCount: 2
Back
SplineSet
30.4658203125 645.514648438 m 1
 291.185546875 645.515625 l 2
 324.16015625 645.515625 354.33984375 641.32421875 381.725585938 632.940429688 c 0
 409.111328125 624.556640625 432.724609375 612.26171875 452.565429688 596.0546875 c 0
 472.40625 579.845703125 487.775390625 559.7265625 498.673828125 535.693359375 c 0
 509.572265625 511.661132812 515.021484375 484.276367188 515.021484375 453.537109375 c 0
 515.021484375 425.033203125 509.572265625 399.744140625 498.673828125 377.66796875 c 0
 487.775390625 355.591796875 472.125976562 337.009765625 451.727539062 321.918945312 c 0
 431.328125 306.829101562 406.45703125 295.51171875 377.115234375 287.965820312 c 0
 347.7734375 280.421875 314.938476562 276.649414062 278.611328125 276.649414062 c 2
 189.749023438 276.649414062 l 1
 189.749023438 35.208984375 l 1
 285.318359375 19.2822265625 l 1
 285.318359375 0 l 1
 30.4658203125 0 l 1
 30.4658203125 19.2822265625 l 1
 101.723632812 35.208984375 l 1
 101.723632812 610.3046875 l 1
 30.4658203125 626.233398438 l 1
 30.4658203125 645.514648438 l 1
189.748046875 309.344726562 m 1
 252.624023438 309.34765625 l 2
 287.833007812 309.34765625 315.638671875 313.260742188 336.038085938 321.084960938 c 0
 356.436523438 328.908203125 372.783203125 340.0859375 385.080078125 354.6171875 c 0
 397.93359375 369.1484375 406.736328125 385.775390625 411.486328125 404.497070312 c 0
 416.23828125 423.219726562 418.612304688 442.361328125 418.612304688 461.921875 c 0
 418.612304688 498.249023438 411.90625 528.2890625 398.493164062 552.041015625 c 0
 385.080078125 575.793945312 366.077148438 592.419921875 341.487304688 601.920898438 c 0
 331.985351562 605.833984375 321.505859375 608.489257812 310.048828125 609.885742188 c 0
 298.590820312 611.284179688 284.200195312 611.982421875 266.875 611.982421875 c 2
 189.748046875 611.982421875 l 1
 189.748046875 309.344726562 l 1
EndSplineSet
Fore
SplineSet
30 645 m 1
 292 645 l 2
 394 645 467 605 499 535 c 0
 510 510 515 485 515 454 c 3
 515 359 454 308 376 288 c 0
 347 281 314 277 278 277 c 2
 190 277 l 1
 190 35 l 1
 285 20 l 1
 285 0 l 1
 30 0 l 1
 30 20 l 1
 101 35 l 1
 101 610 l 1
 30 626 l 1
 30 645 l 1
190 333 m 1
 252 333 l 2
 362 333 419 377 419 462 c 3
 419 564 370 596 267 596 c 2
 190 596 l 1
 190 333 l 1
EndSplineSet
Validated: 1
EndChar

StartChar: R
Encoding: 82 82 47
Width: 595
VWidth: 838
Flags: HMW
LayerCount: 2
Back
SplineSet
30.4658203125 645.514648438 m 1
 291.186523438 645.514648438 l 2
 393.462890625 645.514648438 467.235351562 606.112304688 499.092773438 535.692382812 c 0
 509.991210938 511.381835938 515.021484375 484.5546875 515.021484375 453.537109375 c 3
 515.021484375 357.966796875 454.661132812 308.505859375 376.696289062 288.385742188 c 0
 347.354492188 280.840820312 314.66015625 276.649414062 278.611328125 276.649414062 c 2
 189.749023438 276.649414062 l 1
 189.749023438 35.208984375 l 1
 285.318359375 19.2822265625 l 1
 285.318359375 0 l 1
 30.4658203125 0 l 1
 30.4658203125 19.2822265625 l 1
 101.723632812 35.208984375 l 1
 101.723632812 610.3046875 l 1
 30.4658203125 626.233398438 l 1
 30.4658203125 645.514648438 l 1
189.749023438 332.817382812 m 1
 252.624023438 332.817382812 l 2
 362.444335938 332.817382812 418.612304688 377.249023438 418.612304688 461.920898438 c 3
 418.612304688 564.196289062 369.989257812 596.053710938 266.875 596.053710938 c 2
 189.749023438 596.053710938 l 1
 189.749023438 332.817382812 l 1
EndSplineSet
Fore
SplineSet
507 462 m 7
 507 369 456 308 376 288 c 5
 484 35 l 5
 580 20 l 5
 580 0 l 5
 398 0 l 5
 281 277 l 5
 190 277 l 5
 190 35 l 5
 285 20 l 5
 285 0 l 5
 30 0 l 5
 30 20 l 5
 101 35 l 5
 101 610 l 5
 30 626 l 5
 30 645 l 5
 283 645 l 6
 383 645 457 609 490 541 c 4
 501 518 507 491 507 462 c 7
244 333 m 6
 348 333 410 370 410 470 c 7
 410 569 358 596 258 596 c 6
 190 596 l 5
 190 333 l 5
 244 333 l 6
EndSplineSet
Validated: 1
EndChar

StartChar: S
Encoding: 83 83 48
Width: 459
VWidth: 838
Flags: HMW
LayerCount: 2
Back
SplineSet
489.87109375 488.747070312 m 7
 489.87109375 404.076171875 427.833984375 361.3203125 351.545898438 345.391601562 c 5
 351.545898438 342.0390625 l 5
 426.99609375 333.65625 482.326171875 294.25390625 506.637695312 234.732421875 c 4
 514.182617188 215.451171875 518.375 193.654296875 518.375 171.01953125 c 7
 518.375 81.318359375 465.55859375 27.6650390625 391.787109375 10.060546875 c 4
 364.12109375 3.353515625 327.235351562 0 281.125976562 0 c 6
 18.7294921875 0 l 5
 18.7294921875 19.2822265625 l 5
 89.98828125 35.208984375 l 5
 89.98828125 610.3046875 l 5
 18.7294921875 626.233398438 l 5
 18.7294921875 645.514648438 l 5
 266.875 645.514648438 l 6
 371.666015625 645.514648438 437.89453125 625.39453125 473.104492188 558.328125 c 4
 484.002929688 537.369140625 489.87109375 513.896484375 489.87109375 488.747070312 c 7
178.01171875 373.056640625 m 5
 229.98828125 373.056640625 l 6
 338.971679688 373.056640625 395.978515625 378.92578125 395.978515625 491.26171875 c 7
 395.978515625 573.41796875 333.942382812 596.053710938 250.108398438 596.053710938 c 6
 178.01171875 596.053710938 l 5
 178.01171875 373.056640625 l 5
421.127929688 178.564453125 m 7
 421.127929688 286.708984375 360.767578125 315.211914062 249.270507812 315.211914062 c 6
 178.01171875 315.211914062 l 5
 178.01171875 108.14453125 l 6
 178.01171875 63.712890625 202.32421875 57.8447265625 251.78515625 57.8447265625 c 7
 362.444335938 57.8447265625 421.127929688 71.2578125 421.127929688 178.564453125 c 7
EndSplineSet
Fore
SplineSet
227 51 m 4
 298 51 353 86 353 155 c 7
 353 196 331 206 305 228 c 4
 276 253 234 273 197 293 c 4
 140 323 86 353 57 412 c 4
 48 431 43 452 43 477 c 7
 43 562 95 616 157 641 c 4
 180 650 204 654 231 654 c 7
 289 654 325 633 358 602 c 5
 385 645 l 5
 401 645 l 5
 408 461 l 5
 387 461 l 5
 374 515 355 539 330 564 c 4
 305 589 273 602 235 602 c 7
 173 602 132 568 132 507 c 7
 132 463 154 450 179 428 c 4
 208 403 246 386 281 366 c 4
 337 336 389 305 417 247 c 4
 425 228 429 207 429 182 c 7
 429 123 404 77 372 47 c 4
 339 17 290 -7 230 -7 c 4
 173 -7 136 9 96 34 c 5
 62 0 l 5
 46 0 l 5
 30 215 l 5
 52 219 l 5
 69 151 90 125 118 95 c 4
 146 65 180 51 227 51 c 4
EndSplineSet
Validated: 1
EndChar

StartChar: asciitilde
Encoding: 126 126 49
Width: 494
VWidth: 838
Flags: HMW
LayerCount: 2
Fore
SplineSet
149 232 m 3
 112 232 100 215 92 187 c 1
 67 187 l 1
 67 234 88 269 118 289 c 0
 130 296 146 301 166 301 c 3
 235 301 276 257 345 257 c 3
 382 257 394 273 402 301 c 1
 428 301 l 1
 428 253 407 218 376 198 c 0
 364 191 349 187 329 187 c 3
 296 187 267 201 240 210 c 0
 214 219 182 232 149 232 c 3
EndSplineSet
Validated: 1
EndChar

StartChar: bar
Encoding: 124 124 50
Width: 225
VWidth: 838
Flags: HMW
LayerCount: 2
Fore
SplineSet
84 -143 m 5
 84 686 l 5
 143 686 l 5
 143 -143 l 5
 84 -143 l 5
EndSplineSet
Validated: 1
EndChar

StartChar: braceleft
Encoding: 123 123 51
Width: 274
VWidth: 838
Flags: HMW
LayerCount: 2
Fore
SplineSet
156 -55 m 3
 156 -103 167 -131 211 -131 c 3
 222 -131 235 -129 246 -126 c 1
 250 -151 l 1
 230 -158 216 -162 191 -162 c 3
 117 -162 84 -133 84 -59 c 3
 84 17 105 84 105 162 c 3
 105 232 91 269 25 269 c 1
 25 287 l 1
 87 287 105 323 105 388 c 3
 105 442 93 495 87 544 c 0
 85 560 84 576 84 588 c 3
 84 658 126 695 197 695 c 3
 219 695 234 689 250 683 c 1
 246 662 l 1
 230 664 225 666 211 666 c 3
 171 666 156 628 156 586 c 3
 156 557 162 523 166 494 c 0
 170 462 177 423 177 389 c 7
 177 331 157 294 117 278 c 1
 117 275 l 1
 159 258 177 230 177 170 c 3
 177 111 165 49 159 -7 c 0
 157 -27 156 -43 156 -55 c 3
EndSplineSet
Validated: 1
EndChar

StartChar: braceright
Encoding: 125 125 52
Width: 274
VWidth: 838
Flags: HMW
LayerCount: 2
Fore
SplineSet
192 -59 m 7
 192 -133 159 -162 85 -162 c 7
 60 -162 45 -158 25 -151 c 5
 30 -126 l 5
 41 -129 52 -131 64 -131 c 7
 108 -131 120 -103 120 -55 c 7
 120 -23 113 19 109 52 c 4
 105 88 99 133 99 170 c 7
 99 230 117 258 159 275 c 5
 159 278 l 5
 119 294 99 331 99 389 c 7
 99 442 111 496 117 544 c 4
 119 560 120 575 120 586 c 7
 120 628 104 666 64 666 c 7
 50 666 46 664 30 662 c 5
 25 683 l 5
 41 689 57 695 79 695 c 7
 150 695 192 658 192 588 c 7
 192 520 171 457 171 388 c 7
 171 323 188 287 250 287 c 5
 250 269 l 5
 184 269 171 232 171 162 c 7
 171 102 182 46 188 -9 c 4
 190 -27 192 -43 192 -59 c 7
EndSplineSet
Validated: 1
EndChar

StartChar: Z
Encoding: 90 90 53
Width: 554
VWidth: 838
Flags: HMW
LayerCount: 2
Back
SplineSet
521.475585938 645.514648438 m 5
 521.475585938 622.87890625 l 5
 135.842773438 33.5322265625 l 5
 415.845703125 33.5322265625 l 5
 425.90625 48.6220703125 l 6
 445.466796875 78.802734375 461.954101562 108.00390625 475.3671875 136.228515625 c 4
 488.78125 164.452148438 499.399414062 188.064453125 507.223632812 207.068359375 c 5
 529.020507812 204.552734375 l 5
 485.427734375 0 l 5
 25.18359375 0 l 5
 25.18359375 23.4736328125 l 5
 409.138671875 611.981445312 l 5
 142.549804688 611.981445312 l 5
 132.489257812 593.5390625 l 6
 116.282226562 563.358398438 103.2890625 537.090820312 93.5078125 514.735351562 c 4
 83.7275390625 492.37890625 76.6015625 474.774414062 72.1298828125 461.920898438 c 5
 50.333984375 462.758789062 l 5
 85.54296875 645.514648438 l 5
 521.475585938 645.514648438 l 5
EndSplineSet
Fore
SplineSet
521 645 m 1
 521 623 l 1
 152 58 l 1
 432 58 l 1
 441 73 l 2
 463 109 487 156 508 207 c 1
 529 205 l 1
 486 0 l 1
 25 0 l 1
 25 24 l 1
 393 588 l 1
 129 588 l 1
 116 561 l 2
 96 523 85 500 72 462 c 1
 51 463 l 1
 86 645 l 1
 521 645 l 1
EndSplineSet
Validated: 1
EndChar

StartChar: X
Encoding: 88 88 54
Width: 690
VWidth: 838
Flags: HMW
LayerCount: 2
Back
SplineSet
10.451171875 16.7666015625 m 5
 26.658203125 19.001953125 41.0517578125 21.515625 53.626953125 24.310546875 c 4
 66.2021484375 27.1044921875 77.51953125 30.736328125 87.580078125 35.20703125 c 4
 97.6396484375 39.6787109375 106.58203125 45.267578125 114.40625 51.9736328125 c 4
 122.229492188 58.6806640625 129.775390625 66.78515625 137.041015625 76.2861328125 c 6
 314.767578125 316.047851562 l 5
 135.364257812 590.182617188 l 6
 132.010742188 595.771484375 128.098632812 600.381835938 123.627929688 604.014648438 c 4
 119.157226562 607.647460938 113.428710938 610.860351562 106.442382812 613.654296875 c 4
 99.45703125 616.448242188 90.654296875 618.82421875 80.03515625 620.780273438 c 4
 69.416015625 622.735351562 55.7236328125 624.552734375 38.9580078125 626.229492188 c 5
 38.9580078125 645.510742188 l 5
 292.133789062 645.510742188 l 5
 292.133789062 626.229492188 l 5
 267.54296875 625.112304688 251.754882812 623.155273438 244.767578125 620.361328125 c 4
 237.782226562 617.567382812 234.2890625 613.934570312 234.2890625 609.463867188 c 4
 234.2890625 605.551757812 234.987304688 601.499023438 236.384765625 597.307617188 c 4
 237.782226562 593.116210938 240.716796875 587.66796875 245.1875 580.9609375 c 6
 375.12890625 382.276367188 l 5
 510.099609375 565.87109375 l 6
 519.04296875 578.166015625 523.513671875 588.2265625 523.513671875 596.049804688 c 4
 523.513671875 603.875 518.624023438 610.163085938 508.842773438 614.913085938 c 4
 499.0625 619.6640625 483.272460938 623.436523438 461.4765625 626.23046875 c 5
 461.4765625 645.512695312 l 5
 669.3828125 645.512695312 l 5
 669.3828125 626.23046875 l 5
 654.29296875 623.436523438 641.298828125 620.641601562 630.400390625 617.84765625 c 4
 619.501953125 615.053710938 609.721679688 611.560546875 601.059570312 607.369140625 c 4
 592.395507812 603.176757812 584.432617188 598.0078125 577.166015625 591.860351562 c 4
 569.900390625 585.711914062 562.356445312 577.887695312 554.53125 568.387695312 c 6
 394.41015625 352.936523438 l 5
 589.741210938 54.490234375 l 6
 593.653320312 48.34375 598.264648438 43.1728515625 603.57421875 38.9814453125 c 4
 608.8828125 34.7890625 615.030273438 31.296875 622.015625 28.5029296875 c 4
 629.001953125 25.7080078125 637.24609375 23.6123046875 646.74609375 22.21484375 c 4
 656.247070312 20.8173828125 667.423828125 19.5595703125 680.278320312 18.4423828125 c 5
 680.278320312 -0.0009765625 l 5
 428.779296875 -0.0009765625 l 5
 428.779296875 18.4423828125 l 5
 455.046875 20.677734375 472.51171875 22.9140625 481.173828125 25.150390625 c 4
 489.836914062 27.3857421875 494.16796875 30.7392578125 494.16796875 35.208984375 c 4
 494.16796875 38.00390625 493.190429688 41.4970703125 491.234375 45.6884765625 c 4
 489.278320312 49.880859375 485.78515625 55.8896484375 480.754882812 63.712890625 c 6
 335.723632812 284.193359375 l 5
 181.470703125 77.126953125 l 6
 171.969726562 64.2724609375 167.21875 53.3740234375 167.21875 44.431640625 c 4
 167.21875 37.166015625 172.80859375 31.4365234375 183.985351562 27.24609375 c 4
 195.163085938 23.0546875 213.046875 19.560546875 237.637695312 16.7666015625 c 5
 237.637695312 0 l 5
 10.451171875 0 l 5
 10.451171875 16.7666015625 l 5
EndSplineSet
Fore
SplineSet
461 626 m 1
 461 645 l 1
 670 645 l 1
 670 626 l 1
 632 619 602 612 577 592 c 0
 570 586 561 578 554 569 c 2
 395 352 l 1
 590 55 l 2
 608 27 638 22 680 19 c 1
 680 0 l 1
 429 0 l 1
 429 19 l 1
 455 21 473 23 481 25 c 0
 489 27 494 31 494 35 c 0
 494 46 487 54 481 64 c 2
 336 284 l 1
 182 78 l 2
 173 66 167 53 167 44 c 3
 167 37 173 31 184 27 c 0
 195 23 213 19 238 17 c 1
 238 0 l 1
 10 0 l 1
 10 17 l 1
 61 23 70 23 124 95 c 2
 302 335 l 1
 135 590 l 1
 118 618 81 622 39 626 c 1
 39 645 l 1
 293 645 l 1
 293 626 l 1
 268 625 251 622 245 620 c 0
 239 618 235 614 235 610 c 0
 235 598 239 591 245 581 c 2
 363 401 l 1
 497 585 l 2
 503 594 508 602 508 607 c 3
 508 619 490 623 461 626 c 1
EndSplineSet
Validated: 1
EndChar

StartChar: equal
Encoding: 61 61 55
Width: 474
VWidth: 838
Flags: HMW
LayerCount: 2
Fore
SplineSet
65 336 m 5
 65 373 l 5
 409 373 l 5
 409 336 l 5
 65 336 l 5
65 202 m 5
 65 238 l 5
 409 238 l 5
 409 202 l 5
 65 202 l 5
EndSplineSet
Validated: 1
EndChar

StartChar: less
Encoding: 60 60 56
Width: 434
VWidth: 838
Flags: HMW
LayerCount: 2
Fore
SplineSet
33 259 m 1
 33 303 l 1
 376 466 l 1
 376 415 l 1
 94 286 l 1
 94 282 l 1
 376 152 l 1
 376 97 l 1
 33 259 l 1
EndSplineSet
Validated: 1
EndChar

StartChar: greater
Encoding: 62 62 57
Width: 434
VWidth: 838
Flags: HMW
LayerCount: 2
Fore
SplineSet
59 101 m 5
 59 152 l 5
 341 282 l 5
 341 286 l 5
 59 415 l 5
 59 470 l 5
 401 307 l 5
 401 264 l 5
 59 101 l 5
EndSplineSet
Validated: 1
EndChar

StartChar: at
Encoding: 64 64 58
Width: 731
VWidth: 838
Flags: HMW
LayerCount: 2
Fore
SplineSet
370 -87 m 0
 434 -87 480 -77 518 -54 c 1
 527 -78 l 1
 471 -106 411 -120 348 -120 c 0
 208 -120 116 -60 71 37 c 0
 54 74 47 119 47 171 c 0
 47 383 190 536 401 536 c 0
 532 536 621 470 658 376 c 0
 670 344 678 311 678 275 c 0
 678 204 653 143 621 101 c 0
 592 63 547 26 485 26 c 0
 436 26 398 51 398 95 c 0
 398 105 397 110 402 115 c 1
 399 116 l 1
 378 87 356 66 334 55 c 0
 312 44 291 37 270 37 c 0
 212 37 184 78 184 136 c 0
 184 202 217 265 250 304 c 0
 282 341 332 386 394 386 c 0
 427 386 447 372 459 352 c 1
 463 352 l 1
 472 386 l 1
 539 386 l 1
 471 143 l 2
 467 132 463 114 463 100 c 0
 463 75 475 68 498 68 c 0
 541 68 574 97 594 126 c 0
 619 161 637 213 637 273 c 0
 637 390 572 459 483 486 c 0
 454 495 424 499 393 499 c 0
 293 499 221 454 173 398 c 0
 126 343 93 265 93 170 c 0
 93 100 112 40 147 -2 c 0
 192 -57 266 -87 370 -87 c 0
257 139 m 0
 257 106 264 83 293 83 c 0
 311 83 327 89 346 105 c 0
 379 133 405 178 423 228 c 0
 431 252 435 275 435 300 c 0
 435 329 427 349 398 349 c 0
 382 349 365 343 348 331 c 0
 313 305 286 263 270 215 c 0
 262 190 257 165 257 139 c 0
EndSplineSet
Validated: 1
EndChar

StartChar: colon
Encoding: 58 58 59
Width: 237
VWidth: 838
Flags: HMW
LayerCount: 2
Fore
SplineSet
118 279 m 3
 85 279 61 303 61 336 c 3
 61 369 84 395 118 395 c 3
 152 395 177 370 177 336 c 3
 177 303 151 279 118 279 c 3
118 -8 m 3
 85 -8 61 16 61 49 c 3
 61 82 84 108 118 108 c 3
 152 108 177 83 177 49 c 3
 177 16 151 -8 118 -8 c 3
EndSplineSet
Validated: 1
EndChar

StartChar: semicolon
Encoding: 59 59 60
Width: 238
VWidth: 838
Flags: HMW
LayerCount: 2
Fore
SplineSet
119 279 m 3
 86 279 62 303 62 336 c 3
 62 369 85 395 119 395 c 3
 153 395 178 370 178 336 c 3
 178 303 152 279 119 279 c 3
118 108 m 3
 158 108 179 68 179 25 c 3
 179 -45 137 -93 90 -126 c 1
 73 -102 l 1
 89 -91 102 -77 111 -64 c 0
 120 -51 125 -39 125 -30 c 3
 125 -11 105 -3 93 4 c 0
 77 13 61 25 61 51 c 3
 61 83 86 108 118 108 c 3
EndSplineSet
Validated: 1
EndChar

StartChar: Q
Encoding: 81 81 61
Width: 685
VWidth: 838
Flags: HMW
LayerCount: 2
Back
SplineSet
328.748046875 653.8984375 m 0
 372.341796875 653.8984375 412.58203125 645.517578125 449.46875 628.75 c 0
 486.35546875 611.983398438 518.491210938 588.790039062 545.876953125 559.168945312 c 0
 573.262695312 529.547851562 594.640625 494.478515625 610.008789062 453.958984375 c 0
 625.377929688 413.440429688 633.0625 369.70703125 633.0625 322.760742188 c 0
 633.0625 280.844726562 626.776367188 241.442382812 614.201171875 204.555664062 c 0
 601.625976562 167.668945312 583.880859375 134.974609375 560.966796875 106.470703125 c 0
 538.052734375 77.9677734375 510.528320312 54.9140625 478.391601562 37.3095703125 c 0
 446.255859375 19.7041015625 410.626953125 9.224609375 371.504882812 5.87109375 c 1
 371.504882812 2.5185546875 l 1
 385.477539062 -0.8349609375 399.450195312 -5.724609375 413.421875 -12.15234375 c 0
 427.39453125 -18.580078125 441.645507812 -25.1474609375 456.176757812 -31.8525390625 c 0
 470.70703125 -38.5595703125 485.797851562 -44.2890625 501.447265625 -49.0390625 c 0
 517.095703125 -53.7900390625 533.583007812 -56.1650390625 550.909179688 -56.1650390625 c 0
 569.911132812 -56.1650390625 585.561523438 -52.5322265625 597.856445312 -45.2666015625 c 0
 610.15234375 -38.0009765625 621.888671875 -26.8232421875 633.06640625 -11.7333984375 c 1
 655.701171875 -20.1171875 l 1
 638.375976562 -59.796875 616.438476562 -89.2783203125 589.891601562 -108.560546875 c 0
 563.34375 -127.842773438 535.5390625 -137.483398438 506.4765625 -137.483398438 c 0
 489.151367188 -137.483398438 473.641601562 -134.26953125 459.94921875 -127.842773438 c 0
 446.256835938 -121.4140625 433.541992188 -113.590820312 421.805664062 -104.369140625 c 0
 410.068359375 -95.146484375 398.750976562 -84.947265625 387.852539062 -73.7705078125 c 0
 376.955078125 -62.5927734375 365.776367188 -52.392578125 354.3203125 -43.1708984375 c 0
 342.862304688 -33.94921875 330.56640625 -26.125 317.431640625 -19.6982421875 c 0
 304.297851562 -13.26953125 289.626953125 -10.056640625 273.419921875 -10.056640625 c 0
 255.536132812 -10.056640625 242.40234375 -13.689453125 234.018554688 -20.955078125 c 0
 225.635742188 -28.220703125 221.443359375 -37.1640625 221.443359375 -47.7822265625 c 0
 221.443359375 -52.8125 222.141601562 -56.86328125 223.5390625 -59.9384765625 c 0
 224.9375 -63.0126953125 226.614257812 -66.0859375 228.569335938 -69.1611328125 c 0
 230.525390625 -72.234375 232.202148438 -75.587890625 233.599609375 -79.220703125 c 0
 234.99609375 -82.853515625 235.6953125 -87.185546875 235.6953125 -92.2138671875 c 0
 235.6953125 -104.510742188 231.643554688 -114.5703125 223.5390625 -122.39453125 c 0
 215.434570312 -130.21875 205.235351562 -134.131835938 192.939453125 -134.131835938 c 0
 180.084960938 -134.131835938 169.885742188 -129.939453125 162.340820312 -121.556640625 c 0
 154.794921875 -113.172851562 151.022460938 -101.995117188 151.022460938 -88.0234375 c 0
 151.022460938 -67.9033203125 159.265625 -49.1806640625 175.75390625 -31.8544921875 c 0
 192.241210938 -14.529296875 214.736328125 -0.27734375 243.239257812 10.900390625 c 1
 243.239257812 14.25390625 l 1
 210.265625 21.5185546875 180.365234375 34.5126953125 153.538085938 53.2353515625 c 0
 126.7109375 71.9580078125 103.797851562 94.8720703125 84.794921875 121.977539062 c 0
 65.79296875 149.083984375 50.9814453125 179.822265625 40.3623046875 214.194335938 c 0
 29.7431640625 248.565429688 24.4345703125 284.75390625 24.4345703125 322.7578125 c 0
 24.4345703125 369.704101562 32.119140625 413.4375 47.48828125 453.95703125 c 0
 62.857421875 494.475585938 84.234375 529.545898438 111.62109375 559.166015625 c 0
 139.006835938 588.787109375 171.142578125 611.981445312 208.028320312 628.748046875 c 0
 244.916015625 645.514648438 285.155273438 653.8984375 328.748046875 653.8984375 c 0
130.064453125 323.598632812 m 0
 130.064453125 277.76953125 134.534179688 236.692382812 143.4765625 200.364257812 c 0
 152.418945312 164.037109375 165.552734375 133.158203125 182.87890625 107.729492188 c 0
 200.204101562 82.2998046875 221.022460938 62.87890625 245.334960938 49.46484375 c 0
 269.645507812 36.052734375 297.450195312 29.345703125 328.748046875 29.345703125 c 0
 359.487304688 29.345703125 387.15234375 36.052734375 411.743164062 49.46484375 c 0
 436.333984375 62.87890625 457.291015625 82.2998046875 474.618164062 107.729492188 c 0
 491.943359375 133.158203125 505.078125 164.037109375 514.01953125 200.364257812 c 0
 522.962890625 236.692382812 527.43359375 278.048828125 527.43359375 324.436523438 c 0
 527.43359375 416.65234375 510.108398438 488.330078125 475.45703125 539.467773438 c 0
 440.805664062 590.606445312 392.182617188 616.174804688 329.586914062 616.174804688 c 0
 298.290039062 616.174804688 270.346679688 609.608398438 245.755859375 596.475585938 c 0
 221.165039062 583.340820312 200.206054688 564.19921875 182.880859375 539.048828125 c 0
 165.5546875 513.899414062 152.420898438 483.16015625 143.477539062 446.833007812 c 0
 134.536132812 410.504882812 130.064453125 369.427734375 130.064453125 323.598632812 c 0
EndSplineSet
Fore
SplineSet
130 324 m 7
 130 171 180 44 329 44 c 7
 478 44 527 173 527 326 c 7
 527 479 478 596 329 596 c 7
 179 596 130 477 130 324 c 7
329 654 m 7
 515 654 633 510 633 323 c 7
 633 220 597 129 533 69 c 5
 539 53 573 19 655 -21 c 5
 627 -70 l 5
 466 -46 462 -8 329 -8 c 7
 143 -8 25 136 25 323 c 7
 25 510 143 654 329 654 c 7
EndSplineSet
Validated: 1
EndChar

StartChar: plus
Encoding: 43 43 62
Width: 418
VWidth: 838
Flags: HMW
LayerCount: 2
Fore
SplineSet
188 264 m 5
 37 264 l 5
 37 305 l 5
 188 305 l 5
 188 456 l 5
 232 456 l 5
 232 305 l 5
 381 305 l 5
 381 264 l 5
 232 264 l 5
 232 113 l 5
 188 113 l 5
 188 264 l 5
EndSplineSet
Validated: 1
EndChar

StartChar: comma
Encoding: 44 44 63
Width: 216
VWidth: 838
Flags: HMW
LayerCount: 2
Fore
SplineSet
106 108 m 3
 143 108 166 73 166 36 c 3
 166 -43 129 -89 78 -126 c 1
 61 -102 l 1
 77 -91 90 -77 99 -64 c 0
 108 -51 113 -39 113 -30 c 3
 113 -9 96 -1 82 6 c 0
 65 15 51 25 51 51 c 3
 51 83 74 108 106 108 c 3
EndSplineSet
Validated: 1
EndChar

StartChar: quotesingle
Encoding: 39 39 64
Width: 140
VWidth: 838
Flags: HMW
LayerCount: 2
Fore
SplineSet
70 696 m 3
 99 696 115 677 115 649 c 3
 115 619 106 588 100 558 c 0
 93 518 85 472 84 424 c 1
 58 424 l 1
 56 493 41 552 30 608 c 0
 27 624 26 635 26 645 c 3
 26 675 41 696 70 696 c 3
EndSplineSet
Validated: 1
EndChar

StartChar: quotedbl
Encoding: 34 34 65
Width: 268
VWidth: 838
Flags: HMW
LayerCount: 2
Fore
SplineSet
70 696 m 3
 99 696 115 677 115 649 c 3
 115 619 106 588 100 558 c 0
 93 518 85 472 84 424 c 1
 58 424 l 1
 56 493 41 552 30 608 c 0
 27 624 26 635 26 645 c 3
 26 675 41 696 70 696 c 3
198 696 m 3
 227 696 243 677 243 649 c 3
 243 619 233 587 227 557 c 0
 220 517 212 472 211 424 c 1
 186 424 l 1
 184 493 169 552 158 608 c 0
 155 624 154 635 154 645 c 3
 154 675 169 696 198 696 c 3
EndSplineSet
Validated: 1
EndChar

StartChar: numbersign
Encoding: 35 35 66
Width: 564
VWidth: 838
Flags: HMW
LayerCount: 2
Fore
SplineSet
434 583 m 1
 411 440 l 1
 531 440 l 1
 521 393 l 1
 404 393 l 1
 384 267 l 1
 501 267 l 1
 490 219 l 1
 376 219 l 1
 355 78 l 1
 307 78 l 1
 329 219 l 1
 204 219 l 1
 182 78 l 1
 133 78 l 1
 155 219 l 1
 33 219 l 1
 45 267 l 1
 162 267 l 1
 183 393 l 1
 65 393 l 1
 75 440 l 1
 190 440 l 1
 213 583 l 1
 262 583 l 1
 239 440 l 1
 364 440 l 1
 387 583 l 1
 434 583 l 1
211 267 m 1
 336 267 l 1
 357 393 l 1
 232 393 l 1
 211 267 l 1
EndSplineSet
Validated: 1
EndChar

StartChar: dollar
Encoding: 36 36 67
Width: 447
VWidth: 838
Flags: HMW
LayerCount: 2
Back
SplineSet
248.143554688 51.1376953125 m 0
 319.401367188 51.1376953125 373.0546875 86.3486328125 373.0546875 155.091796875 c 3
 373.0546875 196.169921875 351.2578125 206.229492188 325.270507812 228.025390625 c 0
 295.927734375 253.17578125 254.850585938 273.295898438 217.962890625 292.577148438 c 0
 160.95703125 322.7578125 106.46484375 353.775390625 77.962890625 412.458007812 c 0
 68.7412109375 430.901367188 64.548828125 452.69921875 64.548828125 477.009765625 c 3
 64.548828125 561.681640625 115.6875 616.172851562 177.723632812 640.484375 c 0
 200.358398438 649.70703125 224.669921875 653.8984375 251.497070312 653.8984375 c 3
 309.341796875 653.8984375 345.389648438 632.939453125 378.084960938 601.920898438 c 1
 404.911132812 645.514648438 l 1
 421.677734375 645.514648438 l 1
 429.22265625 461.08203125 l 1
 407.42578125 461.08203125 l 1
 394.013671875 514.735351562 374.731445312 539.045898438 350.419921875 564.196289062 c 0
 326.108398438 589.346679688 294.250976562 601.920898438 255.688476562 601.920898438 c 3
 193.65234375 601.920898438 152.573242188 567.549804688 152.573242188 506.3515625 c 3
 152.573242188 461.920898438 174.370117188 450.18359375 199.520507812 428.38671875 c 0
 228.0234375 403.237304688 266.586914062 384.793945312 301.796875 365.51171875 c 0
 357.96484375 335.333007812 409.102539062 305.15234375 436.767578125 247.307617188 c 0
 445.151367188 228.864257812 450.181640625 207.068359375 450.181640625 181.91796875 c 3
 450.181640625 123.234375 424.192382812 77.126953125 392.336914062 46.9462890625 c 0
 359.641601562 16.7666015625 311.018554688 -7.544921875 250.658203125 -7.544921875 c 0
 193.65234375 -7.544921875 156.764648438 10.060546875 116.525390625 34.37109375 c 1
 82.9931640625 0 l 1
 66.2255859375 0 l 1
 51.1357421875 214.61328125 l 1
 72.09375 219.643554688 l 1
 88.861328125 151.73828125 110.657226562 125.75 138.322265625 95.5693359375 c 0
 165.986328125 65.3896484375 202.03515625 51.1376953125 248.143554688 51.1376953125 c 0
EndSplineSet
Fore
SplineSet
42 101 m 0
 42 130 58 151 87 151 c 0
 142 151 132 80 157 51 c 0
 169 37 188 29 214 27 c 1
 214 278 l 1
 154 310 95 343 64 405 c 0
 55 425 50 447 50 474 c 0
 50 554 91 605 146 632 c 0
 167 642 189 649 214 652 c 1
 214 744 l 1
 249 744 l 1
 249 654 l 1
 310 651 361 626 386 586 c 0
 392 574 397 559 397 545 c 0
 397 516 379 495 350 495 c 0
 315 495 307 523 300 552 c 0
 291 585 280 608 249 617 c 1
 249 378 l 1
 306 346 363 314 392 254 c 0
 401 234 406 211 406 184 c 0
 406 102 364 49 311 20 c 0
 291 9 272 1 249 -3 c 1
 249 -86 l 1
 214 -86 l 1
 214 -7 l 1
 143 -7 84 17 56 59 c 0
 47 72 42 85 42 101 c 0
249 29 m 1
 296 40 329 76 329 133 c 0
 329 162 321 185 305 205 c 0
 289 225 272 239 249 255 c 1
 249 29 l 1
214 618 m 1
 167 612 137 575 137 521 c 0
 137 493 145 471 159 451 c 0
 173 431 192 415 214 401 c 1
 214 618 l 1
EndSplineSet
Validated: 1
EndChar

StartChar: percent
Encoding: 37 37 68
Width: 675
VWidth: 838
Flags: HMW
LayerCount: 2
Fore
SplineSet
161 623 m 3
 123 623 116 585 112 547 c 0
 110 527 109 502 109 473 c 3
 109 424 110 387 121 356 c 0
 128 337 138 327 161 327 c 3
 200 327 207 363 211 401 c 0
 213 421 214 444 214 473 c 3
 214 522 213 561 202 593 c 0
 196 613 185 623 161 623 c 3
514 348 m 3
 556 348 588 323 608 295 c 0
 631 264 646 219 646 167 c 3
 646 91 614 34 565 6 c 0
 549 -3 533 -8 514 -8 c 3
 472 -8 440 15 420 42 c 0
 397 72 382 116 382 167 c 3
 382 245 413 305 462 334 c 0
 478 343 495 348 514 348 c 3
514 318 m 3
 476 318 468 280 464 242 c 0
 462 222 462 197 462 168 c 3
 462 119 462 82 473 51 c 0
 480 32 491 22 514 22 c 3
 553 22 559 57 563 95 c 0
 565 115 566 139 566 168 c 3
 566 217 565 256 554 288 c 0
 548 308 538 318 514 318 c 3
477 597 m 1
 444 578 412 574 372 574 c 3
 336 574 302 574 260 590 c 1
 260 590 276 566 282 544 c 0
 288 522 294 497 294 472 c 3
 294 396 262 339 213 311 c 0
 197 302 180 297 161 297 c 3
 119 297 87 321 67 348 c 0
 44 378 29 421 29 472 c 3
 29 550 61 610 110 639 c 0
 126 648 142 653 161 653 c 3
 180 653 197 648 213 639 c 1
 267 612 317 599 365 599 c 3
 416 599 464 614 507 645 c 1
 565 645 l 1
 171 0 l 1
 113 0 l 1
 477 597 l 1
EndSplineSet
Validated: 1
EndChar

StartChar: period
Encoding: 46 46 69
Width: 216
VWidth: 838
Flags: HMW
LayerCount: 2
Fore
SplineSet
108 -8 m 3
 75 -8 51 16 51 49 c 3
 51 82 74 108 108 108 c 3
 142 108 166 83 166 49 c 3
 166 16 141 -8 108 -8 c 3
EndSplineSet
Validated: 1
EndChar

StartChar: exclam
Encoding: 33 33 71
Width: 251
VWidth: 838
Flags: HMW
LayerCount: 2
Fore
SplineSet
126 654 m 7
 159 654 176 631 176 599 c 7
 176 588 174 568 171 539 c 4
 159 433 150 311 143 193 c 5
 109 193 l 5
 102 311 92 432 80 538 c 4
 77 567 74 585 74 596 c 7
 74 628 93 654 126 654 c 7
125 -8 m 7
 94 -8 71 15 71 45 c 7
 71 77 92 100 125 100 c 7
 158 100 180 78 180 45 c 7
 180 14 158 -8 125 -8 c 7
EndSplineSet
Validated: 1
EndChar

StartChar: zero
Encoding: 48 48 72
Width: 529
VWidth: 838
Flags: HMW
LayerCount: 2
Fore
SplineSet
264 654 m 7
 337 654 387 607 420 557 c 4
 458 498 484 414 484 319 c 7
 484 182 435 70 350 17 c 4
 323 0 295 -8 264 -8 c 7
 191 -8 141 37 109 86 c 4
 72 143 47 225 47 319 c 7
 47 459 94 572 178 627 c 4
 205 645 233 654 264 654 c 7
264 611 m 7
 213 611 191 583 175 543 c 4
 151 483 149 412 149 320 c 7
 149 229 151 160 175 100 c 4
 191 61 213 34 264 34 c 7
 315 34 339 61 355 100 c 4
 379 159 381 229 381 320 c 7
 381 411 379 482 355 542 c 4
 339 582 315 611 264 611 c 7
EndSplineSet
Validated: 1
EndChar

StartChar: one
Encoding: 49 49 73
Width: 352
VWidth: 838
Flags: HMW
LayerCount: 2
Fore
SplineSet
37 545 m 1
 106 568 162 604 215 654 c 1
 233 647 l 1
 233 35 l 1
 340 19 l 1
 340 0 l 1
 33 0 l 1
 33 19 l 1
 144 35 l 1
 144 527 l 1
 37 527 l 1
 37 545 l 1
EndSplineSet
Validated: 1
EndChar

StartChar: two
Encoding: 50 50 74
Width: 484
VWidth: 838
Flags: HMW
LayerCount: 2
Fore
SplineSet
452 75 m 1
 420 0 l 5
 29 0 l 1
 21 20 l 1
 77 74 124 121 162 163 c 0
 200 205 231 244 255 278 c 0
 279 312 296 345 307 374 c 0
 318 403 324 430 324 457 c 0
 324 517 299 560 259 580 c 0
 246 586 231 590 215 590 c 0
 150 590 98 540 73 493 c 1
 56 502 l 1
 81 566 126 619 190 643 c 0
 210 650 231 654 252 654 c 0
 305 654 345 631 372 602 c 0
 400 573 420 530 420 474 c 0
 420 446 414 420 403 391 c 0
 392 362 375 332 351 300 c 0
 327 268 296 233 259 196 c 0
 222 159 179 118 126 75 c 1
 452 75 l 1
EndSplineSet
Validated: 1
EndChar

StartChar: three
Encoding: 51 51 75
Width: 463
VWidth: 838
Flags: HMW
LayerCount: 2
Fore
SplineSet
195 315 m 0
 179 315 165 313 148 311 c 1
 143 334 l 1
 188 354 222 379 247 408 c 0
 272 437 284 470 284 504 c 0
 284 554 256 595 209 595 c 0
 144 595 99 546 78 495 c 1
 58 500 l 1
 71 569 118 620 178 643 c 0
 198 650 219 654 242 654 c 0
 304 654 347 625 367 583 c 0
 373 567 377 552 377 534 c 0
 377 505 368 479 349 453 c 0
 330 427 305 406 272 386 c 1
 272 382 l 1
 360 375 418 309 418 214 c 0
 418 146 387 92 352 56 c 0
 317 20 265 -8 197 -8 c 0
 129 -8 76 19 51 61 c 0
 43 75 37 89 37 105 c 0
 37 136 55 157 85 157 c 0
 122 157 133 122 142 93 c 0
 153 60 171 29 215 29 c 0
 275 29 312 74 330 118 c 0
 336 135 339 151 339 171 c 0
 339 238 299 283 251 304 c 0
 233 311 215 315 195 315 c 0
EndSplineSet
Validated: 1
EndChar

StartChar: four
Encoding: 52 52 76
Width: 487
VWidth: 838
Flags: HMW
LayerCount: 2
Fore
SplineSet
283 179 m 5
 16 179 l 5
 8 193 l 5
 346 654 l 5
 368 645 l 5
 368 242 l 5
 446 242 l 5
 446 179 l 5
 368 179 l 5
 368 35 l 5
 442 20 l 5
 442 0 l 5
 183 0 l 5
 183 20 l 5
 283 35 l 5
 283 179 l 5
283 487 m 5
 280 487 l 5
 106 246 l 5
 108 242 l 5
 283 242 l 5
 283 487 l 5
EndSplineSet
Validated: 1
EndChar

StartChar: five
Encoding: 53 53 77
Width: 459
VWidth: 838
Flags: HMW
LayerCount: 2
Fore
SplineSet
29 97 m 4
 29 127 44 146 73 146 c 4
 123 146 124 90 144 60 c 4
 155 42 174 29 204 29 c 4
 246 29 276 50 297 75 c 4
 320 102 335 142 335 189 c 4
 335 264 299 315 245 338 c 4
 226 345 207 349 184 349 c 4
 150 349 119 339 93 317 c 5
 81 318 l 5
 124 635 l 5
 391 635 l 5
 368 559 l 5
 153 559 l 5
 131 415 l 5
 156 423 175 428 205 428 c 4
 304 428 370 377 399 307 c 4
 409 282 415 254 415 224 c 4
 415 152 384 96 347 59 c 4
 310 22 253 -8 182 -8 c 4
 117 -8 66 16 41 56 c 4
 34 68 29 81 29 97 c 4
EndSplineSet
Validated: 1
EndChar

StartChar: six
Encoding: 54 54 78
Width: 492
VWidth: 838
Flags: HMW
LayerCount: 2
Back
SplineSet
155.927734375 345.391601562 m 5
 180.305664062 370.875976562 231.34375 388.985351562 281.677734375 388.985351562 c 4
 369.99609375 388.985351562 425.41015625 340.836914062 450.182617188 275.811523438 c 4
 459.125 252.337890625 463.596679688 226.348632812 463.596679688 197.846679688 c 4
 463.596679688 98.7421875 409.99609375 34.7978515625 337.428710938 6.70703125 c 4
 311.439453125 -3.353515625 282.796875 -8.3837890625 251.499023438 -8.3837890625 c 4
 147.30078125 -8.3837890625 86.4755859375 48.3779296875 60.359375 128.264648438 c 4
 50.859375 157.327148438 46.1083984375 190.30078125 46.1083984375 227.1875 c 4
 46.1083984375 332.456054688 83.525390625 418.197265625 132.037109375 482.877929688 c 4
 187.637695312 557.012695312 267.131835938 616.0234375 362.158203125 651.3828125 c 5
 368.864257812 630.423828125 l 5
 315.696289062 602.067382812 265.91015625 553.200195312 229.701171875 505.09375 c 4
 197.396484375 462.171875 164.061523438 405.034179688 155.927734375 345.391601562 c 5
144.193359375 202.038085938 m 4
 144.193359375 112.658203125 175.46875 35.208984375 256.529296875 35.208984375 c 4
 331.76171875 35.208984375 363.834960938 102.133789062 363.834960938 183.594726562 c 4
 363.834960938 269.286132812 328.592773438 341.201171875 248.983398438 341.201171875 c 4
 206.919921875 341.201171875 172.579101562 321.384765625 154.252929688 295.9296875 c 5
 148.841796875 271.0390625 144.193359375 232.497070312 144.193359375 202.038085938 c 4
EndSplineSet
Fore
SplineSet
156 345 m 1
 181 370 230 389 281 389 c 0
 369 389 426 341 451 276 c 0
 460 252 463 226 463 197 c 0
 463 98 410 35 337 6 c 0
 311 -4 282 -8 251 -8 c 0
 147 -8 86 48 60 128 c 0
 51 157 47 190 47 227 c 0
 47 332 83 419 132 483 c 0
 188 556 267 616 362 651 c 1
 369 631 l 1
 316 602 265 552 229 504 c 0
 196 462 164 405 156 345 c 1
144 202 m 0
 144 112 174 35 256 35 c 0
 331 35 364 102 364 184 c 0
 364 270 329 341 249 341 c 0
 207 341 171 306 152 281 c 1
 147 255 144 232 144 202 c 0
EndSplineSet
Validated: 1
EndChar

StartChar: seven
Encoding: 55 55 79
Width: 415
VWidth: 838
Flags: HMW
LayerCount: 2
Fore
SplineSet
92 559 m 1
 68 539 57 524 38 495 c 1
 21 504 l 1
 79 637 l 1
 401 637 l 1
 407 624 l 1
 341 472 289 337 235 173 c 0
 223 136 208 91 192 40 c 0
 182 7 165 -8 139 -8 c 0
 113 -8 98 8 98 34 c 0
 98 45 102 57 108 73 c 0
 114 89 121 108 131 129 c 1
 316 559 l 1
 92 559 l 1
EndSplineSet
Validated: 1
EndChar

StartChar: eight
Encoding: 56 56 80
Width: 496
VWidth: 838
Flags: HMW
LayerCount: 2
Fore
SplineSet
312 369 m 1
 360 340 395 311 417 281 c 0
 439 251 451 217 451 180 c 0
 451 64 358 -8 242 -8 c 0
 133 -8 47 55 47 163 c 0
 47 252 105 300 174 336 c 1
 116 374 66 414 66 494 c 0
 66 595 147 654 249 654 c 0
 342 654 421 604 421 513 c 0
 421 453 385 405 312 369 c 1
244 616 m 0
 185 616 145 580 145 522 c 0
 145 448 209 415 273 386 c 1
 323 422 347 464 347 513 c 0
 347 575 306 616 244 616 c 0
254 29 m 0
 326 29 374 73 374 144 c 0
 374 239 294 278 211 315 c 1
 163 286 130 236 130 164 c 0
 130 83 174 29 254 29 c 0
EndSplineSet
Validated: 1
EndChar

StartChar: nine
Encoding: 57 57 81
Width: 496
VWidth: 838
Flags: HMW
LayerCount: 2
Fore
SplineSet
341 298 m 1
 316 273 266 254 215 254 c 3
 102 254 33 333 33 446 c 3
 33 572 120 651 246 651 c 3
 383 651 451 555 451 416 c 3
 451 311 414 224 365 160 c 0
 309 87 230 26 135 -8 c 1
 128 12 l 1
 181 41 232 91 268 139 c 0
 301 181 333 238 341 298 c 1
352 441 m 3
 352 531 323 606 241 606 c 3
 166 606 133 541 133 459 c 3
 133 373 168 310 248 310 c 3
 290 310 324 331 343 356 c 1
 348 381 352 411 352 441 c 3
EndSplineSet
Validated: 1
EndChar

StartChar: question
Encoding: 63 63 82
Width: 362
VWidth: 838
Flags: HMW
LayerCount: 2
Back
SplineSet
165.150390625 653.8984375 m 3
 198.684570312 653.8984375 215.451171875 630.424804688 215.451171875 598.567382812 c 3
 215.451171875 587.669921875 213.774414062 567.549804688 210.420898438 539.045898438 c 0
 197.846679688 432.578125 189.462890625 310.182617188 181.91796875 192.81640625 c 1
 147.546875 192.81640625 l 1
 140.000976562 310.182617188 131.618164062 430.901367188 119.04296875 537.369140625 c 0
 115.689453125 565.873046875 114.012695312 585.155273438 114.012695312 596.053710938 c 3
 114.012695312 627.91015625 132.456054688 653.8984375 165.150390625 653.8984375 c 3
164.3125 -8.3837890625 m 3
 133.294921875 -8.3837890625 110.659179688 15.08984375 110.659179688 45.26953125 c 3
 110.659179688 77.126953125 131.618164062 100.599609375 164.3125 100.599609375 c 3
 197.846679688 100.599609375 219.643554688 78.8037109375 219.643554688 45.26953125 c 3
 219.643554688 14.251953125 197.0078125 -8.3837890625 164.3125 -8.3837890625 c 3
EndSplineSet
Fore
SplineSet
164 -8 m 3
 131 -8 111 15 111 47 c 3
 111 79 133 100 165 100 c 3
 197 100 219 79 219 47 c 3
 219 15 196 -8 164 -8 c 3
104 510 m 0
 104 485 114 492 114 468 c 0
 114 448 89 438 73 438 c 0
 60 438 37 445 37 474 c 0
 37 546 107 606 185 606 c 0
 271 606 326 540 326 464 c 3
 326 398 274 362 235 333 c 0
 195 304 183 286 183 229 c 2
 183 193 l 25
 148 193 l 25
 148 232 l 2
 148 268 152 316 207 366 c 0
 240 397 252 422 252 461 c 3
 252 516 229 553 181 553 c 0
 133 553 104 535 104 510 c 0
EndSplineSet
Validated: 1
EndChar

StartChar: uni0000
Encoding: 0 0 83
Width: 718
VWidth: 838
Flags: HMW
LayerCount: 2
Back
SplineSet
518.088867188 315.211914062 m 5
 201.19921875 315.211914062 l 5
 201.19921875 35.208984375 l 5
 275.811523438 19.2822265625 l 5
 275.811523438 0 l 5
 37.724609375 0 l 5
 37.724609375 19.2822265625 l 5
 113.174804688 35.208984375 l 5
 113.174804688 610.3046875 l 5
 37.724609375 626.233398438 l 5
 37.724609375 645.514648438 l 5
 275.811523438 645.514648438 l 5
 275.811523438 626.233398438 l 5
 201.19921875 610.3046875 l 5
 201.19921875 373.056640625 l 5
 518.088867188 373.056640625 l 5
 518.088867188 610.3046875 l 5
 442.638671875 626.233398438 l 5
 442.638671875 645.514648438 l 5
 680.724609375 645.514648438 l 5
 680.724609375 624.556640625 l 5
 606.112304688 610.3046875 l 5
 606.112304688 35.208984375 l 5
 680.724609375 17.60546875 l 5
 680.724609375 0 l 5
 442.638671875 0 l 5
 442.638671875 19.2822265625 l 5
 518.088867188 35.208984375 l 5
 518.088867188 315.211914062 l 5
EndSplineSet
Fore
SplineSet
37 645 m 1
 681 645 l 1
 681 0 l 1
 37 0 l 1
 37 645 l 1
113 570 m 1
 113 75 l 1
 606 75 l 1
 606 570 l 1
 113 570 l 1
359 513 m 0
 327 513 312 494 302 468 c 0
 286 430 285 385 285 326 c 0
 285 290 286 260 290 232 c 1
 418 466 l 2
 417 468 l 0
 407 494 391 513 359 513 c 0
359 539 m 0
 406 539 438 509 459 477 c 0
 484 440 499 387 499 326 c 0
 499 238 470 164 415 131 c 0
 398 120 379 116 359 116 c 0
 312 116 279 144 259 175 c 0
 234 212 219 266 219 326 c 0
 219 415 250 488 304 523 c 0
 321 534 339 539 359 539 c 0
299 192 m 2
 300 190 301 186 302 184 c 0
 312 159 327 143 359 143 c 0
 391 143 407 160 417 185 c 0
 433 222 434 268 434 326 c 0
 434 365 433 399 428 428 c 1
 299 192 l 2
EndSplineSet
Validated: 1
EndChar

StartChar: plusminus
Encoding: 177 177 84
Width: 482
VWidth: 838
Flags: HMW
LayerCount: 2
Fore
SplineSet
220 354 m 1
 69 354 l 1
 69 395 l 1
 220 395 l 1
 220 546 l 1
 264 546 l 1
 264 395 l 1
 413 395 l 1
 413 354 l 1
 264 354 l 1
 264 202 l 1
 220 202 l 1
 220 354 l 1
69 89 m 1
 69 130 l 1
 413 130 l 1
 413 89 l 1
 69 89 l 1
EndSplineSet
Validated: 1
EndChar

StartChar: uni00B2
Encoding: 178 178 85
Width: 339
VWidth: 838
Flags: HMW
LayerCount: 2
Fore
SplineSet
37 672 m 1
 58 728 104 776 174 776 c 0
 230 776 268 744 285 704 c 0
 291 690 295 674 295 657 c 0
 295 613 277 582 253 553 c 0
 214 503 165 465 109 421 c 1
 247 421 l 1
 263 437 276 456 287 477 c 1
 308 472 l 1
 264 348 l 1
 29 348 l 1
 24 380 l 1
 81 434 130 483 170 539 c 0
 186 560 196 577 202 595 c 0
 208 613 212 630 212 646 c 0
 212 689 188 724 146 724 c 0
 104 724 72 690 56 660 c 1
 37 672 l 1
EndSplineSet
Validated: 1
EndChar

StartChar: uni00B3
Encoding: 179 179 86
Width: 325
VWidth: 838
Flags: HMW
LayerCount: 2
Fore
SplineSet
130 551 m 4
 121 551 107 550 100 548 c 5
 93 573 l 5
 122 584 145 598 162 618 c 4
 179 638 188 656 188 677 c 4
 188 706 170 726 141 726 c 4
 104 726 75 700 62 673 c 5
 44 681 l 5
 55 735 103 776 167 776 c 4
 222 776 265 745 265 691 c 4
 265 644 228 614 190 604 c 5
 190 601 l 5
 249 596 290 553 290 489 c 4
 290 421 247 374 197 354 c 4
 178 347 160 343 139 343 c 4
 92 343 55 360 37 389 c 4
 31 398 29 409 29 420 c 4
 29 443 41 459 64 459 c 4
 90 459 97 438 104 419 c 4
 112 398 122 378 151 378 c 4
 192 378 215 413 215 456 c 4
 215 512 184 551 130 551 c 4
EndSplineSet
Validated: 1
EndChar

StartChar: degree
Encoding: 176 176 87
Width: 284
VWidth: 838
Flags: HMW
LayerCount: 2
Fore
SplineSet
143 492 m 3
 83 492 41 534 41 593 c 3
 41 652 84 696 143 696 c 3
 202 696 244 652 244 593 c 3
 244 533 202 492 143 492 c 3
143 663 m 3
 104 663 75 632 75 593 c 3
 75 555 105 526 143 526 c 3
 182 526 210 554 210 593 c 3
 210 633 183 663 143 663 c 3
EndSplineSet
Validated: 1
EndChar

StartChar: acute
Encoding: 180 180 88
Width: 141
VWidth: 838
Flags: HMW
LayerCount: 2
Fore
SplineSet
101 720 m 0
 121 720 134 704 134 684 c 0
 134 661 123 649 109 633 c 2
 26 529 l 1
 8 539 l 1
 56 681 l 2
 63 703 73 720 101 720 c 0
EndSplineSet
Validated: 1
EndChar

StartChar: periodcentered
Encoding: 183 183 89
Width: 235
VWidth: 838
Flags: HMW
LayerCount: 2
Fore
SplineSet
118 184 m 7
 85 184 60 208 60 241 c 7
 60 274 84 300 118 300 c 7
 152 300 176 275 176 241 c 7
 176 208 151 184 118 184 c 7
EndSplineSet
Validated: 1
EndChar

StartChar: multiply
Encoding: 215 215 90
Width: 411
VWidth: 838
Flags: HMW
LayerCount: 2
Fore
SplineSet
175 285 m 1
 58 402 l 1
 89 433 l 1
 207 316 l 1
 324 433 l 1
 357 401 l 1
 239 283 l 1
 356 166 l 1
 325 135 l 1
 208 252 l 1
 90 134 l 1
 57 166 l 1
 175 285 l 1
EndSplineSet
Validated: 1
EndChar

StartChar: dieresis
Encoding: 168 168 91
Width: 265
VWidth: 838
Flags: HMW
LayerCount: 2
Fore
SplineSet
55 561 m 3
 28 561 8 582 8 608 c 3
 8 635 27 654 55 654 c 3
 84 654 100 636 100 608 c 3
 100 581 83 561 55 561 c 3
211 561 m 3
 184 561 165 582 165 608 c 3
 165 635 183 654 211 654 c 3
 240 654 257 636 257 608 c 3
 257 581 239 561 211 561 c 3
EndSplineSet
Validated: 1
EndChar

StartChar: macron
Encoding: 175 175 92
Width: 256
VWidth: 838
Flags: HMW
LayerCount: 2
Fore
SplineSet
8 594 m 1
 8 654 l 1
 249 654 l 1
 249 594 l 1
 8 594 l 1
EndSplineSet
Validated: 1
EndChar

StartChar: bracketleft
Encoding: 91 91 93
Width: 270
VWidth: 838
Flags: HMW
LayerCount: 2
Fore
SplineSet
85 -157 m 5
 85 687 l 5
 251 687 l 5
 251 661 l 5
 153 661 l 5
 153 -131 l 5
 251 -131 l 5
 251 -157 l 5
 85 -157 l 5
EndSplineSet
Validated: 1
EndChar

StartChar: backslash
Encoding: 92 92 94
Width: 300
VWidth: 838
Flags: HMW
LayerCount: 2
Fore
SplineSet
207 -142 m 5
 37 686 l 5
 96 686 l 5
 264 -142 l 5
 207 -142 l 5
EndSplineSet
Validated: 1
EndChar

StartChar: bracketright
Encoding: 93 93 95
Width: 270
VWidth: 838
Flags: HMW
LayerCount: 2
Fore
SplineSet
20 -157 m 5
 20 -131 l 5
 119 -131 l 5
 119 661 l 5
 20 661 l 5
 20 687 l 5
 187 687 l 5
 187 -157 l 5
 20 -157 l 5
EndSplineSet
Validated: 1
EndChar

StartChar: asciicircum
Encoding: 94 94 96
Width: 414
VWidth: 838
Flags: HMW
LayerCount: 2
Fore
SplineSet
37 278 m 1
 193 596 l 1
 223 596 l 1
 377 278 l 1
 342 278 l 1
 209 544 l 1
 206 544 l 1
 73 278 l 1
 37 278 l 1
EndSplineSet
Validated: 1
EndChar

StartChar: underscore
Encoding: 95 95 97
Width: 567
VWidth: 811
Flags: HMW
LayerCount: 2
Fore
SplineSet
61 -36 m 5
 61 0 l 5
 507 0 l 5
 507 -36 l 5
 61 -36 l 5
EndSplineSet
Validated: 1
EndChar

StartChar: grave
Encoding: 96 96 98
Width: 141
VWidth: 838
Flags: HMW
LayerCount: 2
Fore
SplineSet
8 684 m 3
 8 704 21 720 41 720 c 3
 69 720 80 703 87 681 c 2
 134 539 l 1
 117 529 l 1
 33 633 l 2
 19 649 8 661 8 684 c 3
EndSplineSet
Validated: 1
EndChar

StartChar: quotedblleft
Encoding: 8220 8220 99
Width: 328
VWidth: 838
Flags: HMW
LayerCount: 2
Fore
SplineSet
81 462 m 3
 44 462 21 496 21 533 c 3
 21 612 58 659 109 696 c 1
 125 672 l 1
 109 661 97 647 88 634 c 0
 79 621 73 609 73 600 c 3
 73 579 90 570 104 563 c 0
 121 554 136 544 136 518 c 3
 136 486 113 462 81 462 c 3
241 462 m 3
 204 462 182 496 182 533 c 3
 182 612 219 659 270 696 c 1
 286 672 l 1
 270 661 258 647 249 634 c 0
 240 621 235 609 235 600 c 3
 235 579 252 570 266 563 c 0
 283 554 298 544 298 518 c 3
 298 486 273 462 241 462 c 3
EndSplineSet
Validated: 1
EndChar

StartChar: quotedblright
Encoding: 8221 8221 100
Width: 328
VWidth: 838
Flags: HMW
LayerCount: 2
Fore
SplineSet
248 696 m 3
 285 696 308 661 308 624 c 3
 308 545 271 499 220 462 c 1
 204 486 l 1
 220 497 232 511 241 524 c 0
 250 537 255 549 255 558 c 7
 255 579 238 587 224 594 c 0
 207 603 192 614 192 640 c 3
 192 672 216 696 248 696 c 3
88 696 m 3
 125 696 147 661 147 624 c 3
 147 545 110 499 59 462 c 1
 42 486 l 1
 58 497 71 511 80 524 c 0
 89 537 94 549 94 558 c 7
 94 579 77 587 63 594 c 0
 46 603 31 614 31 640 c 3
 31 672 56 696 88 696 c 3
EndSplineSet
Validated: 1
EndChar

StartChar: quotedblbase
Encoding: 8222 8222 101
Width: 381
VWidth: 838
Flags: HMW
LayerCount: 2
Fore
SplineSet
269 108 m 3
 306 108 329 73 329 36 c 3
 329 -43 292 -89 241 -126 c 1
 224 -102 l 1
 240 -91 253 -77 262 -64 c 0
 271 -51 276 -39 276 -30 c 3
 276 -9 259 -1 245 6 c 0
 228 15 213 25 213 51 c 3
 213 83 237 108 269 108 c 3
109 108 m 3
 146 108 167 73 167 36 c 3
 167 -43 131 -89 80 -126 c 1
 63 -102 l 1
 79 -91 91 -77 100 -64 c 0
 109 -51 115 -39 115 -30 c 3
 115 -9 98 -1 84 6 c 0
 67 15 52 25 52 51 c 3
 52 83 77 108 109 108 c 3
EndSplineSet
Validated: 1
EndChar

StartChar: quoteleft
Encoding: 8216 8216 102
Width: 167
VWidth: 838
Flags: HMW
LayerCount: 2
Fore
SplineSet
81 462 m 7
 44 462 21 496 21 533 c 7
 21 612 58 659 109 696 c 5
 125 672 l 5
 109 661 97 647 88 634 c 4
 79 621 73 609 73 600 c 7
 73 579 90 570 104 563 c 4
 121 554 136 544 136 518 c 7
 136 486 113 462 81 462 c 7
EndSplineSet
Validated: 1
EndChar

StartChar: quoteright
Encoding: 8217 8217 103
Width: 167
VWidth: 838
Flags: HMW
LayerCount: 2
Fore
SplineSet
88 696 m 3
 125 696 147 661 147 624 c 3
 147 545 110 499 59 462 c 1
 42 486 l 1
 58 497 71 511 80 524 c 0
 89 537 94 549 94 558 c 3
 94 579 77 587 63 594 c 0
 46 603 31 614 31 640 c 3
 31 672 56 696 88 696 c 3
EndSplineSet
Validated: 1
EndChar

StartChar: ellipsis
Encoding: 8230 8230 104
Width: 688
VWidth: 838
Flags: HMW
LayerCount: 2
Fore
SplineSet
109 -8 m 4
 76 -8 52 16 52 49 c 4
 52 82 75 108 109 108 c 4
 143 108 167 83 167 49 c 4
 167 16 142 -8 109 -8 c 4
344 -8 m 4
 311 -8 286 16 286 49 c 4
 286 82 310 108 344 108 c 4
 378 108 402 83 402 49 c 4
 402 16 377 -8 344 -8 c 4
579 -8 m 4
 546 -8 521 16 521 49 c 4
 521 82 545 108 579 108 c 4
 613 108 637 83 637 49 c 4
 637 16 612 -8 579 -8 c 4
EndSplineSet
Validated: 1
EndChar

StartChar: fraction
Encoding: 8260 8260 105
Width: 183
VWidth: 838
Flags: HMW
LayerCount: 2
Fore
SplineSet
-133 0 m 5
 259 645 l 5
 318 645 l 5
 -75 0 l 5
 -133 0 l 5
EndSplineSet
Validated: 1
EndChar

StartChar: bullet
Encoding: 8226 8226 106
Width: 343
VWidth: 838
Flags: HMW
LayerCount: 2
Fore
SplineSet
71 313 m 3
 71 369 116 410 172 410 c 3
 228 410 273 369 273 313 c 3
 273 257 228 217 172 217 c 3
 116 217 71 257 71 313 c 3
EndSplineSet
Validated: 1
EndChar

StartChar: dagger
Encoding: 8224 8224 107
Width: 372
VWidth: 838
Flags: HMW
LayerCount: 2
Fore
SplineSet
186 590 m 0
 202 590 214 573 214 552 c 2
 214 388 l 25
 293 390 l 2
 319 390 326 373 326 362 c 0
 326 351 319 332 293 332 c 0
 270 332 245 342 214 348 c 1
 214 188 l 2
 214 52 204 -84 198 -152 c 0
 196 -170 196 -181 186 -181 c 0
 175 -181 176 -165 174 -152 c 0
 168 -84 157 52 157 188 c 2
 157 348 l 1
 126 342 99 332 79 332 c 0
 53 332 47 352 47 362 c 0
 47 376 56 390 79 390 c 2
 157 388 l 25
 157 552 l 2
 157 573 170 590 186 590 c 0
EndSplineSet
Validated: 1
EndChar

StartChar: daggerdbl
Encoding: 8225 8225 108
Width: 372
VWidth: 838
Flags: HMW
LayerCount: 2
Back
SplineSet
46.9462890625 18.443359375 m 0
 46.9462890625 31.017578125 53.6533203125 47.7841796875 79.6416015625 47.7841796875 c 0
 106.467773438 47.7841796875 146.708007812 31.017578125 176.887695312 27.6650390625 c 1
 175.2109375 70.419921875 156.768554688 135.809570312 156.768554688 172.696289062 c 0
 156.768554688 204.552734375 176.887695312 208.745117188 186.109375 208.745117188 c 0
 197.0078125 208.745117188 215.451171875 202.038085938 215.451171875 176.048828125 c 0
 215.451171875 131.618164062 197.0078125 77.126953125 194.493164062 27.6650390625 c 1
 228.025390625 31.017578125 265.750976562 47.7841796875 292.577148438 47.7841796875 c 0
 313.536132812 47.7841796875 325.272460938 35.208984375 325.272460938 18.443359375 c 0
 325.272460938 7.544921875 319.404296875 -10.8984375 292.577148438 -10.8984375 c 0
 265.750976562 -10.8984375 224.671875 5.8681640625 194.493164062 9.2216796875 c 1
 196.169921875 -33.533203125 215.451171875 -98.9228515625 215.451171875 -135.809570312 c 0
 215.451171875 -167.666015625 195.331054688 -171.857421875 186.109375 -171.857421875 c 0
 175.2109375 -171.857421875 156.768554688 -164.3125 156.768554688 -138.325195312 c 0
 156.768554688 -93.8935546875 174.373046875 -40.2392578125 176.887695312 9.2216796875 c 1
 142.516601562 5.8681640625 105.62890625 -10.8984375 79.6416015625 -10.8984375 c 0
 53.6533203125 -10.8984375 46.9462890625 8.3837890625 46.9462890625 18.443359375 c 0
46.9462890625 400.72265625 m 0
 46.9462890625 410.78125 51.9765625 429.225585938 79.6416015625 429.225585938 c 0
 108.982421875 429.225585938 142.516601562 412.458007812 176.887695312 409.104492188 c 1
 175.2109375 451.860351562 156.768554688 518.088867188 156.768554688 554.974609375 c 0
 156.768554688 586.83203125 176.887695312 590.185546875 186.109375 590.185546875 c 0
 197.0078125 590.185546875 215.451171875 583.478515625 215.451171875 557.490234375 c 0
 215.451171875 513.05859375 197.0078125 458.567382812 194.493164062 409.104492188 c 1
 225.510742188 412.458007812 264.07421875 429.225585938 291.73828125 429.225585938 c 0
 318.565429688 429.225585938 325.272460938 412.458007812 325.272460938 400.72265625 c 0
 325.272460938 389.82421875 319.404296875 371.380859375 292.577148438 371.380859375 c 0
 263.236328125 371.380859375 228.864257812 388.147460938 194.493164062 391.500976562 c 1
 196.169921875 348.745117188 215.451171875 282.516601562 215.451171875 245.630859375 c 0
 215.451171875 213.774414062 195.331054688 210.420898438 186.109375 210.420898438 c 0
 175.2109375 210.420898438 156.768554688 217.127929688 156.768554688 243.116210938 c 0
 156.768554688 287.546875 174.373046875 342.0390625 176.887695312 391.500976562 c 1
 147.546875 388.985351562 106.467773438 371.380859375 78.8037109375 371.380859375 c 0
 51.9765625 371.380859375 46.9462890625 390.662109375 46.9462890625 400.72265625 c 0
EndSplineSet
Fore
SplineSet
214 256 m 25
 293 259 l 2
 319 259 326 242 326 231 c 0
 326 220 319 202 293 202 c 0
 270 202 245 212 214 218 c 1
 214 188 l 2
 214 52 204 -84 198 -152 c 0
 196 -170 196 -181 186 -181 c 0
 175 -181 176 -165 174 -152 c 0
 168 -84 157 52 157 188 c 2
 157 218 l 1
 126 212 99 202 79 202 c 0
 53 202 47 221 47 231 c 0
 47 245 56 259 79 259 c 2
 157 256 l 25
 157 348 l 1
 126 342 99 332 79 332 c 0
 53 332 47 352 47 362 c 0
 47 376 56 390 79 390 c 2
 157 388 l 25
 157 552 l 2
 157 573 170 590 186 590 c 0
 202 590 214 573 214 552 c 2
 214 388 l 25
 293 390 l 2
 319 390 326 373 326 362 c 0
 326 351 319 332 293 332 c 0
 270 332 245 342 214 348 c 1
 214 256 l 25
EndSplineSet
Validated: 1
EndChar

StartChar: endash
Encoding: 8211 8211 109
Width: 630
VWidth: 838
Flags: HMW
LayerCount: 2
Back
SplineSet
65.3896484375 336.170898438 m 1
 65.3896484375 373.056640625 l 1
 409.104492188 373.056640625 l 1
 409.104492188 336.170898438 l 1
 65.3896484375 336.170898438 l 1
65.3896484375 201.19921875 m 1
 65.3896484375 238.0859375 l 1
 409.104492188 238.0859375 l 1
 409.104492188 201.19921875 l 1
 65.3896484375 201.19921875 l 1
633.778320312 97.24609375 m 0
 633.778320312 127.426757812 648.868164062 145.870117188 678.208984375 145.870117188 c 0
 727.670898438 145.870117188 728.508789062 89.7021484375 748.62890625 59.521484375 c 0
 760.366210938 41.916015625 777.971679688 29.341796875 808.150390625 29.341796875 c 0
 850.06640625 29.341796875 880.247070312 51.1376953125 901.206054688 75.4501953125 c 0
 923.83984375 102.276367188 939.768554688 142.516601562 939.768554688 189.462890625 c 0
 939.768554688 264.913085938 902.8828125 315.211914062 849.228515625 337.84765625 c 0
 830.786132812 345.391601562 810.666015625 349.583007812 788.030273438 349.583007812 c 0
 753.659179688 349.583007812 723.478515625 338.685546875 697.491210938 316.888671875 c 1
 684.916015625 318.565429688 l 1
 728.508789062 634.616210938 l 1
 995.098632812 634.616210938 l 1
 972.462890625 559.166015625 l 1
 757.012695312 559.166015625 l 1
 736.053710938 414.134765625 l 1
 760.366210938 422.518554688 778.809570312 427.548828125 808.989257812 427.548828125 c 0
 907.913085938 427.548828125 974.139648438 377.249023438 1003.48144531 306.829101562 c 0
 1013.54199219 281.6796875 1018.57226562 254.014648438 1018.57226562 223.833984375 c 0
 1018.57226562 151.73828125 989.23046875 96.4072265625 951.505859375 58.6826171875 c 0
 913.780273438 21.796875 857.612304688 -8.3837890625 786.353515625 -8.3837890625 c 0
 720.96484375 -8.3837890625 669.826171875 15.08984375 645.514648438 55.330078125 c 0
 637.969726562 67.9052734375 633.778320312 82.15625 633.778320312 97.24609375 c 0
-162.635742188 178.564453125 m 1
 -430.901367188 178.564453125 l 1
 -437.608398438 192.81640625 l 1
 -99.7607421875 653.8984375 l 1
 -77.96484375 645.514648438 l 1
 -77.96484375 242.27734375 l 1
 0 242.27734375 l 1
 0 178.564453125 l 1
 -77.96484375 178.564453125 l 1
 -77.96484375 35.208984375 l 1
 -3.353515625 19.2822265625 l 1
 -3.353515625 0 l 1
 -263.236328125 0 l 1
 -263.236328125 19.2822265625 l 1
 -162.635742188 35.208984375 l 1
 -162.635742188 178.564453125 l 1
-166.827148438 487.0703125 m 1
 -170.180664062 487.0703125 l 1
 -343.715820312 245.630859375 l 1
 -342.877929688 242.27734375 l 1
 -166.827148438 242.27734375 l 1
 -166.827148438 487.0703125 l 1
EndSplineSet
Fore
SplineSet
64 264 m 5
 64 314 l 5
 566 314 l 5
 566 264 l 5
 64 264 l 5
EndSplineSet
Validated: 1
EndChar

StartChar: emdash
Encoding: 8212 8212 110
Width: 900
VWidth: 838
Flags: HMW
LayerCount: 2
Fore
SplineSet
64 186 m 5
 64 237 l 5
 836 237 l 5
 836 186 l 5
 64 186 l 5
EndSplineSet
Validated: 1
EndChar

StartChar: asterisk
Encoding: 42 42 111
Width: 406
VWidth: 838
Flags: HMW
LayerCount: 2
Back
SplineSet
352.098632812 407.4296875 m 0
 352.098632812 387.374023438 337.737304688 374.733398438 317.727539062 374.733398438 c 0
 298.569335938 374.733398438 286.997070312 386.129882812 276.649414062 396.950195312 c 0
 263.416015625 410.786132812 250.374023438 426.771484375 234.732421875 439.28515625 c 2
 212.936523438 456.051757812 l 1
 217.130859375 427.548828125 l 2
 219.924804688 408.546875 223.697265625 391.779296875 228.447265625 377.249023438 c 0
 233.198242188 362.717773438 235.573242188 349.864257812 235.573242188 338.686523438 c 0
 235.573242188 319.353515625 224.23828125 305.153320312 204.555664062 305.153320312 c 0
 183.672851562 305.153320312 172.698242188 320.713867188 172.698242188 342.040039062 c 0
 172.698242188 354.3359375 175.353515625 367.749023438 180.662109375 382.279296875 c 0
 185.971679688 396.810546875 189.744140625 412.1796875 191.98046875 428.38671875 c 2
 195.333984375 456.051757812 l 1
 171.860351562 438.447265625 l 1
 149.744140625 420.75390625 134.342773438 395.3515625 111.081054688 380.182617188 c 0
 104.654296875 375.991210938 97.2490234375 373.895507812 88.8662109375 373.895507812 c 0
 68.5849609375 373.895507812 54.494140625 386.831054688 54.494140625 406.588867188 c 0
 54.494140625 427.692382812 71.7041015625 434.4765625 89.28515625 439.704101562 c 0
 112.774414062 446.688476562 138.87890625 451.044921875 160.962890625 461.08203125 c 2
 185.2734375 471.979492188 l 1
 159.286132812 482.877929688 l 2
 129.720703125 494.97265625 87.666015625 496.084960938 64.1337890625 513.477539062 c 0
 57.7060546875 518.227539062 54.4931640625 525.633789062 54.4931640625 535.692382812 c 0
 54.4931640625 555.8828125 67.8408203125 569.2265625 88.865234375 569.2265625 c 0
 107.994140625 569.2265625 118.741210938 557.845703125 129.103515625 547.010742188 c 0
 142.912109375 532.57421875 155.192382812 516.192382812 172.696289062 503.836914062 c 2
 194.493164062 487.908203125 l 1
 191.140625 516.412109375 l 2
 188.904296875 534.854492188 185.131835938 550.084960938 179.822265625 562.100585938 c 0
 174.513671875 574.116210938 171.858398438 586.83203125 171.858398438 600.244140625 c 0
 171.858398438 623.474609375 182.643554688 638.80859375 203.715820312 638.80859375 c 0
 224.025390625 638.80859375 234.733398438 622.962890625 234.733398438 600.244140625 c 0
 234.733398438 585.676757812 229.541015625 573.959960938 225.931640625 562.100585938 c 0
 221.55078125 547.704101562 216.499023438 533.5625 215.452148438 514.735351562 c 2
 212.9375 487.908203125 l 1
 233.89453125 504.674804688 l 2
 252.451171875 519.32421875 264.919921875 534.58203125 279.584960938 549.944335938 c 0
 289.475585938 560.305664062 299.583984375 570.063476562 317.728515625 570.063476562 c 0
 339.099609375 570.063476562 352.099609375 556.541992188 352.099609375 536.529296875 c 0
 352.099609375 514.827148438 335.615234375 507.965820312 317.728515625 502.997070312 c 0
 294.76953125 496.620117188 269.296875 492.7109375 247.307617188 483.71484375 c 2
 221.318359375 472.81640625 l 1
 245.630859375 461.918945312 l 2
 269.015625 451.201171875 293.931640625 446.965820312 318.565429688 440.124023438 c 0
 336.061523438 435.264648438 352.098632812 428.325195312 352.098632812 407.4296875 c 0
EndSplineSet
Fore
SplineSet
185 472 m 1
 89 502 l 2
 71 507 55 513 55 535 c 0
 55 555 68 570 89 570 c 0
 108 570 117 559 127 549 c 2
 194 488 l 1
 172 601 l 3
 172 625 183 639 204 639 c 3
 224 639 235 624 235 601 c 0
 213 488 l 1
 280 550 l 2
 290 560 298 570 317 570 c 0
 338 570 352 556 352 536 c 0
 352 514 335 508 317 503 c 2
 221 472 l 1
 318 440 l 2
 335 434 352 428 352 407 c 0
 352 387 337 375 317 375 c 0
 297 375 290 385 277 397 c 2
 213 456 l 1
 236 339 l 0
 236 319 225 305 205 305 c 3
 184 305 173 321 173 342 c 0
 195 456 l 1
 130 396 l 2
 117 384 109 374 89 374 c 0
 69 374 55 386 55 406 c 0
 55 427 71 433 88 439 c 2
 185 472 l 1
EndSplineSet
Validated: 1
EndChar

StartChar: hyphen
Encoding: 45 45 112
Width: 392
VWidth: 838
Flags: HMW
LayerCount: 2
Fore
SplineSet
63 176 m 5
 63 246 l 5
 331 246 l 5
 331 176 l 5
 63 176 l 5
EndSplineSet
Validated: 1
EndChar

StartChar: slash
Encoding: 47 47 113
Width: 300
VWidth: 838
Flags: HMW
LayerCount: 2
Fore
SplineSet
37 -142 m 5
 206 686 l 5
 264 686 l 5
 95 -142 l 5
 37 -142 l 5
EndSplineSet
Validated: 1
EndChar

StartChar: parenright
Encoding: 41 41 114
Width: 266
VWidth: 838
Flags: HMW
LayerCount: 2
Fore
SplineSet
41 -157 m 1
 105 -54 149 83 149 255 c 0
 149 349 129 441 106 514 c 0
 86 577 60 644 31 687 c 1
 40 696 l 1
 89 656 133 588 163 522 c 0
 196 450 225 356 225 255 c 0
 225 150 201 63 167 -8 c 0
 137 -71 97 -124 55 -167 c 1
 41 -157 l 1
EndSplineSet
Validated: 1
EndChar

StartChar: parenleft
Encoding: 40 40 115
Width: 267
VWidth: 838
Flags: HMW
LayerCount: 2
Fore
SplineSet
119 255 m 0
 119 83 162 -54 226 -157 c 1
 213 -167 l 1
 118 -70 41 61 41 255 c 0
 41 356 71 451 104 523 c 0
 134 589 178 656 227 696 c 1
 237 687 l 1
 208 644 181 577 161 515 c 0
 138 442 119 349 119 255 c 0
EndSplineSet
Validated: 1
EndChar

StartChar: cent
Encoding: 162 162 116
Width: 461
VWidth: 838
Flags: W
HStem: -6 59<189 237 272 336.803> 395 57<174.354 237 272 318.942>
VStem: 37 86<127.376 323.01> 237 35<-109 -8 56 395 451.481 562> 324 87<313.541 391.578>
LayerCount: 2
Back
SplineSet
271.619140625 452.69921875 m 5
 293.415039062 452.139648438 313.815429688 449.20703125 332.818359375 443.897460938 c 4
 351.8203125 438.588867188 368.16796875 431.462890625 381.860351562 422.51953125 c 4
 395.552734375 413.578125 406.310546875 403.239257812 414.134765625 391.501953125 c 4
 421.959960938 379.765625 425.872070312 367.190429688 425.872070312 353.776367188 c 4
 425.872070312 339.24609375 422.518554688 327.649414062 415.811523438 318.987304688 c 4
 409.104492188 310.325195312 399.604492188 305.993164062 387.30859375 305.993164062 c 4
 372.778320312 305.993164062 361.600585938 310.325195312 353.776367188 318.987304688 c 4
 345.952148438 327.649414062 340.643554688 340.922851562 337.849609375 358.806640625 c 4
 334.49609375 380.043945312 327.370117188 395.83203125 316.471679688 406.172851562 c 4
 305.573242188 416.51171875 290.623046875 422.798828125 271.62109375 425.034179688 c 5
 271.62109375 52.8154296875 l 5
 297.888671875 52.8154296875 322.060546875 57.845703125 344.135742188 67.9052734375 c 4
 366.211914062 77.9658203125 384.794921875 93.3349609375 399.884765625 114.013671875 c 6
 409.10546875 126.588867188 l 5
 425.034179688 118.205078125 l 5
 420.842773438 107.306640625 l 6
 407.98828125 73.7744140625 388.708007812 47.2265625 362.998046875 27.666015625 c 4
 337.2890625 8.10546875 306.830078125 -3.3525390625 271.620117188 -6.7060546875 c 5
 271.620117188 -108.982421875 l 5
 236.41015625 -108.982421875 l 5
 236.41015625 -7.5439453125 l 5
 207.907226562 -5.8671875 181.778320312 0.69921875 158.025390625 12.1572265625 c 4
 134.274414062 23.61328125 114.013671875 39.123046875 97.2470703125 58.68359375 c 4
 80.48046875 78.2451171875 67.345703125 101.438476562 57.845703125 128.265625 c 4
 48.3447265625 155.092773438 43.59375 184.43359375 43.59375 216.291015625 c 4
 43.59375 248.146484375 48.2041015625 277.627929688 57.4267578125 304.733398438 c 4
 66.6484375 331.83984375 79.7822265625 355.591796875 96.8271484375 375.991210938 c 4
 113.874023438 396.390625 134.2734375 413.157226562 158.024414062 426.291015625 c 4
 181.77734375 439.42578125 207.90625 447.668945312 236.409179688 451.022460938 c 5
 236.409179688 561.681640625 l 5
 271.619140625 561.681640625 l 5
 271.619140625 452.69921875 l 5
129.103515625 233.057617188 m 4
 129.103515625 183.875 138.325195312 144.194335938 156.768554688 114.013671875 c 4
 175.2109375 83.833984375 201.7578125 64.8310546875 236.409179688 57.0068359375 c 5
 236.409179688 424.196289062 l 5
 221.877929688 421.40234375 208.185546875 414.8359375 195.33203125 404.497070312 c 4
 182.477539062 394.15625 171.16015625 380.744140625 161.37890625 364.255859375 c 4
 151.598632812 347.76953125 143.774414062 328.487304688 137.90625 306.411132812 c 4
 132.038085938 284.3359375 129.103515625 259.883789062 129.103515625 233.057617188 c 4
EndSplineSet
Fore
SplineSet
411 354 m 0
 411 327 399 306 373 306 c 0
 344 306 328 324 324 359 c 0
 321 392 301 395 272 396 c 1
 272 53 l 1
 328 54 369 79 394 114 c 2
 403 126 l 1
 420 118 l 1
 415 108 l 2
 392 48 344 4 272 -6 c 1
 272 -109 l 1
 237 -109 l 1
 237 -8 l 1
 117 -5 37 89 37 216 c 0
 37 346 118 441 237 452 c 1
 237 562 l 1
 272 562 l 1
 272 453 l 1
 339 449 411 413 411 354 c 0
237 395 m 1
 150 387 123 330 123 233 c 0
 123 140 159 70 237 56 c 1
 237 395 l 1
EndSplineSet
Validated: 1
EndChar

StartChar: sterling
Encoding: 163 163 117
Width: 567
VWidth: 838
Flags: W
HStem: -8 81<285.461 449.436> -7 36<72.5392 137.604> 87 37<74.5143 156.485> 270 37<109 202 308 459> 589.012 60.9877<359.614 427.857>
VStem: 27 44<29.5813 83.0058> 479 29<111.421 136>
LayerCount: 2
Fore
SplineSet
27 51 m 0x7e
 27 98 69 124 118 124 c 0
 134 124 151 122 171 117 c 1
 183 167 193 212 202 270 c 1
 109 270 l 1
 109 307 l 1
 209 307 l 1
 228 405 l 2
 245 489 269 551 300 590 c 0
 331 629 370 650 418 650 c 0
 467 650 520 629 520 586 c 0
 520 558 498 538 471 538 c 0
 445 538 434 556 425 574 c 0
 418.777777778 588.222222222 412.555555556 589.012345679 395.798353909 589.012345679 c 0
 376.037199921 589.012345679 364.171924615 583.515773846 357 562 c 0
 340 502 330 442 317 361 c 2
 308 307 l 1
 459 307 l 1
 459 270 l 1
 301 270 l 1
 285 204 270 150 245 97 c 1
 280 81 319 73 361 73 c 0
 427 73 467 94 479 136 c 1
 508 136 l 1
 508 45 463 -8 373 -8 c 0xbe
 326 -8 296 6 264 26 c 0
 252 33 236 44 220 56 c 1
 191 23 153 -7 100 -7 c 0
 59 -7 27 12 27 51 c 0x7e
71 55 m 0
 71 39 82 29 99 29 c 0x7e
 128 29 148 53 157 78 c 1
 145 84 135 87 118 87 c 0
 92 87 71 80 71 55 c 0
EndSplineSet
Validated: 1
EndChar

StartChar: currency
Encoding: 164 164 118
Width: 531
VWidth: 838
Flags: W
HStem: 127 54<197.21 334.816> 434 54<196.853 335.482>
VStem: 86 58<235.09 380.407> 388 58<235.101 380.927>
LayerCount: 2
Back
SplineSet
104.791015625 106.467773438 m 5
 64.5517578125 146.70703125 l 5
 120.719726562 202.037109375 l 5
 97.24609375 230.540039062 85.509765625 266.029296875 85.509765625 308.504882812 c 4
 85.509765625 348.744140625 97.24609375 383.955078125 120.719726562 414.133789062 c 5
 64.5517578125 468.626953125 l 5
 104.791015625 508.866210938 l 5
 160.12109375 452.698242188 l 5
 189.741210938 476.170898438 224.952148438 487.907226562 265.750976562 487.907226562 c 4
 304.313476562 487.907226562 339.802734375 476.450195312 372.21875 453.536132812 c 5
 426.709960938 508.866210938 l 5
 466.950195312 468.626953125 l 5
 410.78125 413.295898438 l 5
 434.254882812 383.67578125 445.9921875 348.744140625 445.9921875 308.504882812 c 4
 445.9921875 268.82421875 434.534179688 233.3359375 411.620117188 202.038085938 c 5
 466.950195312 146.708007812 l 5
 426.709960938 106.467773438 l 5
 371.380859375 162.635742188 l 5
 341.759765625 139.163085938 306.549804688 127.426757812 265.750976562 127.426757812 c 4
 225.510742188 127.426757812 190.30078125 139.163085938 160.12109375 162.635742188 c 5
 104.791015625 106.467773438 l 5
265.750976562 181.078125 m 4
 282.516601562 181.078125 298.166992188 184.431640625 312.697265625 191.138671875 c 4
 327.228515625 197.845703125 340.08203125 206.926757812 351.259765625 218.383789062 c 4
 362.4375 229.841796875 371.239257812 243.254882812 377.666992188 258.624023438 c 4
 384.094726562 273.993164062 387.30859375 290.340820312 387.30859375 307.666015625 c 4
 387.30859375 324.9921875 384.094726562 341.33984375 377.666992188 356.708984375 c 4
 371.239257812 372.078125 362.4375 385.491210938 351.259765625 396.94921875 c 4
 340.08203125 408.40625 327.228515625 417.487304688 312.697265625 424.194335938 c 4
 298.166992188 430.901367188 282.516601562 434.254882812 265.750976562 434.254882812 c 4
 248.984375 434.254882812 233.3359375 430.901367188 218.8046875 424.194335938 c 4
 204.2734375 417.487304688 191.418945312 408.40625 180.2421875 396.94921875 c 4
 169.064453125 385.491210938 160.26171875 372.217773438 153.834960938 357.127929688 c 4
 147.407226562 342.0390625 144.194335938 325.830078125 144.194335938 308.504882812 c 4
 144.194335938 291.1796875 147.407226562 274.83203125 153.834960938 259.462890625 c 4
 160.26171875 244.09375 169.064453125 230.540039062 180.2421875 218.802734375 c 4
 191.418945312 207.067382812 204.2734375 197.845703125 218.8046875 191.138671875 c 4
 233.3359375 184.431640625 248.984375 181.078125 265.750976562 181.078125 c 4
EndSplineSet
Fore
SplineSet
104 106 m 1
 64 147 l 1
 121 202 l 1
 97 231 86 266 86 308 c 3
 86 348 97 385 121 415 c 1
 64 468 l 1
 104 509 l 1
 160 453 l 1
 189 477 225 488 266 488 c 3
 304 488 339 477 372 454 c 1
 427 509 l 1
 467 468 l 1
 410 413 l 1
 434 384 446 348 446 308 c 3
 446 269 434 233 411 202 c 1
 467 147 l 1
 427 106 l 1
 371 162 l 1
 342 138 307 127 266 127 c 3
 226 127 190 138 160 162 c 1
 104 106 l 1
266 181 m 3
 336 181 388 238 388 308 c 3
 388 378 336 434 266 434 c 3
 196 434 144 377 144 308 c 3
 144 238 196 181 266 181 c 3
EndSplineSet
Validated: 1
EndChar

StartChar: yen
Encoding: 165 165 119
Width: 631
VWidth: 838
Flags: W
HStem: 0 20<153 188 356 391> 175 37<88 228 316 450> 277 36<88 212 331 450> 626 19<29 70.2873 223.609 262 332 378.711 482.754 518>
VStem: 228 88<35 175 212 277>
LayerCount: 2
Back
SplineSet
88.025390625 313.536132812 m 5
 212.09765625 313.537109375 l 5
 99.759765625 575.096679688 l 6
 95.2900390625 585.15625 91.09765625 593.260742188 87.185546875 599.407226562 c 4
 83.2734375 605.555664062 78.662109375 610.4453125 73.353515625 614.078125 c 4
 68.0439453125 617.7109375 61.896484375 620.365234375 54.91015625 622.041992188 c 4
 47.9248046875 623.71875 39.1220703125 625.116210938 28.50390625 626.233398438 c 5
 28.50390625 645.515625 l 5
 261.559570312 645.515625 l 5
 261.559570312 626.233398438 l 5
 240.322265625 622.321289062 225.091796875 617.850585938 215.870117188 612.8203125 c 4
 206.6484375 607.790039062 202.038085938 600.525390625 202.038085938 591.024414062 c 4
 202.038085938 583.19921875 204.552734375 573.418945312 209.583007812 561.682617188 c 6
 300.9609375 339.525390625 l 5
 304.313476562 339.525390625 l 5
 395.692382812 562.520507812 l 6
 399.045898438 571.463867188 400.72265625 579.567382812 400.72265625 586.833007812 c 4
 400.72265625 598.010742188 395.551757812 606.672851562 385.212890625 612.8203125 c 4
 374.874023438 618.967773438 357.12890625 623.439453125 331.979492188 626.233398438 c 5
 331.979492188 645.514648438 l 5
 518.088867188 645.514648438 l 5
 518.088867188 626.233398438 l 5
 504.674804688 623.439453125 493.498046875 620.504882812 484.5546875 617.430664062 c 4
 475.61328125 614.356445312 467.7890625 609.60546875 461.08203125 603.177734375 c 4
 454.375 596.750976562 447.947265625 587.948242188 441.80078125 576.770507812 c 4
 435.653320312 565.59375 428.946289062 551.0625 421.6796875 533.177734375 c 6
 331.140625 313.536132812 l 5
 449.345703125 313.536132812 l 5
 449.345703125 276.649414062 l 5
 316.05078125 276.649414062 l 5
 316.05078125 212.09765625 l 5
 449.345703125 212.09765625 l 5
 449.345703125 175.2109375 l 5
 316.05078125 175.2109375 l 5
 316.05078125 35.208984375 l 5
 390.662109375 19.2822265625 l 5
 390.662109375 0 l 5
 152.576171875 0 l 5
 152.576171875 19.2822265625 l 5
 228.025390625 35.208984375 l 5
 228.025390625 175.2109375 l 5
 88.025390625 175.2109375 l 5
 88.025390625 212.09765625 l 5
 228.025390625 212.09765625 l 5
 228.025390625 276.649414062 l 5
 88.025390625 276.649414062 l 5
 88.025390625 313.536132812 l 5
EndSplineSet
Fore
SplineSet
389 606 m 3
 389 617 367 622 332 626 c 1
 332 645 l 1
 518 645 l 1
 518 626 l 1
 493 621 477 617 461 603 c 0
 442 586 433 562 422 533 c 2
 331 313 l 1
 450 313 l 1
 450 277 l 1
 316 277 l 1
 316 212 l 1
 450 212 l 1
 450 175 l 1
 316 175 l 1
 316 35 l 1
 391 20 l 1
 391 0 l 1
 153 0 l 1
 153 20 l 1
 228 35 l 1
 228 175 l 1
 88 175 l 1
 88 212 l 1
 228 212 l 1
 228 277 l 1
 88 277 l 1
 88 313 l 1
 212 313 l 1
 100 575 l 2
 90 599 81 616 56 622 c 0
 49 624 40 625 29 626 c 1
 29 645 l 1
 262 645 l 1
 262 626 l 1
 241 622 224 618 216 613 c 0
 206 608 202 600 202 591 c 0
 202 584 205 572 210 561 c 2
 290 366 l 1
 294 366 l 1
 385 588 l 2
 388 597 389 599 389 606 c 3
EndSplineSet
Validated: 1
EndChar

StartChar: section
Encoding: 167 167 120
Width: 838
VWidth: 0
Flags: W
HStem: -132 52<147.67 303.168> 643 53<146.93 301.392>
VStem: 54 77<250.494 347.946> 58 66<-56.7085 3.39807 522.685 619.519> 331 65<-54.726 50.9255 214.861 309.714>
LayerCount: 2
Back
SplineSet
239.762695312 695.814453125 m 4
 262.119140625 695.814453125 282.798828125 693.71875 301.80078125 689.52734375 c 4
 320.8046875 685.334960938 337.291015625 679.466796875 351.264648438 671.921875 c 4
 365.236328125 664.376953125 375.994140625 655.294921875 383.540039062 644.676757812 c 4
 391.084960938 634.056640625 394.857421875 622.599609375 394.857421875 610.303710938 c 4
 394.857421875 597.44921875 391.084960938 586.831054688 383.540039062 578.447265625 c 4
 375.994140625 570.064453125 365.794921875 565.872070312 352.940429688 565.872070312 c 4
 340.0859375 565.872070312 330.724609375 570.483398438 324.856445312 579.705078125 c 4
 318.98828125 588.926757812 312.700195312 601.919921875 305.994140625 618.6875 c 4
 302.08203125 628.1875 298.029296875 636.15234375 293.837890625 642.580078125 c 4
 289.647460938 649.006835938 284.755859375 654.176757812 279.16796875 658.08984375 c 4
 273.578125 662.001953125 266.87109375 664.795898438 259.047851562 666.47265625 c 4
 251.223632812 668.149414062 242.001953125 668.987304688 231.381835938 668.987304688 c 4
 197.290039062 668.987304688 170.8828125 661.442382812 152.16015625 646.353515625 c 4
 133.438476562 631.262695312 124.076171875 609.74609375 124.076171875 581.801757812 c 4
 124.076171875 557.768554688 130.922851562 538.208007812 144.615234375 523.119140625 c 4
 158.307617188 508.028320312 175.353515625 495.034179688 195.752929688 484.135742188 c 4
 216.151367188 473.237304688 238.227539062 463.038085938 261.98046875 453.537109375 c 4
 285.732421875 444.036132812 307.80859375 432.71875 328.20703125 419.583984375 c 4
 348.606445312 406.450195312 365.65234375 390.243164062 379.344726562 370.9609375 c 4
 393.037109375 351.6796875 399.883789062 326.94921875 399.883789062 296.768554688 c 4
 399.883789062 265.471679688 392.478515625 237.806640625 377.66796875 213.774414062 c 4
 362.857421875 189.741210938 342.318359375 171.01953125 316.05078125 157.60546875 c 5
 338.40625 143.633789062 357.268554688 126.30859375 372.637695312 105.62890625 c 4
 388.006835938 84.9501953125 395.692382812 57.564453125 395.692382812 23.4716796875 c 4
 395.692382812 -25.15234375 379.344726562 -63.2958984375 346.649414062 -90.9609375 c 4
 313.955078125 -118.625 268.82421875 -132.458007812 211.259765625 -132.458007812 c 4
 188.345703125 -132.458007812 167.247070312 -130.221679688 147.965820312 -125.750976562 c 4
 128.68359375 -121.280273438 112.057617188 -114.852539062 98.083984375 -106.469726562 c 4
 84.1123046875 -98.0859375 73.2138671875 -88.166015625 65.3896484375 -76.708984375 c 4
 57.5654296875 -65.2509765625 53.6533203125 -52.81640625 53.6533203125 -39.40234375 c 4
 53.6533203125 -25.990234375 57.42578125 -15.091796875 64.970703125 -6.7080078125 c 4
 72.515625 1.6748046875 82.71484375 5.8671875 95.5693359375 5.8671875 c 4
 107.865234375 5.8671875 116.947265625 1.53515625 122.815429688 -7.1279296875 c 4
 128.68359375 -15.7900390625 134.971679688 -29.0625 141.677734375 -46.947265625 c 4
 145.03125 -55.330078125 148.6640625 -63.154296875 152.576171875 -70.4208984375 c 4
 156.48828125 -77.685546875 161.377929688 -83.9736328125 167.247070312 -89.283203125 c 4
 173.115234375 -94.5927734375 180.66015625 -98.6435546875 189.881835938 -101.4375 c 4
 199.103515625 -104.232421875 210.700195312 -105.62890625 224.671875 -105.62890625 c 4
 258.206054688 -105.62890625 284.333984375 -97.38671875 303.056640625 -80.8994140625 c 4
 321.778320312 -64.4111328125 331.140625 -41.63671875 331.140625 -12.57421875 c 4
 331.140625 13.1357421875 324.293945312 33.953125 310.6015625 49.880859375 c 4
 296.909179688 65.8095703125 279.72265625 79.501953125 259.043945312 90.9599609375 c 4
 238.365234375 102.416992188 216.149414062 112.896484375 192.396484375 122.397460938 c 4
 168.64453125 131.897460938 146.428710938 142.936523438 125.75 155.51171875 c 4
 105.071289062 168.0859375 87.884765625 183.455078125 74.1923828125 201.619140625 c 4
 60.5 219.783203125 53.6533203125 243.397460938 53.6533203125 272.458984375 c 4
 53.6533203125 304.875 62.875 332.819335938 81.318359375 356.291992188 c 4
 99.7607421875 379.765625 125.470703125 397.090820312 158.444335938 408.26953125 c 5
 145.03125 415.534179688 132.177734375 423.499023438 119.880859375 432.161132812 c 4
 107.5859375 440.823242188 96.8271484375 450.744140625 87.60546875 461.920898438 c 4
 78.3837890625 473.098632812 71.1181640625 485.953125 65.80859375 500.483398438 c 4
 60.5 515.013671875 57.8447265625 531.501953125 57.8447265625 549.944335938 c 4
 57.8447265625 595.213867188 73.9140625 630.84375 106.048828125 656.833007812 c 4
 138.184570312 682.8203125 182.755859375 695.814453125 239.762695312 695.814453125 c 4
335.333984375 262.397460938 m 4
 335.333984375 279.165039062 331.420898438 293.696289062 323.59765625 305.991210938 c 4
 315.7734375 318.288085938 305.154296875 329.46484375 291.740234375 339.525390625 c 4
 278.328125 349.583984375 263.09765625 358.666992188 246.051757812 366.770507812 c 4
 229.005859375 374.875 211.26171875 383.118164062 192.817382812 391.500976562 c 5
 171.020507812 385.354492188 153.416992188 374.315429688 140.002929688 358.38671875 c 4
 126.58984375 342.458984375 119.8828125 323.875 119.8828125 302.637695312 c 4
 119.8828125 284.194335938 124.772460938 268.825195312 134.553710938 256.530273438 c 4
 144.333984375 244.233398438 157.049804688 233.475585938 172.698242188 224.25390625 c 4
 188.34765625 215.033203125 205.8125 206.7890625 225.09375 199.5234375 c 4
 244.375976562 192.2578125 263.517578125 184.154296875 282.520507812 175.2109375 c 5
 298.727539062 184.154296875 311.58203125 196.169921875 321.08203125 211.259765625 c 4
 330.583007812 226.348632812 335.333984375 243.39453125 335.333984375 262.397460938 c 4
EndSplineSet
Fore
SplineSet
58 550 m 3xd8
 58 649 136 696 240 696 c 3
 301 696 359 680 384 645 c 0
 391 634 395 622 395 610 c 0
 395 585 378 565 352 565 c 3
 295 565 346 643 232 643 c 3
 169 643 124 619 124 582 c 3xd8
 124 557 132 539 145 523 c 0
 189 473 271 457 329 420 c 0
 367 395 400 360 400 297 c 3
 400 229 364 182 316 157 c 1
 339 143 356 126 372 105 c 0
 388 84 396 58 396 24 c 3
 396 -79 319 -132 211 -132 c 3
 147 -132 91 -115 65 -78 c 0
 58 -67 54 -52 54 -39 c 0
 54 -13 69 6 95 6 c 0
 107 6 116 1 122 -7 c 0
 151 -49 127 -80 224 -80 c 3
 287 -80 331 -52 331 -12 c 3
 331 14 323 35 310 51 c 0
 266 102 186 120 126 156 c 0
 88 180 54 212 54 273 c 3xe8
 54 346 100 388 158 408 c 1
 107 436 58 471 58 550 c 3xd8
277 186 m 1
 303 200 325 228 325 265 c 3
 325 298 306 318 285 334 c 0
 260 354 227 366 196 380 c 1
 162 370 131 343 131 301 c 3xe8
 131 264 154 245 179 231 c 0
 208 213 244 202 277 186 c 1
EndSplineSet
Validated: 1
EndChar

StartChar: brokenbar
Encoding: 166 166 121
Width: 230
VWidth: 838
Flags: W
VStem: 87 57<-144 181 362 686>
LayerCount: 2
Fore
SplineSet
87 362 m 1
 87 686 l 1
 144 686 l 1
 144 362 l 1
 87 362 l 1
87 -144 m 1
 87 181 l 1
 144 181 l 1
 144 -144 l 1
 87 -144 l 1
EndSplineSet
Validated: 1
EndChar

StartChar: uni00AD
Encoding: 173 173 122
Width: 389
VWidth: 838
Flags: W
HStem: 176 70<61 329>
VStem: 61 268<176 246>
LayerCount: 2
Fore
SplineSet
61 176 m 5
 61 246 l 5
 329 246 l 5
 329 176 l 5
 61 176 l 5
EndSplineSet
Validated: 1
EndChar

StartChar: logicalnot
Encoding: 172 172 123
Width: 478
VWidth: 838
Flags: W
HStem: 221 37<70 371>
VStem: 371 44<123 221>
LayerCount: 2
Fore
SplineSet
371 221 m 5
 70 221 l 5
 70 258 l 5
 415 258 l 5
 415 123 l 5
 371 123 l 5
 371 221 l 5
EndSplineSet
Validated: 1
EndChar

StartChar: paragraph
Encoding: 182 182 124
Width: 487
VWidth: 838
Flags: W
HStem: 599 46<285 335> 624 21<413 439>
VStem: 26 259<375.463 556.266> 234 51<-91 285> 335 52<-91 599>
LayerCount: 2
Back
SplineSet
246.46875 -90.5400390625 m 5
 246.46875 285.029296875 l 5
 199.522460938 285.029296875 l 6
 172.696289062 285.029296875 148.6640625 289.78125 127.426757812 299.28125 c 4
 106.188476562 308.782226562 88.025390625 321.776367188 72.9345703125 338.264648438 c 4
 57.8447265625 354.751953125 46.248046875 373.75390625 38.1435546875 395.271484375 c 4
 30.0400390625 416.7890625 25.98828125 439.842773438 25.98828125 464.43359375 c 4
 25.98828125 491.819335938 30.458984375 516.690429688 39.4013671875 539.045898438 c 4
 48.34375 561.40234375 61.1982421875 580.404296875 77.96484375 596.053710938 c 4
 94.73046875 611.702148438 115.129882812 623.858398438 139.163085938 632.520507812 c 4
 163.1953125 641.182617188 190.30078125 645.514648438 220.48046875 645.514648438 c 6
 439.28515625 645.514648438 l 5
 439.28515625 624.556640625 l 5
 373.895507812 610.3046875 l 5
 373.895507812 -90.5400390625 l 5
 335.333007812 -90.5400390625 l 5
 335.333007812 611.981445312 l 5
 285.032226562 611.981445312 l 5
 285.032226562 -90.5400390625 l 5
 246.46875 -90.5400390625 l 5
EndSplineSet
Fore
SplineSet
234 -91 m 1x98
 234 285 l 1x98
 200 285 l 2
 115 285 61 334 38 395 c 0
 30 417 26 439 26 464 c 0
 26 554 73 608 140 632 c 0
 165 641 190 645 220 645 c 2
 439 645 l 1
 439 624 l 1x68
 387 610 l 1
 387 -91 l 1
 335 -91 l 1
 335 599 l 1
 285 599 l 1
 285 -91 l 1
 234 -91 l 1x98
EndSplineSet
Validated: 1
EndChar

StartChar: cedilla
Encoding: 184 184 125
Width: 192
VWidth: 838
Flags: W
HStem: -215 31<17.638 110.803> -104 55<88 119.556>
VStem: 122 62<-175.873 -107.413>
LayerCount: 2
Fore
SplineSet
184 -131 m 0
 184 -187 133 -215 73 -215 c 0
 47 -215 22 -206 8 -195 c 1
 20 -171 l 1
 36 -180 45 -184 67 -184 c 0
 97 -184 122 -170 122 -141 c 0
 122 -116 109 -104 82 -104 c 0
 68 -104 52 -108 38 -112 c 1
 31 -104 l 1
 82 14 l 1
 113 14 l 1
 88 -49 l 1
 143 -49 184 -79 184 -131 c 0
EndSplineSet
Validated: 1
EndChar

StartChar: guillemotleft
Encoding: 171 171 126
Width: 364
VWidth: 838
Flags: W
HStem: 44 322
VStem: 49 255
LayerCount: 2
Fore
SplineSet
165 44 m 1
 49 197 l 1
 49 214 l 1
 163 366 l 1
 174 362 l 1
 118 207 l 1
 175 51 l 1
 165 44 l 1
296 44 m 1
 180 197 l 1
 180 214 l 1
 295 366 l 1
 304 362 l 1
 249 207 l 1
 306 51 l 1
 296 44 l 1
EndSplineSet
Validated: 1
EndChar

StartChar: exclamdown
Encoding: 161 161 127
Width: 251
VWidth: 838
Flags: W
HStem: -8 21G<109.5 142.5> 433 20G<105.5 146.5> 545 109<81.5369 169.845>
VStem: 74 102<1.91406 269.497 552.858 645.831>
LayerCount: 2
Fore
SplineSet
126 -8 m 3
 93 -8 74 18 74 50 c 3
 74 61 77 80 80 109 c 0
 92 215 102 335 109 453 c 1
 143 453 l 1
 150 335 159 212 171 106 c 0
 174 77 176 58 176 47 c 3
 176 15 159 -8 126 -8 c 3
125 654 m 3
 158 654 180 632 180 601 c 3
 180 568 158 545 125 545 c 3
 92 545 71 569 71 601 c 3
 71 631 94 654 125 654 c 3
EndSplineSet
Validated: 1
EndChar

StartChar: mu
Encoding: 181 181 128
Width: 500
VWidth: 838
Flags: W
HStem: -8 45<184.827 292.171> 424 20G<88 167 344 424>
VStem: 88 79<54.6397 444> 88 52<-146 4> 344 80<86.869 444>
LayerCount: 2
Back
SplineSet
354.61328125 -8.3837890625 m 5
 348.745117188 -8.3837890625 l 5
 348.745117188 50.2998046875 l 5
 345.391601562 51.1376953125 l 5
 311.859375 9.2216796875 263.236328125 -8.3837890625 195.331054688 -8.3837890625 c 4
 133.294921875 -8.3837890625 95.5693359375 24.3115234375 89.7021484375 81.318359375 c 4
 88.025390625 100.599609375 88.025390625 119.04296875 88.025390625 141.677734375 c 6
 88.025390625 414.973632812 l 5
 25.150390625 427.548828125 l 5
 25.150390625 444.315429688 l 5
 167.666015625 444.315429688 l 5
 167.666015625 161.797851562 l 6
 167.666015625 90.5400390625 168.50390625 36.8857421875 236.409179688 36.8857421875 c 4
 284.193359375 36.8857421875 319.404296875 82.9951171875 343.715820312 113.174804688 c 5
 343.715820312 314.374023438 l 4
 343.715820312 414.973632812 l 5
 280.840820312 427.548828125 l 5
 280.840820312 444.315429688 l 5
 423.356445312 444.315429688 l 5
 423.356445312 62.875 l 5
 487.0703125 43.5927734375 l 5
 487.0703125 31.857421875 l 5
 409.104492188 16.7666015625 386.470703125 7.544921875 354.61328125 -8.3837890625 c 5
EndSplineSet
Fore
SplineSet
91 -146 m 25xd8
 88 142 l 2
 88 444 l 1
 167 444 l 1
 167 162 l 2xe8
 167 91 169 37 237 37 c 0
 285 37 319 83 344 113 c 1
 344 314 l 1
 344 444 l 1
 424 444 l 1
 424 63 l 1
 487 43 l 1
 487 32 l 1
 409 16 387 8 355 -8 c 1
 348 -8 l 1
 348 51 l 1
 345 51 l 1
 312 9 259 -8 207 -8 c 3
 175 -8 160 -7 140 4 c 1
 140 -146 l 25
 91 -146 l 25xd8
EndSplineSet
Validated: 1
EndChar

StartChar: guillemotright
Encoding: 187 187 129
Width: 364
VWidth: 838
Flags: W
HStem: 44 322
VStem: 60 257
LayerCount: 2
Fore
SplineSet
190 51 m 5
 247 207 l 5
 192 362 l 5
 202 366 l 5
 317 214 l 5
 317 197 l 5
 201 44 l 5
 190 51 l 5
60 51 m 5
 117 207 l 5
 61 362 l 5
 71 366 l 5
 186 214 l 5
 186 197 l 5
 69 44 l 5
 60 51 l 5
EndSplineSet
Validated: 1
EndChar

StartChar: questiondown
Encoding: 191 191 130
Width: 362
VWidth: 838
Flags: W
HStem: -8 52<133.462 248.948> 497 109<154.088 242.551>
VStem: 37 75<65.8218 200.084> 144 109<507.449 595.154> 181 35<297.806 405> 259 67<56.9225 142.694>
LayerCount: 2
Fore
SplineSet
200 606 m 7xf4
 233 606 253 584 253 552 c 7
 253 520 230 497 198 497 c 7
 166 497 144 520 144 552 c 7
 144 584 168 606 200 606 c 7xf4
259 88 m 4
 259 113 250 106 250 130 c 4
 250 150 274 159 290 159 c 4
 303 159 326 152 326 123 c 4
 326 51 257 -8 179 -8 c 4
 93 -8 37 57 37 133 c 7
 37 199 90 236 129 265 c 4
 169 294 181 311 181 368 c 6
 181 405 l 29
 216 405 l 29
 216 366 l 6xec
 216 330 212 282 157 232 c 4
 124 201 112 175 112 136 c 7
 112 81 135 44 183 44 c 4
 231 44 259 63 259 88 c 4
EndSplineSet
Validated: 1
EndChar

StartChar: registered
Encoding: 174 174 131
Width: 577
VWidth: 838
Flags: W
HStem: 190 26<217.924 360.076> 298 7<191 219 255 293 372 410> 408 23<255 290> 535 21<255 327.5> 548 8<191 219> 628 26<217.738 360.262>
VStem: 56 31<341.427 504.494> 219 36<312 408 431 535> 343 38<442.972 526.958> 491 31<341.427 504.294>
LayerCount: 2
Back
SplineSet
191.139648438 555.813476562 m 1
 290.0625 555.813476562 l 2
 318.565429688 555.813476562 341.620117188 549.666992188 359.224609375 537.370117188 c 0
 376.830078125 525.075195312 385.631835938 507.19140625 385.631835938 483.717773438 c 0
 385.631835938 466.391601562 380.461914062 452.418945312 370.123046875 441.80078125 c 0
 359.784179688 431.180664062 345.391601562 423.63671875 326.94921875 419.165039062 c 1
 383.956054688 314.374023438 l 1
 409.104492188 307.666992188 l 1
 409.104492188 297.607421875 l 1
 337.009765625 297.607421875 l 1
 277.48828125 414.973632812 l 1
 258.206054688 414.973632812 l 1
 258.206054688 314.374023438 l 1
 288.385742188 307.666992188 l 1
 288.385742188 297.607421875 l 1
 191.139648438 297.607421875 l 1
 191.139648438 307.666992188 l 1
 212.936523438 314.374023438 l 1
 212.936523438 538.208007812 l 1
 191.139648438 544.915039062 l 1
 191.139648438 555.813476562 l 1
258.206054688 432.579101562 m 1
 280.002929688 432.579101562 298.306640625 436.4921875 313.116210938 444.31640625 c 0
 327.926757812 452.139648438 335.333007812 465.83203125 335.333007812 485.393554688 c 0
 335.333007812 502.719726562 329.463867188 515.853515625 317.727539062 524.795898438 c 0
 305.990234375 533.73828125 286.150390625 538.208984375 258.206054688 538.208984375 c 1
 258.206054688 432.579101562 l 1
EndSplineSet
Fore
SplineSet
381 482 m 3xf7c0
 381 445 362 420 330 413 c 1
 372 312 l 1
 410 305 l 1
 410 298 l 1
 338 298 l 1
 290 408 l 1
 255 408 l 1
 255 312 l 1
 293 305 l 1
 293 298 l 1
 191 298 l 1
 191 305 l 1
 219 312 l 1
 219 542 l 1
 191 548 l 1
 191 556 l 1xefc0
 292 556 l 2
 332 556 362 541 375 514 c 0
 379 505 381 493 381 482 c 3xf7c0
277 431 m 2
 319 431 343 446 343 486 c 3
 343 525 322 535 282 535 c 2
 255 535 l 1xf7c0
 255 431 l 1
 277 431 l 2
56 423 m 3
 56 556 156 654 289 654 c 3
 422 654 522 555 522 423 c 3
 522 291 421 190 289 190 c 3
 157 190 56 291 56 423 c 3
87 423 m 3
 87 306 172 216 289 216 c 3
 406 216 491 306 491 423 c 3
 491 540 406 628 289 628 c 3
 172 628 87 540 87 423 c 3
EndSplineSet
Validated: 1
EndChar

